<?xml version="1.0" encoding="UTF-8"?>
<!DOCTYPE svg PUBLIC "-//W3C//DTD SVG 1.1//EN" "http://www.w3.org/Graphics/SVG/1.1/DTD/svg11.dtd">
<!-- Creator: CorelDRAW X7 -->
<svg xmlns="http://www.w3.org/2000/svg" xml:space="preserve" width="75.6496mm" height="52.4893mm" version="1.1" style="shape-rendering:geometricPrecision; text-rendering:geometricPrecision; image-rendering:optimizeQuality; fill-rule:evenodd; clip-rule:evenodd"
viewBox="0 0 7680 5329"
 xmlns:xlink="http://www.w3.org/1999/xlink">
 <defs>
  <style type="text/css">
   <![CDATA[
    .fil1 {fill:#F4EFEC}
    .fil4 {fill:#F4EDEB}
    .fil6 {fill:#F4EDEA}
    .fil2 {fill:#F3EBE8}
    .fil3 {fill:#F4EBE6}
    .fil10 {fill:#F4EBE4}
    .fil7 {fill:#F3E9E3}
    .fil8 {fill:#F3E8E1}
    .fil5 {fill:#F2E7E1}
    .fil9 {fill:#F1E3DD}
    .fil0 {fill:#F1E3DB}
   ]]>
  </style>
 </defs>
 <g id="Layer_x0020_1">
  <metadata id="CorelCorpID_0Corel-Layer"/>
  <g id="_-1839298360">
   <path class="fil0" d="M7490 3677c0,2 -1,5 -4,8 -8,7 -8,25 -24,19 -34,-13 -49,8 -63,32l0 0c-77,30 -160,40 -241,59 -15,4 -20,9 -20,19 0,3 0,7 1,11 6,36 9,72 9,108 0,67 -9,133 -22,198l0 0c-5,8 -10,16 -16,22 -28,22 -62,34 -82,70 -14,25 -49,40 -69,64 -38,45 -81,85 -119,129 -25,29 -57,54 -83,84 0,1 -1,1 -1,1 -84,98 -397,354 -443,361 143,-138 272,-287 407,-432 -81,65 -159,131 -239,196 -105,85 -229,168 -259,166 52,-36 94,-78 136,-121 69,-69 137,-139 205,-209 3,-4 8,-8 8,-12 0,-2 -1,-4 -2,-6 -7,-7 -12,1 -18,5 -34,28 -68,59 -104,84 -70,49 -141,97 -213,143 -45,28 -89,57 -141,74 69,-55 131,-117 195,-178 -109,67 -220,130 -334,187 139,-100 271,-207 401,-319 -20,-14 -35,-5 -48,4 -88,64 -181,120 -274,174 -148,85 -283,189 -415,295 -134,107 -266,215 -401,320 -37,29 -75,60 -106,96l-47 0c52,-47 101,-96 145,-151 37,-46 68,-97 108,-140 115,-121 247,-222 376,-328 53,-27 96,-68 142,-104 87,-65 171,-133 252,-205 82,-72 175,-127 270,-179 10,-6 30,-11 30,-24 0,0 0,-1 0,-1 -2,-18 -23,-2 -33,-10 -1,-1 -3,-3 -5,-4l0 0c87,-50 158,-117 224,-199l0 0c-137,58 -262,125 -384,198l0 0c-73,26 -136,73 -207,102 -98,40 -191,93 -287,138 -74,34 -151,64 -227,96l0 0c-4,2 -8,4 -12,6 -28,-3 -49,16 -73,24l0 0c-42,8 -80,29 -123,31 57,-24 109,-58 163,-88 30,-16 63,-27 89,-50l0 0c97,-50 195,-99 292,-148l0 0c120,-58 235,-124 352,-187 25,-13 36,-19 36,-29 0,-7 -6,-17 -17,-33l0 0c124,-46 241,-109 365,-157 -12,-12 -26,-5 -37,-4 -418,31 -833,6 -1246,-59 -22,-4 -35,0 -49,18 -59,76 -124,146 -195,211 -17,-17 1,-49 -29,-62 -7,25 -21,39 -49,30 -2,-1 -7,0 -10,2 -44,27 -98,32 -139,66l0 0c-72,21 -139,57 -221,77 -1,0 -3,0 -4,0 77,-47 145,-88 213,-129 -2,-3 -3,-5 -5,-8 -95,28 -190,56 -285,84 -1,-3 -2,-7 -4,-11 88,-30 165,-79 245,-124l0 0c-102,28 -201,64 -303,92 -6,0 -11,1 -16,2 -36,7 -71,19 -104,34 0,-1 -1,-1 -1,-1 -1,-3 -1,-6 -1,-9 0,-11 10,-17 21,-21 37,-13 70,-33 107,-56 -6,0 -11,0 -16,0 0,0 0,0 0,0 -5,0 -8,0 -12,1 -67,19 -134,32 -203,40 -38,4 -76,6 -113,17 -5,-5 -11,-7 -19,-6 -83,14 -165,36 -244,66 -111,42 -215,99 -329,132l0 0c-42,11 -84,15 -127,13 -141,-8 -281,-17 -420,17 -141,35 -279,81 -416,129l0 0c-42,1 -84,0 -125,-5 -14,-2 -27,-7 -36,-17 0,-1 0,-1 0,-1 -3,-4 -4,-8 -4,-11 0,-10 9,-15 20,-18 65,-21 129,-44 195,-63 101,-29 203,-53 304,-82 108,-31 217,-53 330,-49l0 0c49,15 101,11 151,14 70,4 140,-9 203,-44 113,-61 230,-111 353,-148 96,-30 197,-29 297,-41 104,-11 207,-32 306,-65l0 0c96,-17 192,-34 287,-50 73,-13 136,-47 207,-80 -29,-15 -53,-13 -77,-10 -74,8 -149,17 -223,27 -146,21 -293,40 -440,52 -6,-7 -13,-7 -22,-7 -25,-1 -51,3 -75,-4 -5,-2 -12,-3 -12,-10 0,0 0,-1 0,-1 1,-7 6,-9 12,-10 99,-20 196,-53 298,-59 12,-1 25,-2 37,-4 9,-2 20,-5 20,-15 0,-1 0,-1 0,-2 -2,-11 -14,-11 -23,-11 -80,0 -160,5 -240,13 -114,10 -227,2 -341,6 -7,0 -14,-1 -17,-15 60,-12 120,-26 180,-36 26,-4 52,-5 78,-13 4,-1 9,-4 13,-8 10,-1 20,-2 30,-3 18,10 36,8 54,5 20,-4 40,-4 59,-21 9,-1 19,-1 29,-2 11,6 24,15 38,12 37,-7 75,-7 113,-7 23,0 44,-1 68,-6 20,-5 37,-23 60,-16 22,7 44,15 69,23 -3,-7 -4,-12 -4,-18 0,-11 6,-19 17,-26 75,21 149,43 225,61 233,58 471,71 710,79 23,1 46,1 70,-1 -193,-72 -350,-189 -455,-369 -4,-3 -6,-8 -8,-12 3,4 5,8 8,12 -2,-11 -2,-23 -7,-32 -4,-7 -5,-11 -5,-14 0,-9 12,-6 21,-6 0,1 0,2 0,3 0,3 0,6 -1,10 0,3 -1,6 -1,9 0,4 1,8 6,10 13,6 15,-10 20,-19 4,-5 8,-7 15,-8 23,-2 30,-11 30,-23 0,-10 -5,-22 -7,-33 -3,-11 -19,-20 -19,-30 0,-3 1,-6 7,-10 12,-8 23,18 32,28 12,14 39,7 41,31 3,30 40,30 48,56 2,6 10,-1 14,-4 12,-7 15,-20 18,-33 1,-1 1,-2 1,-3 0,-2 -1,-4 -1,-7 0,-2 -1,-5 -1,-7 0,-4 2,-7 9,-7 15,1 38,9 42,20 13,41 40,49 79,47 16,-1 40,1 43,26 19,-10 25,-21 25,-34 0,-12 -6,-25 -12,-38 -1,-1 -1,-2 -1,-3 0,0 0,0 0,0 0,0 0,-1 0,-1 0,-2 0,-4 -1,-5 0,-2 0,-4 0,-5 0,-5 1,-9 6,-11 8,-3 13,5 17,10 24,26 49,52 70,80 16,21 29,28 50,21 14,-5 19,-17 19,-28 0,-8 -2,-17 -5,-23 -17,-40 -21,-82 -28,-124l0 0c-2,-12 -3,-23 -3,-35 0,-13 1,-26 2,-40 2,-13 3,-26 3,-40 0,-2 0,-5 0,-7l0 0c21,-78 41,-157 65,-234 13,-39 19,-78 19,-115 0,-68 -21,-132 -67,-191 -38,-49 -75,-99 -111,-150 -82,-118 -125,-247 -127,-390 -1,-85 -32,-157 -89,-220l0 0c-5,-10 -10,-20 -17,-30 -67,-91 -130,-184 -192,-278 -28,-43 -51,-89 -89,-126 -59,-100 -119,-200 -177,-301 -59,-100 -117,-200 -165,-305 -60,-135 -103,-275 -154,-413 -39,-108 -88,-212 -133,-318l0 0c26,-28 58,-25 91,-15 62,151 111,307 178,456 7,15 14,30 19,45 26,93 72,178 116,263 71,138 149,272 230,404 62,101 129,199 200,295l0 0c9,14 17,30 27,44 55,79 106,162 168,236l0 0 0 0c13,30 26,59 39,89 8,28 17,55 17,84 1,133 20,263 71,387 34,82 82,157 130,232 58,90 108,183 108,293 0,6 0,13 -1,19 -1,20 -5,40 -5,60 0,8 1,15 2,23 -8,29 -9,59 -23,86l0 0c-23,45 -28,95 -30,144 0,4 0,9 0,13 0,103 50,190 96,278 1,2 4,3 6,4l0 0c76,133 174,241 336,282 -86,-88 -167,-175 -234,-273 -1,-1 -2,-2 -3,-3 1,1 2,2 3,3 1,-15 9,-30 21,-32 17,-2 41,13 50,5 3,-3 4,-6 4,-10 0,-4 -2,-10 -4,-15 -2,-6 -4,-12 -4,-18 0,-4 1,-8 3,-11 3,-5 4,-9 4,-13 0,-8 -5,-16 -8,-25 -21,-54 -40,-108 -51,-165 0,-3 -1,-5 -1,-7 0,-10 7,-11 18,-10l0 0c0,2 1,4 2,6l0 0c6,10 11,19 18,31 6,-11 7,-21 7,-30 0,-6 0,-12 -1,-18 0,0 0,0 0,0 9,-42 13,-84 34,-124 0,0 0,1 0,1 0,62 20,118 40,175l0 0c-1,4 -1,8 -1,12 0,14 4,27 9,41 22,64 44,128 65,193 4,11 -2,29 23,24 17,-3 33,-4 33,-25 0,-1 0,-3 0,-4 -1,-9 -2,-17 -2,-25 0,-19 2,-37 4,-55 1,-19 3,-37 3,-55 0,-1 0,-2 0,-2 0,-1 0,-1 0,-1 0,-10 0,-20 1,-30 1,-9 2,-19 2,-29 0,-13 -2,-27 -6,-40l0 0c1,-102 12,-203 32,-304 22,55 23,115 36,179 19,-58 36,-109 53,-161l0 0c6,1 9,5 11,10l0 0c0,28 -1,56 -2,84l0 0c-2,7 -5,13 -6,20 -7,62 -4,125 -12,187 -2,10 -7,25 -7,39 0,14 6,28 30,33l0 0c-25,73 -45,147 -48,224 0,1 0,1 0,2 0,1 0,3 0,5 0,1 0,3 0,5 0,3 0,6 -1,9 -6,15 -8,29 -8,42 0,48 33,83 67,119 16,17 36,24 59,21 158,-21 318,-29 475,-54 109,-17 217,-35 325,-50 13,-2 23,-12 36,-11l0 0c-23,16 -25,50 -51,65 10,9 13,26 22,32 22,18 9,-21 28,-20 6,0 7,-2 7,-5 0,-2 0,-4 -1,-6 -1,-3 -1,-5 -1,-7 0,-2 0,-3 1,-4 3,-4 7,-10 11,-11 4,-2 8,2 8,7 0,0 0,1 0,1 -1,3 -2,7 -2,10 0,3 2,6 7,6 9,1 13,-8 18,-14 6,-8 -1,-21 12,-28 7,9 14,17 22,26 3,4 8,7 8,11l0 0zm-160 32c0,2 1,4 2,6 4,7 11,9 17,6 3,-1 4,-3 4,-5 0,-2 -2,-5 -3,-7 -3,-6 -7,-12 -16,-9 -3,3 -4,6 -4,9l0 0zm-895 -634c0,0 0,0 0,0 1,2 3,0 3,-1 0,0 -1,-1 -2,0 -1,1 -1,1 -1,1l0 0zm-70 1343c13,-1 23,-4 26,-18 -16,-5 -24,0 -26,18l0 0zm129 -1482c0,1 0,2 -1,3 1,-1 1,-3 1,-4 0,0 0,1 0,1l0 0zm-865 -1106c0,1 0,1 -1,1 0,0 0,-1 0,-1 0,0 1,0 1,0l0 0zm-1283 2270c0,0 -1,0 -1,0 -2,-1 -3,-1 -4,-2 2,0 4,1 5,2z"/>
   <path class="fil0" d="M4498 3529c-12,15 -29,30 -29,49 0,9 4,20 16,32 0,0 0,0 0,0 -16,1 -34,6 -37,1 -20,-32 -37,-11 -56,-1 -24,12 -90,-6 -102,-31 -10,-20 -24,-30 -45,-32l0 0c-143,-47 -282,-105 -422,-161 -240,-96 -474,-207 -706,-320 -24,-11 -33,-13 -51,13 -52,75 -111,145 -168,217 -14,-8 -32,-19 -45,-9 -37,31 -83,16 -124,34 -72,30 -148,49 -223,73 0,0 1,0 1,0 0,0 -1,0 -1,0 -57,16 -117,20 -176,28 -4,-5 -5,-9 -5,-11 0,-9 15,-7 19,-9 87,-41 174,-80 262,-120 7,-3 16,-7 16,-15 0,-1 0,-3 -1,-4 -6,-12 -16,-2 -24,1 -112,42 -227,71 -346,81 -14,1 -29,7 -44,-7 88,-37 174,-74 259,-110 -43,6 -83,21 -125,30 -63,14 -125,44 -190,28 -81,-21 -158,-5 -235,17 -72,20 -145,38 -219,52 -82,16 -159,-19 -239,-24l0 0c-23,-16 -49,-14 -74,-14 -31,0 -61,-7 -94,1 -21,5 -50,-3 -78,-1 7,18 19,31 34,21 10,-6 14,-5 20,0 1,0 1,2 1,5 0,1 0,3 0,4 -4,8 -12,7 -19,5 -34,-9 -51,10 -70,40 18,-4 33,-25 42,-1 4,12 10,24 10,37 0,6 -1,12 -5,18l0 0c-176,-51 -355,-86 -534,-122 -23,-4 -46,-9 -67,-18 -24,-9 -35,-23 -35,-45 0,-8 1,-15 3,-24l0 0c92,3 182,-11 273,-17 123,-8 246,-14 370,-21l0 0c0,0 0,0 0,0 53,6 105,11 158,16 21,10 44,15 67,15l0 0c8,1 16,1 24,3 51,14 102,28 156,30 120,5 229,-45 343,-66 57,-10 113,-18 169,-6 37,8 74,10 110,4 177,-32 346,-87 507,-166 3,-1 6,-3 6,-6 0,-1 0,-2 -1,-3 -129,10 -252,47 -375,84 -2,1 -4,1 -5,1 -27,-3 -29,-49 -63,-38 -1,0 -2,-2 -2,-3 -5,-12 -14,-9 -25,-11 -48,-7 -93,10 -141,8 -61,-2 -122,1 -183,2l0 0c-56,-3 -111,-7 -167,-11 37,-18 77,-9 113,-26l0 0c5,1 9,2 14,1 67,-16 136,-31 206,-36 56,-4 58,-7 58,-57l0 0c-10,30 -31,11 -42,19 -9,8 -17,15 -25,5 -8,-10 -20,-26 -20,-36 0,-1 0,-3 1,-4 1,-4 2,-7 2,-9 0,-11 -13,-6 -15,-3 -24,32 -42,5 -61,-6 -9,-5 -17,-9 -28,-11 -73,-14 -145,-29 -218,-43 -6,-1 -14,-1 -14,-8 0,-1 0,-1 0,-2 1,-8 7,-15 17,-14 13,1 27,3 41,5 12,2 23,-1 23,-14 0,-32 25,-40 46,-53l0 0c227,-22 450,13 674,49 -75,-38 -150,-75 -225,-113 -191,-96 -383,-192 -575,-289 -24,-12 -38,-16 -59,11 -37,47 -92,74 -149,89 -21,6 -37,25 -60,19l0 0c1,-5 2,-9 2,-12 0,-19 -16,-23 -35,-23 -62,0 -123,-10 -185,-17 -88,-10 -172,-33 -253,-67 -5,-2 -12,-3 -12,-9 0,-2 0,-3 1,-4 114,7 228,9 340,25 10,2 28,12 31,-8 0,-2 0,-3 0,-5 0,-13 -8,-21 -26,-24 -74,-12 -146,-29 -217,-53 -57,-19 -114,-38 -170,-58l0 0c-1,-3 -2,-5 -2,-7 0,-9 8,-10 19,-8 140,26 284,33 424,63 21,5 37,-4 50,-21 3,-4 5,-8 5,-11 0,-4 -2,-7 -6,-9 -9,-6 -18,-7 -22,6 -1,5 -7,16 -7,12 0,-8 -5,-9 -11,-10 -6,-1 -11,-1 -11,-6 0,-1 0,-2 0,-3 2,-6 3,-11 3,-15 0,-23 -25,-26 -41,-31 -50,-19 -102,-32 -152,-54 -114,-49 -232,-93 -348,-139 -11,-4 -21,-10 -34,-6 -69,-35 -143,-57 -216,-81l0 0c-13,-13 -31,-11 -46,-16 -117,-41 -235,-80 -352,-121 -25,-9 -52,-9 -75,-25 -29,-19 -58,-16 -85,5l0 0c-32,-24 -61,-49 -76,-87 -6,-16 -10,-28 -10,-38 0,-19 13,-28 45,-38l0 0c48,11 95,20 142,31 74,18 147,38 221,56l0 0c7,14 22,16 35,21 91,35 183,71 275,105 57,22 115,41 172,62l0 0c105,48 207,104 315,146 178,67 350,147 514,243 32,18 66,33 103,35 -64,-40 -129,-76 -194,-115 -94,-57 -180,-129 -281,-177 -27,-36 -67,-54 -101,-81 -44,-34 -90,-65 -134,-98 80,20 154,52 226,90 45,23 88,50 129,80 11,7 24,14 34,0 2,-4 3,-7 3,-10 0,-8 -7,-13 -15,-18 -11,-6 -19,-15 -30,-22 -68,-45 -136,-91 -203,-138 -62,-43 -124,-88 -185,-132l0 0c-26,-20 -51,-39 -76,-58 49,8 90,32 133,52 105,48 202,108 297,173 29,19 54,54 98,42 33,44 67,87 99,132 43,60 85,121 127,182 9,12 17,23 31,30 232,107 458,225 681,347 14,7 28,14 44,17 -53,-41 -106,-81 -159,-121 -19,-15 -37,-32 -54,-48 -41,-39 -63,-83 -63,-134 0,-16 2,-32 6,-49 8,-29 11,-58 11,-86 0,-46 -9,-90 -28,-134l0 0c1,-16 4,-31 24,-32 20,-1 14,15 17,27 4,16 23,15 35,23 7,5 19,0 21,-14 1,-7 7,-10 14,-8 7,1 9,6 9,13 0,1 0,2 0,3 0,2 0,4 0,6 0,17 8,21 28,12 11,-5 24,-2 27,16 4,25 20,35 45,27 15,-5 28,-6 42,3 12,8 25,12 44,1 1,1 1,1 2,1 -11,17 -18,26 -24,36 -2,2 -3,5 -3,7 0,5 6,8 11,11 5,3 5,15 15,8 3,-1 4,-3 4,-5 0,-3 -2,-6 -4,-9 -1,-2 -1,-4 -1,-5 0,-3 1,-6 5,-6 4,0 9,3 11,6 5,8 9,17 13,25l0 0c1,9 3,18 4,27 2,47 0,96 8,142 13,72 40,140 71,206 16,32 40,56 70,82 1,-13 1,-26 1,-39 0,-31 -4,-60 -15,-88 -18,-43 -35,-86 -43,-132 -10,-53 -13,-106 -13,-160 0,-51 3,-103 8,-155 3,-24 4,-47 4,-70 0,-79 -16,-153 -66,-221 -28,-39 -59,-75 -80,-118 -44,-90 -86,-180 -130,-269l0 0c-14,-30 -20,-63 -43,-88l0 0c-20,-45 -36,-91 -65,-131l0 0c-14,-27 -19,-59 -41,-81l0 0c-30,-77 -71,-149 -112,-219 -56,-94 -105,-191 -150,-290l0 0c27,-20 49,-9 71,10 38,33 75,67 113,101l0 0c11,23 27,45 37,70 26,66 47,133 71,199 52,141 105,281 168,416 14,31 31,60 48,89 56,94 130,176 190,268 45,71 83,145 99,228 4,23 6,45 6,68 0,57 -11,113 -16,170l0 0c-1,7 -4,15 -4,22 0,0 0,1 0,1 0,5 0,10 0,15 0,9 0,18 -1,28 0,9 0,18 0,27 0,19 1,38 5,58 1,7 1,14 1,21 0,0 0,1 0,2 0,0 0,1 0,2 0,18 2,27 37,11 3,-1 10,1 12,4 13,16 27,11 44,3 1,1 1,1 1,1 -2,4 -3,8 -3,11 0,5 2,10 4,15 1,5 3,9 3,15 0,1 0,3 -1,5 0,1 0,2 0,3 0,7 9,12 15,13 10,2 11,-7 11,-14 1,-26 15,-15 29,-12 0,1 1,1 1,2 -15,2 -20,7 -20,11 0,5 4,9 8,14 3,5 7,10 7,15 0,1 0,2 0,3 -1,1 -1,3 -1,3 0,8 17,5 28,10 -2,-10 -8,-18 -8,-27 0,-6 2,-12 8,-18 1,18 25,18 25,33 0,2 -1,3 -1,5 -2,6 -4,11 -4,16 0,4 2,6 10,7 9,0 28,3 28,-14 0,-2 -1,-4 -1,-7 0,0 0,-1 0,-2 0,-5 5,-4 8,-6 5,-1 10,-1 11,5 1,6 2,13 2,19 0,9 -3,16 -18,17 -9,1 -16,-2 -18,8 0,1 0,2 0,2 0,4 1,9 4,11 8,6 16,1 22,-4 16,-11 32,-22 56,-12 0,1 1,3 1,5 -7,6 -14,10 -14,19 0,3 1,7 3,11 9,22 20,3 28,7 16,7 37,3 50,19l0 0c1,21 2,41 2,62 0,79 -8,157 -18,235 0,4 0,8 0,11 0,10 3,18 17,25 259,120 519,240 782,354 4,2 8,3 20,7 -95,-102 -160,-213 -192,-342l0 0c15,-7 32,7 49,-9 8,-7 23,15 36,21 2,2 3,4 3,6 0,3 -1,7 -4,10 -2,2 -11,0 -11,4 0,1 1,3 4,6 3,4 10,15 19,4 14,-16 28,-5 37,3 3,2 4,4 4,7 0,7 -11,14 -11,22 0,8 -12,10 -12,18 0,1 0,2 1,4 32,-1 41,-1 41,-17 0,-7 -1,-16 -3,-29 -1,-2 -1,-4 -1,-7 0,-5 1,-11 1,-17 0,-35 4,-69 4,-104 0,-21 -1,-42 -5,-63l0 0c-3,-33 -5,-66 -7,-99 2,-1 5,-2 8,-2 20,47 42,93 59,142 8,24 22,43 36,62l0 0c-1,31 -2,62 -2,93 0,120 14,237 69,350 12,-7 11,-16 12,-23 6,-26 7,-53 7,-79 0,-28 -1,-55 -3,-83 -1,-29 -2,-59 -2,-88 0,-140 13,-279 17,-419 1,-46 19,-90 19,-135 0,-6 0,-13 -1,-20 -14,-99 -44,-194 -94,-281 -75,-132 -152,-262 -211,-402 -70,-162 -122,-331 -193,-492 -12,-28 -18,-58 -25,-87 -25,-110 -50,-221 -85,-329l0 0c-2,-29 -6,-58 -6,-87 0,-11 1,-22 2,-34 7,-51 38,-71 88,-59l0 0c33,86 35,178 43,269 11,132 33,263 90,384 24,52 39,106 54,161 20,70 40,140 65,208 39,109 99,206 162,302 59,90 108,186 160,280 34,61 51,124 51,189 0,36 -5,73 -16,110 -14,50 -27,100 -40,151l0 0c-7,30 -16,60 -21,91 -4,24 -6,41 -6,53 0,25 9,38 35,74 1,1 1,3 1,5 0,4 -2,7 -3,11 0,0 0,0 0,1 0,18 23,35 38,28 8,-3 10,-9 10,-15 0,-3 0,-6 -1,-9 0,-2 0,-5 0,-8 0,0 0,-1 0,-1 1,-17 25,12 25,-7 0,-2 0,-4 0,-6 -1,-3 -1,-6 -1,-9 0,-17 9,-32 16,-47 15,-33 15,-71 40,-105 1,0 1,0 1,0 0,0 0,0 0,0 10,31 9,57 11,84 0,4 0,8 0,11 0,15 -2,30 -3,45 -2,14 -3,29 -3,44 0,12 1,24 4,37 4,16 17,30 17,47 0,6 -2,13 -8,21 0,1 0,1 0,2 0,4 7,7 12,8 8,1 11,-4 11,-9 0,-2 0,-3 -1,-4 0,-5 -1,-9 -1,-14 0,-29 16,-55 23,-83 16,-64 41,-126 62,-189 11,-27 17,-56 38,-85 0,0 1,0 1,0 1,8 2,15 2,22 0,11 -2,21 -3,31 -2,11 -3,21 -3,30 0,6 0,11 2,17l0 0c-12,69 -24,138 -33,208 -1,5 -2,12 -2,19 0,12 4,24 19,26 21,2 23,15 29,28 -20,46 -40,93 -60,140 -21,48 -38,98 -52,150 -2,5 -3,10 -3,15 0,12 7,20 24,26 49,16 97,36 145,55l0 0zm-2580 -723c0,3 1,6 3,9 3,5 8,9 13,6 6,-4 8,-9 8,-15 0,-2 0,-4 0,-6 -6,-7 -13,-6 -19,-3 -3,2 -5,5 -5,9zm-64 -464c10,8 21,14 36,13 -9,-20 -23,-15 -36,-13zm-361 -75c0,4 5,5 8,7 22,16 50,15 73,28 9,5 15,1 18,-9 1,-2 1,-4 1,-6 0,-5 -4,-7 -12,-9 -22,-4 -43,-12 -65,-18 -5,-2 -11,-2 -17,-3 -2,3 -5,6 -5,9 -1,0 -1,1 -1,1zm15 -217c0,0 0,1 1,2 8,14 24,10 37,12 4,1 9,-5 9,-9 0,-2 -1,-3 -1,-4 -10,-14 -25,-6 -37,-8 -5,1 -9,3 -9,7z"/>
   <path class="fil1" d="M6779 2287c0,191 -32,377 -100,558 -5,10 -10,21 -15,31 0,0 0,0 0,0 0,-30 -19,-52 -43,-60 -22,-8 -28,22 -43,34 -6,5 -84,24 -91,21 -2,-1 -3,-3 -3,-5 0,0 0,0 0,0 0,-2 0,-4 0,-5 0,-26 -26,-12 -34,-12 -7,0 -9,2 -9,5 0,5 5,12 7,17 1,2 1,4 1,5 0,6 -5,8 -11,9 -19,3 -40,9 -40,-18 0,-2 0,-5 0,-8 0,-2 1,-4 1,-6 0,-4 -2,-8 -9,-9 -7,3 -6,9 -7,15 -7,39 -25,53 -64,44 -21,-4 -40,5 -52,17 -13,14 -27,21 -43,28 -14,6 -25,12 -25,28 0,2 0,5 0,7 0,2 1,4 1,6 0,6 -3,11 -20,8 -26,-4 -63,-11 -83,23 -4,7 1,22 -14,21 -12,-1 -20,-9 -25,-21 -3,-7 -5,-16 -15,-18l0 0c3,-26 5,-53 9,-79 4,-28 6,-56 6,-83 0,-107 -33,-206 -94,-299 -44,-67 -91,-133 -128,-205 -61,-120 -91,-248 -98,-383 -6,-125 -49,-239 -124,-340 -83,-112 -165,-224 -248,-337 -54,-74 -103,-153 -148,-233 13,2 17,15 29,21 32,15 60,29 97,29 41,0 80,21 123,18 18,-1 25,-7 25,-20 0,-22 5,-28 22,-10 12,13 23,10 36,0 31,-23 64,-41 100,-55 10,-3 23,-7 27,-14 26,-45 65,-78 98,-117 25,-30 38,-66 53,-102 0,-1 0,-2 1,-3 2,-2 5,-4 7,-7 2,-1 5,-1 7,0 21,4 26,-6 27,-25 0,-16 8,-31 18,-45 80,66 145,144 192,237 -15,-1 -29,0 -29,16 0,2 0,4 1,7 1,4 1,7 1,10 0,15 -12,12 -25,7 -22,-8 -32,-4 -38,22 -11,43 -39,79 -61,117 -12,22 -37,44 -37,68 0,6 2,12 5,19 10,20 14,39 14,57 0,20 -4,39 -11,60 -1,3 -1,6 -1,9 0,15 9,33 16,48 5,8 27,9 27,20 0,4 -3,9 -11,17 0,1 -1,1 -1,1 0,2 6,5 11,5 11,0 14,6 14,13 0,2 0,4 -1,6 0,3 0,6 0,8 0,17 11,23 29,24 8,1 21,-3 21,11 0,0 0,1 0,1 0,0 0,1 0,2 0,16 11,28 21,40 11,11 21,23 21,40 0,1 0,2 0,3 0,0 0,0 0,1 0,3 7,8 11,5 24,-19 63,9 81,-34 22,44 52,69 99,67 5,0 11,9 16,13 16,16 29,18 39,-6 7,-15 20,-26 33,-15 29,22 44,4 59,-16 9,-13 15,-24 30,-5 10,13 25,5 29,-4 13,-41 36,-64 81,-57 2,0 5,-4 8,-6 15,-17 29,-35 29,-58 0,-3 0,-7 -1,-10 59,72 95,157 124,243 52,162 84,330 93,500 1,30 2,59 2,88z"/>
   <path class="fil2" d="M6998 4514c-54,125 -131,236 -220,338 -65,75 -137,144 -219,201 0,-3 1,-6 1,-9 0,-10 -3,-17 -20,-12 -12,3 -23,0 -24,-13 0,-15 -4,-23 -20,-21 -4,0 -7,-4 -7,-8 0,-1 0,-2 1,-3 1,-7 7,-8 13,-6 7,2 14,9 21,-1 -18,-14 -33,-17 -46,6 -6,9 -14,11 -24,3 -5,-4 -10,-9 -10,-15 0,-2 1,-5 3,-8 5,-8 11,-17 11,-34 0,-2 0,-4 0,-7 -21,48 -46,29 -72,15 6,10 11,19 11,28 0,7 -4,14 -16,20 -3,1 0,18 -11,15 -4,-1 -7,-6 -7,-11 0,-3 1,-7 4,-10 2,-3 3,-8 3,-12 0,-8 -4,-15 -7,-13 -13,5 -27,7 -38,13 -2,1 -3,3 -3,4 0,6 10,12 14,17 7,9 16,17 21,27 3,7 5,12 5,18 0,15 -17,23 -56,25 3,-8 5,-15 8,-23 1,-5 3,-10 3,-14 0,-4 -1,-8 -5,-12 -11,-9 -17,2 -22,9 -9,9 -15,7 -27,1 -25,-12 -42,-2 -42,19 0,3 0,6 1,9 0,1 0,3 0,4 0,0 0,1 0,1 -1,2 -2,4 -3,6 -15,14 -84,16 -97,-1 -6,-7 -10,-14 -18,-7 -7,6 -18,11 -18,21 0,2 0,4 1,6 3,11 8,24 8,31 0,8 -7,10 -32,-6 -8,-5 -13,4 -17,8 -11,9 -21,18 -37,21 7,9 13,13 16,19 3,7 11,16 11,23 0,3 -2,5 -5,7 -8,4 -23,26 -37,3 -5,-8 -9,-2 -14,1 -16,9 -27,18 -27,31 0,7 4,16 13,26 11,13 18,29 26,44 -9,7 -27,-14 -30,8 0,2 0,3 0,5 0,12 8,20 22,25 2,1 4,2 5,3l-878 0c31,-36 69,-67 106,-96 135,-105 267,-213 401,-320 132,-106 267,-210 415,-295 93,-54 186,-110 274,-174 13,-9 28,-18 48,-4 -130,112 -262,219 -401,319 114,-57 225,-120 334,-187 -64,61 -126,123 -195,178 52,-17 96,-46 141,-74 72,-46 143,-94 213,-143 36,-25 70,-56 104,-84 6,-4 11,-12 18,-5 1,2 2,4 2,6 0,4 -5,8 -8,12 -68,70 -136,140 -205,209 -42,43 -84,85 -136,121 30,2 154,-81 259,-166 80,-65 158,-131 239,-196 -135,145 -264,294 -407,432 46,-7 359,-263 443,-361 0,0 1,0 1,-1 0,1 -1,1 -1,1 14,-3 27,-4 36,11 7,12 19,21 31,19 22,-2 39,7 55,22 2,-10 0,-19 3,-24 7,-11 5,-30 25,-33 1,12 24,14 24,26 0,4 -2,9 -9,15 -1,1 -2,2 -2,4 0,3 2,6 5,8 9,5 14,-1 16,-8 9,-31 33,-30 58,-27l0 0z"/>
   <path class="fil1" d="M4610 2432c0,160 -17,316 -72,467 -29,-34 -70,-30 -107,-37l0 0c-2,-6 -2,-11 -2,-17 0,-9 1,-19 3,-30 1,-10 3,-20 3,-31 0,-7 -1,-14 -2,-22 0,0 0,0 0,0 0,0 -1,0 -1,0 -21,29 -27,58 -38,85 -17,9 -45,3 -45,38 0,2 0,4 0,5 0,0 -1,0 -1,1 -10,-24 -16,-39 -34,-38 -30,2 -32,-17 -33,-38 0,0 0,-1 0,-2 0,-2 1,-5 1,-8 0,-2 0,-5 0,-8 0,-6 -1,-12 -4,-19 -3,7 -4,10 -5,13 -11,48 -22,51 -67,34 -15,-5 -29,-4 -32,-23 0,-1 -10,0 -16,1 -11,2 -17,-3 -22,-12l0 0c13,-51 26,-101 40,-151 11,-37 16,-74 16,-110 0,-65 -17,-128 -51,-189 -52,-94 -101,-190 -160,-280 -63,-96 -123,-193 -162,-302 -25,-68 -45,-138 -65,-208 -15,-55 -30,-109 -54,-161 -57,-121 -79,-252 -90,-384 -8,-91 -10,-183 -43,-269l0 0c54,19 94,58 137,93 89,71 184,134 256,224 65,80 121,166 169,258 115,223 230,445 359,661 78,131 121,278 122,434 0,8 0,17 0,25z"/>
   <path class="fil1" d="M3109 2382c0,7 -1,14 -1,21l0 0c-11,8 -10,43 -36,14 -3,-3 -11,-2 -15,4 -16,28 -23,8 -26,-6 -5,-21 -16,-26 -37,-32 -38,-10 -69,-43 -113,-36 -3,1 -8,-3 -8,-5 0,-24 -23,-37 -36,-47 -33,-24 -43,-72 -89,-80l0 0c5,-57 16,-113 16,-170 0,-23 -2,-45 -6,-68 -16,-83 -54,-157 -99,-228 -60,-92 -134,-174 -190,-268 -17,-29 -34,-58 -48,-89 -63,-135 -116,-275 -168,-416 -24,-66 -45,-133 -71,-199 -10,-25 -26,-46 -37,-70l0 0c187,142 373,286 530,463 80,90 141,194 191,305 128,287 211,587 242,900 0,2 1,5 1,7z"/>
   <path class="fil2" d="M6189 4182c-4,12 -16,13 -24,18 -50,30 -102,56 -148,90 -56,41 -107,87 -160,132 -91,78 -181,156 -272,235 -77,66 -153,134 -233,197 -70,54 -130,118 -181,189 -53,74 -115,140 -178,205 -28,29 -57,55 -87,81l-262 0c-1,-2 -2,-5 -3,-7 -4,-10 -16,-15 -27,-8 -19,11 -33,2 -46,-11 -34,-36 -85,-38 -127,-47 -58,-13 -119,-20 -178,-31 -23,-4 -35,1 -43,27 -7,25 -11,51 -14,77l-44 0c0,-2 0,-4 0,-6 0,-15 -1,-30 -4,-44 -2,-15 -6,-31 -6,-47 0,-6 0,-11 2,-17 5,-17 12,-39 24,-52 4,-3 7,-5 11,-8 4,-2 8,-3 13,-3 34,1 68,-10 106,8 37,17 82,55 131,18 1,-1 5,1 7,1 39,5 79,8 118,14 16,2 27,-1 35,-15 13,-20 30,-28 53,-19 21,8 45,-12 65,8 1,1 9,-3 11,-6 10,-30 43,-37 61,-60 5,-7 16,-11 17,1 0,20 20,33 20,52 0,5 -1,10 -4,15 7,-4 10,-5 11,-6 7,-9 10,-18 10,-27 0,-11 -5,-22 -12,-33 -2,-4 -3,-9 -3,-13 0,-9 5,-17 12,-25 6,-6 12,-6 19,-3 11,4 12,12 12,20 0,4 0,8 0,12 0,5 -3,9 -3,13 0,4 2,7 7,11 8,-12 22,-13 35,-15 7,-1 19,-5 19,-12 0,-1 0,-3 -1,-4 -6,-9 -8,-19 -8,-28 0,-4 1,-8 1,-13 0,-4 0,-8 0,-12 0,-6 0,-11 -1,-17 -11,10 -20,17 -20,29 0,3 0,5 1,8 1,2 1,5 1,7 0,3 -1,6 -5,7 -6,2 -12,-2 -14,-7 -5,-10 -14,-20 -14,-30 0,-3 1,-6 2,-9 12,-25 14,-50 14,-76 0,-21 -2,-43 -2,-64 0,-1 0,-1 0,-1 0,-9 1,-17 1,-26 0,-8 1,-17 1,-26 0,-11 -1,-22 -3,-34 0,0 0,-1 0,-1 0,-3 1,-6 2,-9 3,-7 5,-13 5,-19 0,-15 -8,-29 -17,-42 -5,-8 -13,-15 -14,-23 -6,-43 -4,-87 -26,-126 0,0 0,-1 0,-1 0,-4 7,-11 10,-16l0 0c11,-6 22,-9 35,-7l0 0c36,53 50,115 63,177 5,24 12,51 34,57 52,16 107,16 160,-3 11,-4 19,-11 20,-25 1,-7 4,-17 10,-16 34,7 50,-50 89,-26 5,3 7,0 9,-6 15,-41 45,-52 88,-52 17,0 52,1 57,-26 4,-26 27,-21 38,-34 16,-21 30,-14 46,1 5,5 13,5 19,-1 2,-2 3,-5 3,-7 0,-5 -6,-9 -9,-13 -5,-5 -16,-10 -16,-17 0,-1 1,-3 2,-4 3,-6 4,-11 4,-14 0,-13 -17,-16 -26,-24l0 0c76,-32 153,-62 227,-96 96,-45 189,-98 287,-138 71,-29 134,-76 207,-102l0 0z"/>
   <path class="fil3" d="M5888 713l0 0c-10,14 -18,29 -18,45 -1,19 -6,29 -27,25 -2,-1 -5,-1 -7,0 -3,1 -6,4 -7,7 -1,1 -1,2 -1,3 -15,36 -28,72 -53,102 -33,39 -72,72 -98,117 -4,7 -17,11 -27,14 -36,14 -69,32 -100,55 -13,10 -24,13 -36,0 -17,-18 -22,-12 -22,10 0,13 -7,19 -25,20 -43,3 -82,-18 -123,-18 -37,0 -65,-14 -97,-29 -12,-6 -16,-19 -29,-21l0 0c-5,-10 -9,-21 -15,-31 -60,-97 -114,-198 -164,-301l0 0c-6,-14 -11,-28 -18,-42 -4,-7 -5,-14 -5,-20 0,-9 3,-17 11,-25 40,-41 41,-101 71,-147 28,-41 31,-104 92,-121 4,-1 8,-7 8,-11 1,-23 18,-33 36,-42 95,75 189,151 285,225 46,36 103,46 158,62 80,24 150,66 211,123z"/>
   <path class="fil3" d="M3986 2508c0,3 0,5 0,8 -1,132 -7,264 -11,396l0 0c-14,-19 -28,-38 -36,-62 -17,-49 -39,-95 -59,-142 -3,0 -6,1 -8,2 2,33 4,66 7,99l0 0c-16,16 -31,31 -54,11 -6,-5 -15,0 -22,5 -15,9 -34,12 -42,-5 -2,-2 -2,-5 -2,-6 0,-10 17,-11 23,-19 1,-1 1,-4 2,-6 -7,-7 -15,-12 -19,-19 -4,-7 -3,-17 -15,-15 -10,2 -11,11 -12,19 -3,11 -3,28 -18,23 -22,-7 -25,10 -35,19l0 0c-16,-41 -40,-78 -63,-116 -37,-63 -57,-130 -57,-201 0,-15 1,-30 3,-46 1,-8 1,-17 1,-25 0,-53 -20,-99 -45,-143 -51,-92 -82,-186 -82,-285 0,-40 5,-81 16,-123 37,-141 52,-284 52,-429 0,-41 -2,-82 -4,-123l0 0c3,2 7,4 8,6 31,126 88,243 128,366 33,98 78,193 122,287 22,51 55,96 80,146 40,80 91,154 121,240 17,47 21,92 21,138z"/>
   <path class="fil4" d="M5878 2744c0,37 -6,76 -19,115 -24,77 -44,156 -65,234l0 0c-17,21 -37,22 -58,8 -9,-6 -18,-11 -29,-9 -25,6 -49,-2 -72,-8 -43,-11 -63,-30 -63,-63 0,-11 2,-24 6,-39 2,-7 4,-14 4,-20 0,-12 -5,-21 -23,-25 -8,-2 -18,-6 -18,-15 0,-1 0,-2 0,-3 3,-11 13,-12 23,-12 14,1 28,0 28,-15 0,-2 0,-5 -1,-8 -6,-21 -11,-43 -21,-62 -3,-6 -5,-9 -5,-13 0,-6 7,-8 16,-10 10,-1 22,1 24,-13 0,-1 0,-2 0,-3 0,-22 -28,-63 -48,-71 -9,-4 -15,-7 -15,-15 0,-3 1,-6 3,-11 4,-7 6,-13 6,-19 0,-11 -8,-20 -24,-26 -19,-7 -32,-22 -43,-40 -2,-4 -4,-7 -4,-11 0,-2 2,-5 5,-7 12,-10 17,-16 17,-20 0,-8 -18,-9 -30,-13 -16,-4 -30,-9 -47,-9 -12,0 -27,-4 -32,-20 1,0 1,-1 2,-2 11,-4 17,16 32,4 -15,-28 -53,-37 -63,-69 0,-1 -6,-1 -9,1 -38,12 -80,15 -111,54 0,0 0,0 -1,0 2,-10 5,-19 5,-26 0,-10 -6,-16 -27,-16 -18,-1 -42,-4 -64,-9 0,0 0,0 0,0 3,-13 13,-20 13,-32 0,0 0,-1 0,-2 -1,-10 2,-24 -10,-26 -13,-1 -10,13 -12,22 -12,44 -15,47 -59,29 -22,-8 -28,-3 -28,14 0,2 0,4 0,6 1,5 1,10 1,14 0,17 -4,29 -32,18 -8,-3 -13,3 -19,5 -34,13 -33,52 -55,73l0 0c-19,-55 -29,-110 -29,-167 0,-7 1,-13 1,-19l0 0c45,5 91,16 128,-24 4,-4 8,-9 15,-6 29,14 45,-7 62,-23 9,-8 14,-18 28,-20 38,-7 71,-24 90,-58 15,-25 29,-46 61,-50 9,-1 12,-11 13,-19 2,-42 35,-69 54,-101 23,-38 41,-75 50,-118 1,-2 1,-5 1,-8 0,-6 -1,-13 -2,-20 -2,-7 -3,-14 -3,-20 0,-13 5,-24 23,-33 -5,-11 -5,-23 -5,-36 0,-1 0,-3 0,-4 0,-2 0,-4 0,-5 0,-15 -1,-30 -8,-43 -4,-7 -7,-13 -7,-18 0,-6 4,-12 11,-16 18,-11 21,6 27,17 5,7 11,8 18,5 57,62 88,135 89,220 2,143 45,272 127,390 36,51 73,101 111,150 46,59 67,123 67,191z"/>
   <path class="fil1" d="M4644 5329l-438 0c3,-26 7,-52 14,-77 8,-26 20,-31 43,-27 59,11 120,18 178,31 42,9 93,11 127,47 13,13 27,22 46,11 11,-7 23,-2 27,8 1,2 2,5 3,7z"/>
   <path class="fil3" d="M5794 3100c0,14 -1,27 -3,40 -1,14 -2,27 -2,40 0,12 1,23 3,35l0 0c-41,32 -47,32 -96,-3 -3,-2 -10,-4 -12,-2 -16,11 -37,5 -52,13 -31,17 -47,8 -52,-27 -9,11 -10,23 -27,21 -23,-4 -47,-17 -70,6 -10,9 -14,-6 -15,-16 -2,-11 -11,-10 -19,-10 -4,0 -8,4 -11,5 4,8 6,12 6,16 0,12 -26,2 -30,11 -3,5 -17,4 -22,-3 -1,-2 -2,-3 -2,-5 0,-5 4,-9 8,-12 6,-5 8,-11 8,-16 0,-6 -2,-11 -4,-16 -5,-12 -18,-14 -30,-10 -16,5 -26,-4 -36,-14 -4,-5 -5,-15 -13,-15 -42,-1 -33,-45 -53,-65 -6,-7 -10,-32 -18,-48 0,0 0,0 0,0 0,8 -4,15 -9,21 -5,7 -9,13 -9,21 0,5 2,10 7,16 0,0 0,0 0,0 0,2 -4,8 -7,10 -5,4 -11,0 -15,-4 -3,-2 -28,-2 -32,0 -5,2 -9,2 -14,3l0 0c-12,-15 -12,-35 -13,-53 -6,-87 -44,-161 -91,-232 -47,-71 -86,-147 -113,-228l0 0c22,-21 21,-60 55,-73 6,-2 11,-8 19,-5 28,11 32,-1 32,-18 0,-4 0,-9 -1,-14 0,-2 0,-4 0,-6 0,-17 6,-22 28,-14 44,18 47,15 59,-29 2,-9 -1,-23 12,-22 12,2 9,16 10,26 0,1 0,2 0,2 0,12 -10,19 -13,32 0,0 0,0 0,0 0,0 0,0 0,0 22,5 46,8 64,9 21,0 27,6 27,16 0,7 -3,16 -5,26 0,0 0,1 0,1 0,0 1,-1 1,-1 31,-39 73,-42 111,-54 3,-2 9,-2 9,-1 10,32 48,41 63,69 -15,12 -21,-8 -32,-4 -1,0 -1,1 -2,1 0,0 0,1 0,1 5,16 20,20 32,20 17,0 31,5 47,9 12,4 30,5 30,13 0,4 -5,10 -17,20 -3,2 -5,5 -5,7 0,4 2,7 4,11 11,18 24,33 43,40 16,6 24,15 24,26 0,6 -2,12 -6,19 -2,5 -3,8 -3,11 0,8 6,11 15,15 20,8 48,49 48,71 0,1 0,2 0,3 -2,14 -14,12 -24,13 -9,2 -16,4 -16,10 0,3 2,8 5,13 10,19 15,41 21,62 1,3 1,6 1,8 0,15 -14,16 -28,15 -10,0 -20,1 -23,12 0,1 0,2 0,3 0,9 10,13 18,15 18,4 23,13 23,25 0,6 -2,13 -4,20 -4,15 -6,28 -6,39 0,33 20,52 63,63 23,6 47,14 72,8 11,-2 20,3 29,9 21,14 41,13 58,-8l0 0c0,2 0,5 0,7zm-359 -487c0,2 1,4 4,5 15,9 23,33 44,26 5,-1 7,-3 7,-5 0,-4 -5,-9 -8,-14 -7,-14 -14,-32 -36,-25 -4,2 -11,8 -11,13z"/>
   <path class="fil1" d="M5192 1379c0,4 -1,8 -7,11 -15,8 -31,10 -46,-2 -8,-6 -17,-22 -23,-17 -31,28 -58,2 -85,-7 -28,-9 -48,-11 -61,21 -5,14 -20,15 -33,12 -8,-2 -10,-5 -10,-10 0,-3 1,-7 3,-11 1,-2 1,-4 1,-6 0,-4 -2,-7 -7,-8 -8,-3 -13,3 -16,9 -15,32 -67,7 -75,50 -2,-1 -3,-1 -4,-1 -30,-4 -51,17 -55,38 -5,37 -16,30 -34,9 -4,9 -2,18 -7,24 -1,0 -3,1 -5,3 -29,-72 -41,-149 -55,-225 -41,-229 -56,-460 -82,-690 -17,-147 -35,-294 -52,-441 -2,-17 -5,-34 -5,-51 0,-23 5,-45 23,-65l0 0c45,106 94,210 133,318 51,138 94,278 154,413 48,105 106,205 165,305 58,101 118,201 177,301 1,7 6,14 6,20z"/>
   <path class="fil3" d="M4113 3860c-53,20 -110,23 -165,34 -105,20 -208,49 -301,100 -99,54 -197,102 -313,103 -100,2 -200,6 -298,24 -13,-6 -14,-19 -18,-41 -7,23 -20,28 -33,33 -8,3 -19,10 -24,-2 0,-2 0,-3 0,-4 0,-6 9,-8 15,-11 13,-9 32,-16 32,-35 0,-1 0,-2 -1,-4 -2,-16 -3,-32 -3,-48 0,-23 2,-45 4,-68 2,-17 -1,-49 11,-50 34,-4 47,-40 79,-44 15,-2 23,-13 23,-26 0,-6 -2,-14 -6,-21 -10,-15 -14,-27 -14,-37 0,-17 11,-29 36,-40 9,-4 15,-8 15,-13 0,-4 -3,-8 -9,-13l0 0c72,-30 143,-67 218,-90 56,-17 115,-32 174,-38l0 0c3,28 43,26 43,55 0,2 0,4 -1,6 13,-11 4,-26 14,-35 3,2 8,3 9,5 8,16 40,15 40,38 0,4 -1,9 -3,14 0,0 0,1 0,1 0,3 24,17 36,12 4,-2 6,-4 6,-7 0,-6 -7,-14 -10,-20 -1,-2 -2,-5 -3,-8 23,21 66,18 71,60 1,10 13,20 27,16 10,-4 18,-4 18,8 0,1 0,2 0,3 -2,14 -10,14 -19,8 -10,-6 -16,-4 -18,7 -1,1 -1,2 -1,3 0,8 5,12 14,11 17,-1 38,1 48,5 24,10 39,16 55,-9 3,-4 11,-3 16,1 2,1 3,2 3,4 0,1 -1,3 -2,4 -6,7 -9,14 -9,19 0,13 12,22 23,24 25,5 46,37 76,14 0,-1 1,-2 1,-3 3,-5 7,-6 12,-5 5,2 6,4 6,6 0,3 -1,5 -2,8 -1,3 -2,6 -2,9 0,13 18,17 23,18 36,5 70,20 107,20zm-1082 47c0,2 0,4 1,6 4,10 12,15 22,13 5,-2 7,-5 7,-9 0,-3 -2,-8 -4,-11 -3,-8 -9,-13 -20,-11 -4,3 -6,8 -6,12z"/>
   <path class="fil5" d="M4290 4340c0,7 -16,16 -19,22 -3,5 -4,9 -4,13 0,8 4,16 7,23l0 0c-38,3 -77,0 -114,-7 -130,-25 -247,4 -360,70 -80,47 -163,92 -251,125 -135,51 -268,47 -401,-4 -40,-15 -80,-31 -120,-46l0 0c-2,-8 -4,-16 -6,-22 37,-14 78,0 112,-27 15,-12 22,22 40,18 19,-4 1,-29 24,-35 24,-6 43,-13 69,-5 47,16 53,12 63,-24 9,1 7,19 20,14 7,-3 9,-8 9,-14 0,-2 -1,-4 -1,-6 0,-4 -1,-9 -1,-13 0,-5 2,-10 8,-11 8,-1 22,0 28,10 16,26 35,-5 54,4 10,4 12,-18 14,-31 3,-23 9,-45 29,-60 14,-11 20,-21 20,-32 0,-11 -7,-22 -18,-33l0 0c114,-33 218,-90 329,-132 79,-30 161,-52 244,-66 8,-1 14,1 19,6 -1,4 -5,10 -5,14 0,0 0,1 0,1 3,8 8,4 13,0 8,-6 16,-13 19,4 9,44 41,50 79,42 -9,17 -13,33 -26,44 11,8 32,3 32,7 0,0 0,0 -1,1 -3,5 -5,9 -5,13 0,11 16,15 19,23 18,37 23,37 54,7 -2,7 -3,13 -3,20 0,7 1,15 2,23 2,7 3,15 3,22 0,7 -1,15 -5,22 0,0 0,1 0,1 0,4 4,11 6,11 18,0 24,4 24,8z"/>
   <path class="fil2" d="M2622 3267c0,8 -9,12 -16,15 -88,40 -175,79 -262,120 -4,2 -19,0 -19,9 0,2 1,6 5,11 -38,8 -58,22 -58,41 0,5 1,9 3,14 8,21 9,41 10,62 0,0 0,0 0,0 0,11 -9,84 -12,89l0 0c-36,6 -72,1 -107,-3 -106,-10 -212,-9 -318,7 -131,20 -253,-6 -369,-67 -21,-11 -42,-23 -63,-35l0 0c7,-6 13,-10 13,-21 0,-2 0,-3 -1,-6 0,-3 0,-7 0,-10 0,-27 12,-52 23,-77 3,-6 4,-12 4,-17 0,-5 -2,-10 -8,-14 -7,-4 -9,-8 -9,-12 0,-5 3,-10 6,-15 5,-8 14,-15 14,-25 0,-1 0,-2 0,-2 80,5 157,40 239,24 74,-14 147,-32 219,-52 77,-22 154,-38 235,-17 65,16 127,-14 190,-28 42,-9 82,-24 125,-30 -85,36 -171,73 -259,110 15,14 30,8 44,7 119,-10 234,-39 346,-81 8,-3 18,-13 24,-1 1,1 1,3 1,4z"/>
   <path class="fil2" d="M6561 1466c0,23 -14,41 -29,58 -3,2 -6,6 -8,6 -45,-7 -68,16 -81,57 -4,9 -19,17 -29,4 -15,-19 -21,-8 -30,5 -15,20 -30,38 -59,16 -13,-11 -26,0 -33,15 -10,24 -23,22 -39,6 -5,-4 -11,-13 -16,-13 -47,2 -77,-23 -99,-67 -18,43 -57,15 -81,34 -4,3 -11,-2 -11,-5 0,-1 0,-1 0,-1 0,-1 0,-2 0,-3 0,-17 -10,-29 -21,-40 -10,-12 -21,-24 -21,-40 0,-1 0,-2 0,-2 0,0 0,-1 0,-1 0,-14 -13,-10 -21,-11 -18,-1 -29,-7 -29,-24 0,-2 0,-5 0,-8 1,-2 1,-4 1,-6 0,-7 -3,-13 -14,-13 -5,0 -11,-3 -11,-5 0,0 1,0 1,-1 8,-8 11,-13 11,-17 0,-11 -22,-12 -27,-20 -7,-15 -16,-33 -16,-48 0,-3 0,-6 1,-9 7,-21 11,-40 11,-60 0,-18 -4,-37 -14,-57 -3,-7 -5,-13 -5,-19 0,-24 25,-46 37,-68 22,-38 50,-74 61,-117 6,-26 16,-30 38,-22 13,5 25,8 25,-7 0,-3 0,-6 -1,-10 -1,-3 -1,-5 -1,-7 0,-16 14,-17 29,-16l0 0c36,49 59,106 88,160 27,51 67,88 118,114 84,42 160,96 224,167 19,20 33,44 50,65l0 0c1,3 1,7 1,10z"/>
   <path class="fil6" d="M6058 2840c0,27 -2,55 -6,83 -4,26 -6,53 -9,79l0 0c0,62 -26,119 -29,179l0 0c-21,16 -18,41 -23,63 0,1 -1,2 -1,4 0,1 1,3 1,5 0,2 0,4 0,5 0,6 -1,10 -10,11 -14,1 -26,-9 -27,-22 -1,-24 -16,-36 -32,-49l0 0c-4,-7 -5,-13 -5,-20 0,-2 0,-4 0,-6 0,-2 0,-4 0,-6 0,-1 0,-1 0,-2 0,-14 0,-27 0,-41 0,-34 1,-67 7,-100l0 0c14,-27 15,-57 23,-86 7,-6 11,-17 22,-11 7,3 9,10 9,17 0,2 0,3 0,4 -1,12 -3,23 -4,35 -4,39 -8,78 -12,117 0,2 0,5 0,7 0,4 1,8 9,8 7,0 7,-6 8,-13 5,-38 25,-73 25,-112 0,-36 17,-69 18,-106 1,-12 1,-24 1,-35 0,-58 -7,-113 -32,-168 -20,-46 -36,-93 -79,-124 -2,-2 -5,-5 -5,-8 0,0 0,0 0,0 1,-4 1,-8 1,-12 0,-27 -22,-48 -35,-66 -39,-56 -59,-121 -94,-179 -37,-61 -47,-133 -59,-202 -8,-51 -23,-102 -24,-153 -2,-82 -25,-155 -70,-222 -9,-13 -8,-34 -31,-37 21,26 26,57 38,86 5,12 16,27 16,41 0,9 -5,19 -20,26 0,0 -1,0 -1,0 -15,-26 -16,-59 -42,-80l0 0c-26,-70 -74,-126 -119,-184 -24,-33 -40,-73 -76,-96l0 0c-71,-96 -138,-194 -200,-295 -81,-132 -159,-266 -230,-404 -44,-85 -90,-170 -116,-263 -5,-15 -12,-30 -19,-45 -67,-149 -116,-305 -178,-456l0 0c38,11 74,25 109,43l0 0c-6,4 -8,8 -8,13 0,6 5,12 7,18 13,32 26,64 40,95 75,170 150,340 225,511 4,9 6,20 18,24l0 0c50,103 104,204 164,301 6,10 10,21 15,31l0 0c45,80 94,159 148,233 83,113 165,225 248,337 75,101 118,215 124,340 7,135 37,263 98,383 37,72 84,138 128,205 61,93 94,192 94,299zm-525 -1268c0,24 17,33 29,45 -2,-19 -5,-37 -29,-47 0,1 0,1 0,2z"/>
   <path class="fil2" d="M1519 2514c0,3 -1,7 -2,12l0 0c-118,36 -236,46 -353,2 -46,-18 -91,-31 -141,-30 -69,1 -128,-31 -182,-70 -50,-36 -101,-69 -157,-95 -101,-47 -167,-132 -234,-217l0 0c22,-9 44,-19 64,-34 5,-4 13,-16 23,-6 5,5 10,17 18,8 3,-2 4,-5 4,-7 0,-6 -9,-10 -13,-15 -5,-7 -6,-15 -6,-22 0,-4 0,-9 0,-13 1,-4 1,-8 1,-13 0,-3 0,-7 -1,-11 15,2 21,17 33,24 2,1 4,1 4,0 0,0 0,0 0,0 21,-27 18,-74 67,-76 73,24 147,46 216,81 7,7 12,16 20,20 14,6 21,11 21,19 0,6 -5,14 -13,24 -10,12 -15,20 -15,26 0,8 11,12 33,18 -3,-10 -4,-18 -4,-25 0,-22 16,-34 50,-38 -7,27 -13,54 -20,81 22,2 15,-26 32,-28 3,6 4,11 4,17 0,10 -4,19 -8,28 -4,9 -8,19 -8,28 0,2 0,4 0,6 28,-9 32,-11 32,-36 0,-5 0,-11 0,-19 18,-1 12,39 36,25 3,-2 4,-4 4,-5 0,-4 -3,-7 -6,-10 -3,-4 -6,-8 -6,-12 0,-1 0,-2 0,-3 9,-3 20,-11 28,-3 3,2 4,6 4,9 0,6 -4,13 -8,19 -4,6 -6,11 -6,17 0,6 3,13 9,18 -15,10 -36,-2 -41,18 -10,41 -41,22 -51,11 -17,-17 -29,-5 -44,-6 25,25 60,28 90,40l0 0c56,20 113,39 170,58 71,24 143,41 217,53 18,3 26,11 26,24 0,2 0,3 0,5 -3,20 -21,10 -31,8 -112,-16 -226,-18 -340,-25 -1,1 -1,2 -1,4 0,6 7,7 12,9 81,34 165,58 253,67 62,7 123,17 185,17 19,0 35,5 35,23z"/>
   <path class="fil1" d="M2088 3124c0,0 0,0 0,0 -14,2 -29,4 -44,6 -65,8 -130,21 -192,43 -97,34 -194,46 -295,27 -50,-10 -101,-19 -152,-28l0 0c-1,-3 -2,-5 -3,-7l0 0c7,-4 13,-10 13,-14 0,-4 -3,-6 -13,-6 -20,1 -27,-3 -27,-10 0,-6 5,-14 9,-24 2,-3 3,-6 3,-10 0,-16 -15,-33 -27,-25 -26,15 -21,-3 -25,-15 -3,-7 -3,-17 -15,-16 -7,8 3,21 -10,29 -1,0 -1,0 -1,0 -12,-21 -6,-51 -33,-65 -17,-9 -29,-25 -40,-42 -10,-17 -32,-20 -41,-7 -14,21 -32,18 -53,20 3,-9 5,-18 5,-26 0,-11 -4,-22 -14,-31l0 0c42,-30 90,-46 138,-62 121,-42 245,-75 373,-87 6,0 11,1 17,1l0 0c-6,5 -8,12 -8,19 0,14 10,29 26,35 45,18 77,56 122,74 42,17 59,70 111,77 10,1 22,12 22,26 0,6 -2,13 -8,20l0 0c-36,17 -76,8 -113,26 56,4 111,8 167,11l0 0c9,17 12,50 41,16 5,-5 11,0 12,6 2,10 6,13 16,10 23,-5 34,9 39,29z"/>
   <path class="fil6" d="M6573 3984c-66,82 -137,149 -224,199l0 0c-31,10 -54,32 -80,49 -91,59 -188,111 -269,186 -61,57 -123,112 -183,169 -42,40 -83,82 -124,123 -129,105 -261,207 -376,328 -40,43 -71,94 -108,140 -44,55 -93,104 -145,151l-40 0c60,-54 117,-110 165,-175 92,-126 204,-230 323,-327 120,-99 230,-207 342,-314 111,-107 227,-206 362,-283 35,-20 71,-42 94,-78l0 0c-70,38 -143,74 -212,116 -120,72 -222,169 -326,261 -102,91 -206,179 -311,266 -90,76 -184,148 -253,246 -77,107 -168,202 -268,288l-34 0c30,-26 59,-52 87,-81 63,-65 125,-131 178,-205 51,-71 111,-135 181,-189 80,-63 156,-131 233,-197 91,-79 181,-157 272,-235 53,-45 104,-91 160,-132 46,-34 98,-60 148,-90 8,-5 20,-6 24,-18l0 0c122,-73 247,-140 384,-198z"/>
   <path class="fil2" d="M4929 5091c0,7 -12,11 -19,12 -13,2 -27,3 -35,15 -5,-4 -7,-7 -7,-11 0,-4 3,-8 3,-13 0,-4 0,-8 0,-12 0,-8 -1,-16 -12,-20 -7,-3 -13,-3 -19,3 -7,8 -12,16 -12,25 0,4 1,9 3,13 7,11 12,22 12,33 0,9 -3,18 -10,27 -1,1 -4,2 -11,6 3,-5 4,-10 4,-15 0,-19 -20,-32 -20,-52 -1,-12 -12,-8 -17,-1 -18,23 -51,30 -61,60 -2,3 -10,7 -11,6 -20,-20 -44,0 -65,-8 -23,-9 -40,-1 -53,19 -8,14 -19,17 -35,15 -39,-6 -79,-9 -118,-14 -2,0 -6,-2 -7,-1 -49,37 -94,-1 -131,-18 -38,-18 -72,-7 -106,-8 -5,0 -9,1 -13,3 -4,2 -8,5 -11,8 -12,13 -19,35 -24,52 -2,6 -2,11 -2,17 0,16 4,32 6,47 3,14 4,29 4,44 0,2 0,4 0,6l-64 0c-1,-4 -3,-7 -7,-9 -8,-3 -10,2 -11,9l-14 0c2,-7 5,-13 14,-19 16,-11 16,-33 16,-52 0,-2 0,-5 0,-7 0,0 0,0 0,0 0,-12 -13,-27 -32,-23l0 0c34,-52 75,-98 116,-144l0 0c32,28 89,17 112,-22 24,24 50,54 87,43 22,-7 39,-18 59,3 6,7 21,3 24,-6 3,-11 6,-17 9,-20 1,0 2,-1 3,-2 7,-2 13,16 18,24 12,15 18,33 40,5 18,-23 53,-13 80,-15 7,0 15,15 20,-1 1,-3 1,-4 1,-6 0,-10 -10,-11 -19,-12 -6,-1 -14,6 -18,-4 15,-30 15,-30 24,-26 42,19 42,19 48,-23 32,10 44,8 44,-13 0,-7 -1,-15 -3,-25 0,-3 -1,-5 -1,-8 0,-16 14,-20 31,-19 0,0 0,1 0,1l0 -1c0,0 0,0 0,0 0,0 0,0 0,0 0,0 1,0 1,0 0,0 -1,0 -1,1 0,-1 0,-1 0,-1l0 1c0,0 0,0 0,0 10,5 13,23 30,16 3,-1 6,-3 6,-6 0,-1 0,-2 -1,-4 -10,-11 -21,-10 -34,-7 0,0 -1,0 -1,-1 0,0 0,-1 0,-1 0,-7 5,-12 11,-17 6,-5 12,-9 12,-15 0,-3 -2,-7 -5,-11 -11,-11 -14,-20 -14,-29 0,-20 21,-35 30,-51 8,-15 18,-28 18,-43 0,-7 -3,-15 -8,-23 -3,-4 -4,-7 -4,-10 0,-6 4,-10 8,-16 8,-14 12,-26 12,-37 0,-17 -10,-32 -31,-44 -9,-5 -12,-9 -12,-14 0,-4 2,-8 5,-15 4,-10 6,-18 6,-25 0,-18 -14,-26 -41,-24 -15,2 -30,1 -46,1 5,-17 25,-12 28,-28 -9,-7 -19,-5 -29,-3l0 0c33,-31 70,-58 111,-77 3,-4 6,-6 8,-8 -2,3 -5,5 -8,8 12,-6 19,-4 28,8 16,20 35,37 53,56l0 0c-10,6 -25,5 -29,20l0 0c-3,5 -10,12 -10,16 0,0 0,1 0,1 22,39 20,83 26,126 1,8 9,15 14,23 9,13 17,27 17,42 0,6 -2,12 -5,19 -1,3 -2,6 -2,9 0,0 0,1 0,1 2,12 3,23 3,34 0,9 -1,18 -1,26 0,9 -1,17 -1,26 0,0 0,0 0,1 0,21 2,43 2,64 0,26 -2,51 -14,76 -1,3 -2,6 -2,9 0,10 9,20 14,30 2,5 8,9 14,7 4,-1 5,-4 5,-7 0,-2 0,-5 -1,-7 -1,-3 -1,-5 -1,-8 0,-12 9,-19 20,-29 1,6 1,11 1,17 0,4 0,8 0,12 0,5 -1,9 -1,13 0,9 2,19 8,28 1,1 1,3 1,4z"/>
   <path class="fil3" d="M5484 1793l0 0c-7,3 -13,2 -18,-5 -6,-11 -9,-28 -27,-17 -7,4 -11,10 -11,16 0,5 3,11 7,18 7,13 8,28 8,43 0,1 0,3 0,5 0,1 0,3 0,4 0,13 0,25 5,36 -18,9 -23,20 -23,33 0,6 1,13 3,20 1,7 2,14 2,20 0,3 0,6 -1,8 -9,43 -27,80 -50,118 -19,32 -52,59 -54,101 -1,8 -4,18 -13,19 -32,4 -46,25 -61,50 -19,34 -52,51 -90,58 -14,2 -19,12 -28,20 -17,16 -33,37 -62,23 -7,-3 -11,2 -15,6 -37,40 -83,29 -128,24l0 0c0,-21 -2,-42 -2,-63 0,-17 1,-35 5,-52l0 0c13,-3 15,-17 23,-25 5,-6 12,-14 20,-8 25,23 40,3 59,-9 -7,22 -21,35 -46,34 -7,0 -15,-2 -15,6 0,2 0,3 1,5 2,10 16,20 19,14 17,-29 59,-14 75,-44 4,-9 20,-18 28,-16 6,1 8,3 8,6 0,2 -2,5 -4,8 -1,2 -3,5 -3,8 0,0 0,1 0,1 3,6 8,13 13,15 8,3 13,-5 13,-10 0,-1 0,-1 0,-2 -2,-6 -3,-11 -3,-15 0,-20 15,-29 34,-39 13,-6 16,-28 38,-20 7,2 15,-2 15,-9 0,-1 0,-1 0,-1 0,-1 0,-2 0,-3 0,-30 34,-41 40,-68 3,-13 12,-19 26,-24 18,-5 29,-22 29,-37 0,-7 -2,-13 -8,-18 -8,-7 -11,-12 -11,-17 0,-10 13,-15 19,-20 15,-11 23,-17 23,-24 0,-6 -7,-14 -22,-26 -7,-6 -18,-13 -18,-21 0,-2 1,-4 3,-6 10,-15 7,-39 20,-45 16,-8 14,20 27,26 2,1 4,0 16,2 -5,-4 -7,-9 -7,-13 0,-4 2,-8 4,-12 2,-4 4,-8 4,-12 0,-4 -2,-7 -8,-11 -21,-10 -27,-25 -28,-44 0,-3 0,-5 0,-7 0,-10 1,-20 2,-31 2,-10 3,-20 3,-30 0,-18 -4,-36 -22,-52 0,0 -1,-1 -1,-2 0,-1 1,-2 1,-4 1,-2 2,-4 2,-6 0,-2 -1,-4 -4,-6 -29,9 -38,12 -38,-2 0,-6 2,-16 4,-29 3,-13 5,-23 5,-30 0,-18 -11,-20 -44,-21 -13,-1 -24,-3 -24,-14 0,-3 1,-7 3,-12 13,-7 30,-7 30,-22 0,0 0,-1 0,-1 -1,-12 -20,-11 -27,-9 -6,2 -7,5 -7,10 0,2 0,5 1,8 0,3 1,6 1,9 0,1 -1,2 -1,3 -4,-2 -10,-4 -11,-8 -14,-32 -33,-33 -64,-20 -22,8 -45,16 -68,22 -31,9 -29,-11 -32,-28 0,0 0,0 0,-1 0,-4 5,-9 7,-14 1,-2 1,-4 1,-6 0,-5 -3,-9 -9,-11 -7,-3 -8,4 -11,8 -19,22 -31,51 -67,53 6,14 26,7 26,20 0,1 0,2 0,2 -1,6 -11,12 -18,14 -16,5 -8,-15 -20,-20 -10,-4 -21,-12 -21,-24 0,-5 2,-11 8,-17 2,-2 3,-4 3,-6 0,-3 -3,-5 -6,-8 -8,-6 -22,-2 -23,0 -6,36 -21,-1 -30,3 -3,20 -5,38 -5,50 0,10 1,16 4,18 17,16 32,-7 49,-3 3,1 7,-1 10,-1 8,1 9,5 9,11 0,1 0,3 0,5 -1,8 -5,22 -10,18 -19,-13 -29,7 -40,6 -24,0 -37,19 -55,27 -12,6 -23,19 -23,35 0,6 1,13 6,20 0,1 -1,1 -1,2 -35,-47 -46,-104 -63,-158 -5,-17 -13,-33 -17,-51 3,-1 4,-2 5,-3 5,-6 3,-15 7,-24 18,21 29,28 34,-9 4,-21 25,-42 55,-38 1,0 2,1 4,1 8,-43 60,-18 75,-50 3,-6 8,-12 16,-9 5,1 7,4 7,8 0,2 0,4 -1,6 -2,4 -3,8 -3,11 0,5 2,8 10,10 13,3 28,2 33,-12 13,-32 33,-30 61,-21 27,9 54,35 85,7 6,-5 15,11 23,17 15,12 31,10 46,2 6,-3 7,-7 7,-11 0,-6 -5,-13 -6,-20 38,37 61,83 89,126 62,94 125,187 192,278 7,9 12,20 17,30z"/>
   <path class="fil6" d="M5017 3768c-71,33 -134,67 -207,80 -95,16 -191,33 -287,50l0 0c-49,0 -98,7 -147,12 -162,17 -323,40 -482,77 -92,22 -181,57 -262,107 -87,54 -180,78 -281,79 -46,1 -92,6 -138,9l0 0c-113,-4 -222,18 -330,49 -101,29 -203,53 -304,82 -66,19 -130,42 -195,63 -11,3 -20,8 -20,18 0,3 1,7 4,11 0,0 0,1 0,1 -12,-11 -17,-22 -17,-32 0,-13 7,-26 16,-39 13,-16 28,-31 42,-46l0 0c45,-5 86,-26 129,-36 90,-22 179,-47 267,-71 77,-22 152,-47 231,-61l0 0c98,-18 198,-22 298,-24 116,-1 214,-49 313,-103 93,-51 196,-80 301,-100 55,-11 112,-14 165,-33l0 -1c55,-5 110,-12 164,-23l0 0c147,-12 294,-31 440,-52 74,-10 149,-19 223,-27 24,-3 48,-5 77,10z"/>
   <path class="fil2" d="M4092 2528c0,45 -18,89 -19,135 -4,140 -17,279 -17,419 0,29 1,59 2,88 2,28 3,55 3,83 0,26 -1,53 -7,79 -1,7 0,16 -12,23 -55,-113 -69,-230 -69,-350 0,-31 1,-62 2,-93l0 0c4,-132 10,-264 11,-396 0,-3 0,-5 0,-8 0,-46 -4,-91 -21,-138 -30,-86 -81,-160 -121,-240 -25,-50 -58,-95 -80,-146 -44,-94 -89,-189 -122,-287 -40,-123 -97,-240 -128,-366 -1,-2 -5,-4 -8,-6l0 0c-10,-136 -22,-271 -23,-408l0 0c35,108 60,219 85,329 7,29 13,59 25,87 71,161 123,330 193,492 59,140 136,270 211,402 50,87 80,182 94,281 1,7 1,14 1,20z"/>
   <path class="fil7" d="M4799 4703c0,11 -4,23 -12,37 -4,6 -8,10 -8,16 0,3 1,6 4,10 5,8 8,16 8,23 0,15 -10,28 -18,43 -9,16 -30,31 -30,51 0,9 3,18 14,29 3,4 5,8 5,11 0,6 -6,10 -12,15 -6,5 -11,10 -11,17 0,0 0,1 0,1 0,0 0,1 0,1 0,0 0,0 0,0 -17,-1 -31,3 -31,19 0,3 1,5 1,8 2,10 3,18 3,25 0,21 -12,23 -44,13 -6,42 -6,42 -48,23 -9,-4 -9,-4 -24,26 4,10 12,3 18,4 9,1 19,2 19,12 0,2 0,3 -1,6 -5,16 -13,1 -20,1 -27,2 -62,-8 -80,15 -22,28 -28,10 -40,-5 -5,-8 -11,-26 -18,-24 -1,1 -2,1 -3,2 -3,3 -6,9 -9,20 -3,9 -18,13 -24,6 -20,-21 -37,-10 -59,-3 -37,11 -63,-19 -87,-43 -23,39 -80,50 -112,22l0 0c47,-62 100,-119 158,-170 79,-71 142,-156 206,-239 38,-48 83,-90 135,-124l0 0c10,-2 20,-4 29,3 -3,16 -23,11 -28,28 16,0 31,1 46,-1 27,-2 41,6 41,24 0,7 -2,15 -6,25 -3,7 -5,11 -5,15 0,5 3,9 12,14 21,12 31,27 31,44zm-60 254l0 1c0,0 0,-1 0,-1z"/>
   <path class="fil4" d="M1523 1918l0 0c-44,12 -69,-23 -98,-42 -95,-65 -192,-125 -297,-173 -43,-20 -84,-44 -133,-52 25,19 50,38 76,58l0 0c-5,28 -34,9 -48,25 -17,21 -39,9 -57,-2 -7,-5 -12,-10 -21,-7 -8,3 -10,11 -10,19 0,0 0,1 0,1 0,9 2,18 3,28 0,0 0,1 0,2 0,9 -5,17 -15,17 -8,0 -10,-3 -10,-6 0,-3 3,-8 3,-13 0,-1 0,-1 0,-2 0,-27 -37,-7 -44,-30 -1,-6 -13,-7 -21,-2l-2 3c1,3 1,5 1,8 0,7 -3,15 -7,22 -3,7 -7,14 -7,21 0,3 0,5 1,7l0 0c-12,-4 -25,-6 -35,-12 -58,-35 -121,-54 -184,-76l0 0c2,-8 1,-21 5,-23 13,-6 17,-13 17,-19 0,-10 -9,-20 -15,-27 -15,-21 -40,-33 -56,-54 -4,-5 -24,-21 -30,5 -1,6 -6,6 -11,3 -4,-3 -6,-6 -6,-10 0,-2 1,-4 1,-5 7,-9 10,-18 10,-26 0,-17 -11,-33 -18,-49l0 0c101,-27 203,-46 307,-51 45,-3 88,19 130,33 231,81 417,224 565,417 2,3 4,8 6,12z"/>
   <path class="fil5" d="M4718 3602l0 0c-11,7 -17,15 -17,26 0,6 1,11 4,18 -25,-8 -47,-16 -69,-23 -23,-7 -40,11 -60,16 -24,5 -45,6 -68,6 -38,0 -76,0 -113,7 -14,3 -27,-6 -38,-12 -10,-5 -19,-9 -26,-1 -1,1 -2,2 -3,3 -19,17 -39,17 -59,21 -18,3 -36,5 -54,-5 -2,-1 -3,-2 -5,-3 -10,-7 -17,0 -25,6 -4,4 -9,7 -13,8 -26,8 -52,9 -78,13 -60,10 -120,24 -180,36 3,14 10,15 17,15 114,-4 227,4 341,-6 80,-8 160,-13 240,-13 9,0 21,0 23,11 0,1 0,1 0,2 0,10 -11,13 -20,15 -12,2 -25,3 -37,4 -102,6 -199,39 -298,59 -6,1 -11,3 -12,10 0,0 0,1 0,1 0,7 7,8 12,10 24,7 50,3 75,4 9,0 16,0 22,7l0 0c-54,11 -109,18 -164,24l0 -1c-37,1 -71,-14 -107,-19 -5,-1 -23,-5 -23,-18 0,-3 1,-6 2,-9 1,-3 2,-5 2,-8 0,-2 -1,-4 -6,-6 -5,-1 -9,0 -12,5 0,1 -1,2 -1,3 -30,23 -51,-9 -76,-14 -11,-2 -23,-11 -23,-24 0,-5 3,-12 9,-19 1,-1 2,-3 2,-4 0,-2 -1,-3 -3,-4 -5,-4 -13,-5 -16,-1 -16,25 -31,19 -55,9 -10,-4 -31,-6 -48,-5 -9,1 -14,-3 -14,-11 0,-1 0,-2 1,-3 2,-11 8,-13 18,-7 9,6 17,6 19,-8 0,-1 0,-2 0,-3 0,-12 -8,-12 -18,-8 -14,4 -26,-6 -27,-16 -5,-42 -48,-39 -71,-60 1,3 2,6 3,8 3,6 10,14 10,20 0,3 -2,5 -6,7 -12,5 -36,-9 -36,-12 0,0 0,-1 0,-1 2,-5 3,-10 3,-14 0,-23 -32,-22 -40,-38 -1,-2 -6,-3 -9,-5 -10,9 -1,24 -14,35 1,-2 1,-4 1,-6 0,-29 -40,-27 -43,-55l0 0c153,-37 309,-41 465,-33l0 0c-5,6 -7,12 -7,17 0,7 3,14 7,20 3,4 9,6 12,3 4,-4 5,-7 5,-11 0,-8 -7,-15 -9,-23 0,-2 -1,-4 -2,-6l0 0c71,-2 142,10 212,16 9,1 22,13 27,-5l0 0c21,2 35,12 45,32 12,25 78,43 102,31 19,-10 36,-31 56,1 3,5 21,0 37,-1 0,0 0,0 0,0 0,0 0,0 0,0 -12,-12 -16,-23 -16,-32 0,-19 17,-34 29,-49l0 0c21,5 42,8 60,21 -7,7 -13,16 -21,23 -7,6 -13,13 -13,20 0,4 1,8 5,12 9,12 22,24 40,22 9,0 16,-9 16,-16 0,-2 0,-4 -2,-5 -12,-7 -14,-17 -14,-27 0,-2 0,-4 0,-6 0,-2 0,-4 0,-7 0,-5 0,-10 -3,-14 13,0 24,4 34,11l0 0c-8,5 -11,12 -11,18 0,5 2,11 5,15 9,11 26,13 35,5 17,-14 27,-8 41,4 11,9 19,7 19,-6 0,-2 0,-4 0,-6l0 0c11,0 21,2 29,9zm-226 -38c0,2 0,4 1,6 4,6 10,3 15,1 6,-3 11,-7 11,-13 0,-2 -1,-4 -2,-6 -3,-7 -11,-10 -17,-4 -5,4 -8,10 -8,16zm-316 65c0,3 1,6 2,9 3,4 7,8 11,5 3,-3 4,-7 4,-11 0,-3 0,-6 -2,-8 -1,-2 -6,-4 -8,-3 -5,2 -7,4 -7,8z"/>
   <path class="fil1" d="M2446 1737c0,0 -1,0 -1,0 -13,-3 -30,8 -40,-9 -12,-20 -29,-14 -42,-6 -21,12 -37,1 -55,-5 -4,-1 -8,-4 -8,-8 0,-2 2,-4 9,-6 6,-1 10,-4 10,-9 0,-2 0,-4 -1,-6 -2,-4 -7,-7 -11,-8 -8,-2 -12,4 -15,11 -4,9 -7,19 -18,23 -12,-19 -21,-40 -50,-22 -9,7 -23,1 -32,-6 -8,-6 -16,-12 -25,-9 -31,14 -40,-4 -40,-42 0,-1 0,-1 0,-2 -26,53 -49,18 -73,14l0 0c-19,-97 -33,-195 -33,-293 0,-15 1,-30 1,-44 1,-15 1,-29 1,-44 0,-102 -14,-203 -27,-304 -10,-71 -32,-138 -38,-209l0 0c41,59 68,126 102,189 67,122 124,250 185,376 6,11 6,27 22,33l0 0c52,132 119,257 179,386z"/>
   <path class="fil1" d="M3152 3710c0,5 -6,9 -15,13 -25,11 -36,23 -36,40 0,10 4,22 14,37 4,7 6,15 6,21 0,13 -7,24 -23,26 -32,4 -45,40 -79,44 -12,1 -9,33 -11,50 -2,23 -4,45 -4,68 0,16 1,32 3,48 1,2 1,3 1,4 0,19 -19,26 -32,35 -6,3 -15,5 -15,11 0,1 0,2 0,4 5,12 16,5 24,2 13,-5 26,-10 33,-33 4,22 5,35 18,41l0 0c-79,14 -154,39 -231,61 -88,24 -177,49 -267,71 -43,10 -84,31 -129,36l0 0c105,-151 200,-310 364,-409 118,-71 241,-133 370,-183l0 0c6,5 9,9 9,13z"/>
   <path class="fil3" d="M2567 1991c0,37 -5,74 -8,112 0,2 0,5 0,8 0,9 0,17 1,26 1,8 2,17 2,26 0,12 -2,25 -9,37l0 0c-4,-8 -8,-17 -13,-25 -2,-3 -7,-6 -11,-6 -4,0 -5,3 -5,6 0,1 0,3 1,5 2,3 4,6 4,9 0,2 -1,4 -4,5 -10,7 -10,-5 -15,-8 -5,-3 -11,-6 -11,-11 0,-2 1,-5 3,-7 6,-10 13,-19 24,-36 0,-1 1,-2 2,-3 -1,1 -2,1 -4,2 -19,10 -32,7 -44,-1 -14,-9 -27,-8 -42,-3 -25,8 -41,-2 -45,-27 -3,-18 -16,-21 -27,-16 -20,9 -28,5 -28,-12 0,-2 0,-4 0,-6 0,-1 0,-2 0,-3 0,-7 -2,-12 -9,-13 -7,-2 -13,1 -14,8 -2,14 -14,19 -21,14 -12,-8 -31,-7 -35,-23 -3,-12 3,-28 -17,-27 -20,1 -23,16 -24,32l0 0c-31,-61 -63,-121 -92,-183 -35,-71 -56,-147 -72,-224l0 0c24,4 47,39 73,-14 0,1 0,1 0,2 0,38 9,56 40,42 9,-3 17,3 25,9 9,7 23,13 32,6 29,-18 38,3 50,22 11,-4 14,-14 18,-23 3,-7 7,-13 15,-11 4,1 9,4 11,8 1,2 1,4 1,6 0,5 -4,8 -10,9 -7,2 -9,4 -9,6 0,4 4,7 8,8 18,6 34,17 55,5 13,-8 30,-14 42,6 10,17 27,6 40,9 1,0 1,0 1,0l0 0c20,17 28,42 44,62 21,25 41,52 56,83 16,35 21,72 21,109z"/>
   <path class="fil2" d="M3510 4302c0,11 -6,21 -20,32 -20,15 -26,37 -29,60 -2,13 -4,35 -14,31 -19,-9 -38,22 -54,-4 -6,-10 -20,-11 -28,-10 -6,1 -8,6 -8,11 0,4 1,9 1,13 0,2 1,4 1,6 0,6 -2,11 -9,14 -13,5 -11,-13 -20,-14 -10,36 -16,40 -63,24 -26,-8 -45,-1 -69,5 -23,6 -5,31 -24,35 -18,4 -25,-30 -40,-18 -34,27 -75,13 -112,27 2,6 4,14 6,22l0 0c-119,-42 -238,-81 -364,-95 -45,-5 -90,-9 -135,-13l0 0c137,-48 275,-94 416,-129 139,-34 279,-25 420,-17 43,2 85,-2 127,-13l0 0c11,11 18,22 18,33z"/>
   <path class="fil2" d="M2707 2618c0,13 0,26 -1,39 -30,-26 -54,-50 -70,-82 -31,-66 -58,-134 -71,-206 -8,-46 -6,-95 -8,-142 -1,-9 -3,-18 -4,-27l0 0c7,-12 9,-25 9,-37 0,-9 -1,-17 -2,-26 -1,-9 -1,-17 -1,-26 0,-3 0,-6 0,-8 3,-38 8,-75 8,-112 0,-37 -5,-74 -21,-109 -15,-31 -35,-58 -56,-83 -16,-20 -24,-45 -44,-62l0 0c0,0 0,0 0,0 -60,-129 -127,-254 -179,-386l0 0c-52,-121 -103,-243 -156,-365 -16,-37 -39,-71 -54,-108 -35,-84 -99,-157 -99,-254 0,-5 1,-10 1,-14 0,-1 0,-1 0,-1 0,-3 -3,-6 -4,-9l0 0c2,-1 4,-3 6,-4l0 0c45,99 94,196 150,290 41,70 82,142 112,219l0 0c14,26 17,59 41,81l0 0c29,40 45,86 65,131l0 0c14,29 19,63 43,88l0 0c44,89 86,179 130,269 21,43 52,79 80,118 50,67 66,142 66,221 0,23 -1,46 -4,70 -5,52 -8,104 -8,155 0,54 3,107 13,160 8,46 25,89 43,132 11,28 15,57 15,88z"/>
   <path class="fil7" d="M6560 5044c0,3 -1,6 -1,9l0 0c-61,51 -126,98 -196,135 -69,37 -124,85 -171,141l-203 0c-1,-1 -3,-2 -5,-3 -14,-5 -22,-13 -22,-25 0,-2 0,-3 0,-5 3,-22 21,-1 30,-8 -8,-15 -15,-31 -26,-44 -9,-10 -13,-19 -13,-26 0,-13 11,-22 27,-31 5,-3 9,-9 14,-1 14,23 29,1 37,-3 3,-2 5,-4 5,-7 0,-7 -8,-16 -11,-23 -3,-6 -9,-10 -16,-19 16,-3 26,-12 37,-21 4,-4 9,-13 17,-8 25,16 32,14 32,6 0,-8 -5,-20 -8,-31 -1,-2 -1,-4 -1,-6 0,-10 11,-15 18,-21 8,-7 12,0 18,7 13,16 82,15 97,1 0,-1 1,-2 1,-2 1,-2 2,-3 2,-4 0,0 0,-1 0,-1 0,-1 0,-3 0,-4 -1,-3 -1,-6 -1,-9 0,-21 17,-31 42,-19 12,6 18,8 27,-1 5,-7 11,-18 22,-9 4,4 5,8 5,12 0,4 -2,9 -3,14 -3,8 -5,15 -8,23 39,-2 56,-10 56,-25 0,-6 -2,-11 -5,-18 -5,-10 -14,-18 -21,-27 -4,-5 -14,-11 -14,-17 0,-1 1,-3 3,-4 11,-6 25,-8 38,-13 3,-2 7,5 7,13 0,4 -1,9 -3,12 -3,3 -4,7 -4,10 0,5 3,10 7,11 11,3 8,-14 11,-15 12,-6 16,-13 16,-20 0,-9 -5,-18 -11,-28 26,14 51,33 72,-15 0,3 0,5 0,7 0,17 -6,26 -11,34 -2,3 -3,6 -3,8 0,6 5,11 10,15 10,8 18,6 24,-3 13,-23 28,-20 46,-6 -7,10 -14,3 -21,1 -6,-2 -12,-1 -13,6 -1,1 -1,2 -1,3 0,4 3,8 7,8 16,-2 20,6 20,21 1,13 12,16 24,13 17,-5 20,2 20,12l0 0zm-568 244c8,7 16,20 23,20 24,-1 4,-43 35,-42 1,0 2,-1 2,-2 0,-3 -3,-9 -6,-12 -8,-8 -15,-17 -23,-25 2,6 3,11 3,15 0,17 -13,27 -28,38 -2,1 -4,5 -6,8l0 0c0,0 0,0 0,0z"/>
   <path class="fil7" d="M5266 1816c0,4 -7,8 -12,12 -15,13 -22,30 -22,45 0,15 7,28 22,34 -5,7 -20,9 -20,17 0,2 1,4 3,7 4,6 5,10 5,15 0,8 -5,14 -10,20 -5,6 -10,11 -10,19 0,0 0,0 0,0 -15,1 -20,11 -20,21 0,3 1,7 2,10 5,15 21,6 33,5 3,0 6,2 9,4 -21,30 -48,30 -65,1 -3,-5 -4,-11 -7,-16 -2,-6 -6,-11 -13,-7 -2,2 -5,7 -5,10 0,1 0,1 0,1 8,11 11,21 11,31 0,25 -20,46 -27,69 -3,10 -1,27 -20,20 -11,-4 -17,-9 -17,-18 0,-4 1,-9 4,-14 1,-2 2,-5 2,-7 0,-4 -2,-8 -8,-9 -9,-2 -20,-3 -27,4 -2,3 -2,4 -2,6 0,4 7,5 9,9 3,4 5,7 5,10 -2,1 -3,2 -5,3 -2,0 -5,-1 -9,-3 -9,-3 -36,35 -36,47 0,1 0,1 0,2 1,6 5,13 5,18 0,4 -2,8 -6,10 -13,7 -12,-10 -18,-16 -6,-5 -10,2 -15,3 -16,5 -27,-2 -34,-15 -10,-16 -19,-32 -28,-48l0 0c0,-11 1,-22 1,-33 0,-116 -46,-218 -104,-317 -11,-20 -19,-42 -29,-63l2 -1c14,1 20,-9 24,-20 9,-26 18,-13 27,0 4,6 2,17 13,17 9,-42 10,-42 32,-35 17,5 30,37 52,8 5,4 12,7 13,11 2,13 12,13 21,18 20,11 37,24 61,30 13,4 27,10 42,11 -16,-12 -27,-27 -32,-45 -29,18 -45,-24 -73,-15 -9,3 -14,-9 -14,-17 0,-1 0,-2 0,-3 3,-19 27,-7 36,-21 1,-2 10,1 16,2 -1,1 -1,3 -2,4 -4,6 -6,11 -6,15 0,12 14,17 23,17 8,1 11,-2 11,-6 0,-3 -1,-6 -2,-9 -1,-3 -2,-6 -2,-9 0,-3 1,-5 4,-7 14,6 28,12 41,18 8,3 17,6 17,11 0,3 -3,7 -11,12 -4,2 -5,5 -5,8 0,6 4,12 10,15 10,5 18,2 21,-10 4,-18 16,-24 33,-24 4,0 8,4 11,7 1,2 2,3 2,5 0,2 -1,4 -5,5 -21,6 -23,33 -46,39 -8,1 -17,20 -17,31 0,0 0,0 0,0 0,11 17,17 25,14 23,-8 29,-6 29,0 0,7 -10,21 -13,30 26,1 52,25 71,-13 7,-13 30,6 43,14 4,2 6,4 6,6z"/>
   <path class="fil3" d="M5351 1859c0,4 -2,8 -4,12 -2,4 -4,8 -4,12 0,4 2,9 7,13 -12,-2 -14,-1 -16,-2 -13,-6 -11,-34 -27,-26 -13,6 -10,30 -20,45 -2,2 -3,4 -3,6 0,8 11,15 18,21 15,12 22,20 22,26 0,7 -8,13 -23,24 -6,5 -19,10 -19,20 0,5 3,10 11,17 6,5 8,11 8,18 0,15 -11,32 -29,37 -14,5 -23,11 -26,24 -6,27 -40,38 -40,68 0,1 0,2 0,3 0,0 0,0 0,1 0,7 -8,11 -15,9 -22,-8 -25,14 -38,20 -19,10 -34,19 -34,39 0,4 1,9 3,15 0,1 0,1 0,2 0,5 -5,13 -13,10 -5,-2 -10,-9 -13,-15 0,0 0,-1 0,-1 0,-3 2,-6 3,-8 2,-3 4,-6 4,-8 0,-3 -2,-5 -8,-6 -8,-2 -24,7 -28,16 -16,30 -58,15 -75,44 -3,6 -17,-4 -19,-14 -1,-2 -1,-3 -1,-5 0,-8 8,-6 15,-6 25,1 39,-12 46,-34 -19,12 -34,32 -59,9 -8,-6 -15,2 -20,8 -8,8 -10,22 -23,25l0 0c3,-54 6,-108 9,-162l0 0c9,16 18,32 28,48 7,13 18,20 34,15 5,-1 9,-8 15,-3 6,6 5,23 18,16 4,-2 6,-6 6,-10 0,-5 -4,-12 -5,-18 0,-1 0,-1 0,-2 0,-12 27,-50 36,-47 4,2 7,3 9,3 4,1 5,-1 5,-3 0,0 0,0 0,0 0,-3 -2,-6 -5,-10 -2,-4 -9,-5 -9,-9 0,-2 0,-3 2,-6 7,-7 18,-6 27,-4 6,1 8,5 8,9 0,2 -1,5 -2,7 -3,5 -4,10 -4,14 0,9 6,14 17,18 19,7 17,-10 20,-20 7,-23 27,-44 27,-69 0,-10 -3,-20 -11,-31 0,0 0,0 0,-1 0,-3 3,-8 5,-10 7,-4 11,1 13,7 3,5 4,11 7,16 17,29 44,29 65,-1 -3,-2 -6,-4 -9,-4 -12,1 -28,10 -33,-5 -1,-3 -2,-7 -2,-10 0,-10 5,-20 20,-21 0,0 0,0 0,0 0,-8 5,-13 10,-19 5,-6 10,-12 10,-20 0,-5 -1,-9 -5,-15 -2,-3 -3,-5 -3,-7 0,-8 15,-10 20,-17 -15,-6 -22,-19 -22,-34 0,-15 7,-32 22,-45 5,-4 12,-8 12,-12 0,-2 -2,-4 -6,-6 -13,-9 -36,-27 -43,-14 -19,38 -45,14 -71,13 3,-9 13,-23 13,-30 0,-6 -6,-8 -29,0 -8,3 -25,-3 -25,-14 0,0 0,0 0,0 0,-11 9,-30 17,-31 23,-6 25,-33 46,-39 4,-1 5,-3 5,-5 0,-2 -1,-3 -2,-5 -3,-3 -7,-7 -11,-7 -17,0 -29,6 -33,24 -3,12 -11,15 -21,10 -6,-3 -10,-9 -10,-15 0,-3 1,-6 5,-8 8,-5 11,-9 11,-12 0,-5 -9,-8 -17,-11 -13,-6 -27,-12 -41,-18 -3,2 -4,4 -4,7 0,3 1,6 2,9 1,3 2,6 2,9 0,4 -3,7 -11,6 -9,0 -23,-5 -23,-17 0,-4 2,-9 6,-15 1,-1 1,-3 2,-4 -6,-1 -15,-4 -16,-2 -9,14 -33,2 -36,21 0,1 0,2 0,3 0,8 5,20 14,17 28,-9 44,33 73,15 5,18 16,33 32,45 -15,-1 -29,-7 -42,-11 -24,-6 -41,-19 -61,-30 -9,-5 -19,-5 -21,-18 -1,-4 -8,-7 -13,-11 -22,29 -35,-3 -52,-8 -22,-7 -23,-7 -32,35 -11,0 -9,-11 -13,-17 -9,-13 -18,-26 -27,0 -4,11 -10,21 -24,20l0 0c-1,0 -1,-1 -1,-1 -5,-7 -6,-14 -6,-20 0,-16 11,-29 23,-35 18,-8 31,-27 55,-27 11,1 21,-19 40,-6 5,4 9,-10 10,-18 0,-2 0,-4 0,-5 0,-6 -1,-10 -9,-11 -3,0 -7,2 -10,1 -17,-4 -32,19 -49,3 -3,-2 -4,-8 -4,-18 0,-12 2,-30 5,-50 9,-4 24,33 30,-3 1,-2 15,-6 23,0 3,3 6,5 6,8 0,2 -1,4 -3,6 -6,6 -8,12 -8,17 0,12 11,20 21,24 12,5 4,25 20,20 7,-2 17,-8 18,-14 0,0 0,-1 0,-2 0,-13 -20,-6 -26,-20 36,-2 48,-31 67,-53 3,-4 4,-11 11,-8 6,2 9,6 9,11 0,2 0,4 -1,6 -2,5 -7,10 -7,14 0,1 0,1 0,1 3,17 1,37 32,28 23,-6 46,-14 68,-22 31,-13 50,-12 64,20 1,4 7,6 11,8 0,2 0,3 0,4 1,0 1,-1 3,-2 -2,5 -3,9 -3,12 0,11 11,13 24,14 33,1 44,3 44,21 0,7 -2,17 -5,30 -2,13 -4,23 -4,29 0,14 9,11 38,2 3,2 4,4 4,6 0,2 -1,4 -2,6 0,2 -1,3 -1,4 0,1 1,2 1,2 18,16 22,34 22,52 0,10 -1,20 -3,30 -1,11 -2,21 -2,31 0,2 0,4 0,7 1,19 7,34 28,44 6,4 8,7 8,11zm-128 -117c0,2 1,4 3,6 6,7 15,16 26,12 6,-3 10,-9 10,-15 0,-3 -1,-6 -2,-8 -5,-10 -16,-13 -28,-8 -1,4 -9,8 -9,13zm-23 -90c0,1 0,2 0,3 1,3 5,10 7,10 8,-1 10,-6 10,-12 0,-1 0,-2 0,-3 -1,-5 -4,-8 -16,-9 0,2 -1,7 -1,11zm-2 111l0 0c-13,11 -21,-27 -32,-8 -2,3 -2,5 -2,7 0,5 2,9 5,13 2,5 4,10 4,16 0,2 0,3 0,5 11,-15 18,-24 25,-33zm-114 -133c0,4 3,9 6,11 14,8 27,0 38,-8 6,-5 16,-11 16,-19 0,-4 -2,-8 -7,-13l0 0c1,-3 2,-5 2,-7 0,-4 -2,-7 -6,-7 -23,6 -38,-13 -64,-22 3,3 3,6 3,10 0,2 0,5 -1,8 0,3 -1,5 -1,7 0,5 3,9 13,11 16,2 32,1 47,2l0 0c-4,16 -14,22 -31,16 -6,-2 -14,2 -15,10 0,0 0,1 0,1z"/>
   <path class="fil1" d="M5234 303l0 0c-18,9 -35,19 -36,42 0,4 -4,10 -8,11 -61,17 -64,80 -92,121 -30,46 -31,106 -71,147 -8,8 -11,16 -11,25 0,6 1,13 5,20 7,14 12,28 18,42l0 0c-12,-4 -14,-15 -18,-24 -75,-171 -150,-341 -225,-511 -14,-31 -27,-63 -40,-95 -2,-6 -7,-12 -7,-18 0,-5 2,-9 8,-13l0 0c171,62 334,139 477,253z"/>
   <path class="fil2" d="M6664 2876c0,0 0,0 0,0l0 0c-17,42 -34,85 -50,127 0,0 0,0 0,0 0,0 0,0 0,0 -32,3 -31,40 -56,55 0,0 0,-1 0,-1 0,-33 -20,-36 -44,-34 -8,1 -15,6 -23,0l0 0c1,-28 2,-56 2,-84l0 0c1,-1 1,-2 1,-3 0,0 0,-1 0,-1 2,-17 4,-34 6,-51l0 0c-10,11 -20,22 -20,36 0,3 1,6 2,9l0 0c-17,52 -34,103 -53,161 -13,-64 -14,-124 -36,-179 -20,101 -31,202 -32,304l0 0c-5,14 -11,25 -29,13 -18,-11 -40,-15 -58,-9 -19,5 -30,0 -44,-8l0 0c-20,-57 -40,-113 -40,-175 0,0 0,-1 0,-1 -21,40 -25,82 -34,124 0,0 0,0 0,0 0,0 0,0 0,0 -8,6 -16,12 -24,17l0 0c-1,-2 -2,-4 -2,-6l0 0c-15,-25 -30,-50 -44,-74 0,2 0,4 0,6 -1,-1 -1,-2 -2,-3 1,1 1,2 2,3 0,1 0,2 0,2 0,20 3,37 8,53 3,9 4,17 4,23 0,21 -15,28 -47,21 -13,-2 -24,-5 -33,9l0 0c-1,-10 -3,-19 -4,-29l0 0c3,-60 29,-117 29,-179l0 0c10,2 12,11 15,18 5,12 13,20 25,21 15,1 10,-14 14,-21 20,-34 57,-27 83,-23 17,3 20,-2 20,-8 0,-2 -1,-4 -1,-6 0,-2 0,-5 0,-7 0,-16 11,-22 25,-28 16,-7 30,-14 43,-28 12,-12 31,-21 52,-17 39,9 57,-5 64,-44 1,-6 0,-12 7,-15 7,1 9,5 9,9 0,2 -1,4 -1,6 0,3 0,6 0,8 0,27 21,21 40,18 6,-1 11,-3 11,-9 0,-1 0,-3 -1,-5 -2,-5 -7,-12 -7,-17 0,-3 2,-5 9,-5 8,0 34,-14 34,12 0,1 0,3 0,5 0,0 0,0 0,0 0,2 1,4 3,5 7,3 85,-16 91,-21 15,-12 21,-42 43,-34 24,8 43,30 43,60z"/>
   <path class="fil2" d="M4922 4138c-62,60 -134,106 -209,148 -53,29 -107,60 -168,73 -8,-29 -21,-46 -57,-35 -12,4 -41,10 -49,-11 0,-2 -1,-4 -1,-5 0,-13 21,-16 29,-25 1,-1 1,-2 1,-3 0,-1 0,-1 0,-2 0,0 0,0 0,-1 0,-1 0,-2 0,-2 -17,-1 -36,-6 -49,1 -30,16 -30,-4 -34,-22 0,-1 0,-1 0,-2 0,-1 0,-3 0,-4 1,-1 1,-3 1,-4 0,-1 0,-2 -1,-3 -9,-8 -34,-6 -34,-19 0,-5 2,-11 10,-20 -3,-1 -7,-2 -9,-4 -7,-10 -33,-12 -33,-25 0,-5 4,-12 12,-21 2,-1 2,-3 2,-5 0,-6 -6,-14 -8,-21l0 0c6,-8 -3,-26 14,-27 0,-1 1,-1 2,-1 1,1 2,1 4,2 1,0 1,0 2,0 0,1 0,3 0,4 0,1 0,3 0,4 0,1 0,3 0,4 0,3 0,5 2,7 11,7 16,2 23,-4 17,-16 25,-40 50,-45l0 0c-5,1 -11,1 -16,2 5,-1 10,-2 16,-2 102,-28 201,-64 303,-92 -80,45 -157,94 -245,124 2,4 3,8 4,11 95,-28 190,-56 285,-84 2,3 3,6 5,8 -68,41 -136,82 -213,129 -1,0 -1,1 -2,1 2,0 4,-1 6,-1 82,-20 149,-56 221,-77l0 0c19,12 38,21 56,34 23,16 50,30 80,15z"/>
   <g>
    <path class="fil8" d="M4098 5329l-18 0c1,-7 3,-12 11,-9 4,2 6,5 7,9l0 0zm-32 0l-75 0c21,-36 45,-70 73,-101l0 0c19,-4 32,11 32,23 0,0 0,0 0,0 0,2 0,5 0,7 0,19 0,41 -16,52 -9,6 -12,12 -14,19z"/>
   </g>
   <path class="fil2" d="M1822 2330c-37,-2 -71,-17 -103,-35 -164,-96 -336,-176 -514,-243 -108,-42 -210,-98 -315,-146l0 0c-13,-19 -36,-19 -53,-30 -133,-79 -279,-125 -429,-158l0 0c-74,-18 -147,-38 -221,-56 -47,-11 -94,-20 -142,-31l0 0c42,-11 83,-22 124,-34l0 0c5,18 22,14 33,16 139,29 280,55 416,99l0 0c63,22 126,41 184,76 10,6 23,8 35,12l0 0c11,7 21,15 32,21 127,64 252,132 384,185 31,12 63,21 94,32 101,47 187,120 281,177 65,39 130,75 194,115z"/>
   <path class="fil7" d="M1415 3151c0,4 -6,10 -13,14 -15,-1 -30,-14 -46,-3 -11,-10 -26,-9 -40,-10 -150,-11 -299,3 -449,14 -75,5 -150,22 -226,22l0 0c146,-80 292,-161 438,-240 18,-10 36,-17 54,-25l0 0c10,9 14,20 14,31 0,8 -2,17 -5,26 21,-2 39,1 53,-20 9,-13 31,-10 41,7 11,17 23,33 40,42 27,14 21,44 33,65 0,0 0,0 0,0 0,0 0,0 1,0 13,-8 3,-21 10,-29 12,-1 12,9 15,16 4,12 -1,30 25,15 12,-8 27,9 27,25 0,4 -1,7 -3,10 -4,10 -9,18 -9,24 0,7 7,11 27,10 10,0 13,2 13,6z"/>
   <path class="fil5" d="M5825 3362c0,11 -5,23 -19,28 -21,7 -34,0 -50,-21 -21,-28 -46,-54 -70,-80 -4,-5 -9,-13 -17,-10 -5,2 -6,6 -6,11 0,1 0,3 0,5 1,1 1,3 1,5 0,0 0,1 0,1 0,0 0,0 0,0 0,1 0,2 1,3 6,13 12,26 12,38 0,13 -6,24 -25,34 -3,-25 -27,-27 -43,-26 -39,2 -66,-6 -79,-47 -4,-11 -27,-19 -42,-20 -7,-1 -9,3 -9,7 0,2 1,5 1,7 0,3 1,5 1,7 0,1 0,2 -1,3 -3,13 -6,26 -18,33 -4,3 -12,10 -14,4 -8,-26 -45,-26 -48,-56 -2,-24 -29,-17 -41,-31 -9,-10 -20,-36 -32,-28 -6,4 -7,7 -7,10 0,10 16,19 19,30 2,11 7,23 7,33 0,12 -7,21 -30,23 -7,1 -11,3 -15,8 -5,9 -7,25 -20,19 -5,-2 -6,-6 -6,-10 0,-3 1,-6 1,-9 1,-4 1,-7 1,-10 0,-1 0,-2 0,-3 -9,0 -21,-3 -21,6 0,3 1,7 5,14 5,9 5,21 7,32 -3,-4 -5,-8 -8,-12 -48,-83 -81,-171 -87,-268l0 0c5,-1 9,-1 14,-3 4,-2 29,-2 32,0 4,4 10,8 15,4 3,-2 7,-8 7,-10 0,0 0,0 0,0 -5,-6 -7,-11 -7,-16 0,-8 4,-14 9,-21 5,-6 9,-13 9,-21 0,0 0,0 0,0 8,16 12,41 18,48 20,20 11,64 53,65 8,0 9,10 13,15 10,10 20,19 36,14 12,-5 25,-2 30,10 2,5 4,10 4,16 0,5 -2,11 -8,16 -4,3 -8,7 -8,12 0,2 1,3 2,5 5,7 19,8 22,3 4,-9 30,1 30,-11 0,-4 -2,-8 -6,-16 3,-1 7,-5 11,-5 8,0 17,-1 19,10 1,10 5,25 15,16 23,-23 47,-10 70,-6 17,2 18,-10 27,-21 5,35 21,44 52,27 15,-8 36,-2 52,-13 2,-2 9,0 12,2 49,35 55,35 96,3l0 0c7,42 11,84 28,124 3,6 5,15 5,23zm-548 -42c8,-4 18,-5 18,-15 0,-1 0,-2 0,-3 -1,-6 -9,-7 -14,-5 -6,3 -8,6 -8,10 0,4 3,9 4,13 0,0 0,0 0,0l0 0c0,0 0,0 0,0z"/>
   <path class="fil8" d="M7680 3535l0 131c-93,24 -185,55 -281,70l0 0c14,-24 29,-45 63,-32 16,6 16,-12 24,-19 3,-3 4,-6 4,-8 0,-4 -5,-7 -8,-11 -8,-9 -15,-17 -22,-26 -13,7 -6,20 -12,28 -5,6 -9,15 -18,14 -5,0 -7,-3 -7,-6 0,-3 1,-7 2,-10 0,0 0,-1 0,-1 0,-5 -4,-9 -8,-7 -4,1 -8,7 -11,11 -1,1 -1,2 -1,4 0,2 0,4 1,7 1,2 1,4 1,6 0,3 -1,5 -7,5 -19,-1 -6,38 -28,20 -9,-6 -12,-23 -22,-32 26,-15 28,-49 51,-65l0 0c95,-22 187,-50 279,-79z"/>
   <path class="fil1" d="M2711 3481c-131,93 -274,152 -438,147l0 0c3,-5 12,-78 12,-89 0,0 0,0 0,0 -1,-21 -2,-41 -10,-62 -2,-5 -3,-9 -3,-14 0,-19 20,-33 58,-41 59,-8 119,-12 176,-28 0,0 1,0 1,0 52,2 94,37 145,43 26,3 32,38 59,44l0 0z"/>
   <path class="fil9" d="M6099 4062c-5,14 -20,15 -31,20 -98,39 -198,78 -296,119 -116,48 -231,98 -346,147l0 0c-32,13 -64,27 -96,41l0 0c-101,35 -202,70 -303,105 -3,-4 -4,-7 -4,-10 0,-9 9,-15 12,-23l0 0c58,-30 116,-60 174,-90l0 0c25,-13 55,-15 74,-39l0 0c2,-1 5,-2 7,-2l0 0c100,-37 192,-93 291,-133 50,-19 101,-39 146,-69l0 0c90,-21 182,-33 274,-46 33,-5 67,-9 98,-20l0 0z"/>
   <path class="fil3" d="M4545 4359c-75,31 -153,44 -235,40l0 0c4,-6 6,-13 6,-19 0,-4 -1,-8 -2,-12 -1,13 -28,7 -28,21 0,3 1,6 3,11l0 0c-5,0 -10,-1 -15,-2l0 0c-3,-7 -7,-15 -7,-23 0,-4 1,-8 4,-13 3,-6 19,-15 19,-22 0,-4 -6,-8 -24,-8 -2,0 -6,-7 -6,-11 0,0 0,-1 0,-1 4,-7 5,-15 5,-22 0,-7 -1,-15 -3,-22 -1,-8 -2,-16 -2,-23 0,-7 1,-13 3,-20 -31,30 -36,30 -54,-7 -3,-8 -19,-12 -19,-23 0,-4 2,-8 5,-13 1,-1 1,-1 1,-1 0,-4 -21,1 -32,-7 13,-11 17,-27 26,-44 -38,8 -70,2 -79,-42 -3,-17 -11,-10 -19,-4 -5,4 -10,8 -13,0 0,0 0,-1 0,-1 0,-4 4,-10 5,-14 37,-11 75,-13 113,-17 69,-8 136,-21 203,-40 4,-1 7,-1 12,-1 0,0 0,0 0,0 5,0 10,0 16,0 -37,23 -70,43 -107,56 -11,4 -21,10 -21,21 0,3 0,6 1,9 0,0 0,0 0,1l0 1c-4,2 -8,5 -8,10 0,2 0,4 2,6 8,12 19,8 30,3 2,7 8,15 8,21 0,2 0,4 -2,5 -8,9 -12,16 -12,21 0,13 26,15 33,25 2,2 6,3 9,4 -8,9 -10,15 -10,20 0,13 25,11 34,19 1,1 1,2 1,3 0,1 0,3 -1,4 0,1 0,3 0,4 0,1 0,1 0,2 4,18 4,38 34,22 13,-7 32,-2 49,-1 0,0 0,1 0,2 0,1 0,1 0,1 0,1 0,1 0,2 0,1 0,2 -1,3 -8,9 -29,12 -29,25 0,1 1,3 1,5 8,21 37,15 49,11 36,-11 49,6 57,35l0 0z"/>
   <path class="fil7" d="M7126 4131c-24,134 -65,262 -128,383l0 0c-25,-3 -49,-4 -58,27 -2,7 -7,13 -16,8 -3,-2 -5,-5 -5,-8 0,-2 1,-3 2,-4 7,-6 9,-11 9,-15 0,-12 -23,-14 -24,-26 -20,3 -18,22 -25,33 -3,5 -1,14 -3,24 -16,-15 -33,-24 -55,-22 -12,2 -24,-7 -31,-19 -9,-15 -22,-14 -36,-11 0,0 1,0 1,-1 26,-30 58,-55 83,-84 38,-44 81,-84 119,-129 20,-24 55,-39 69,-64 20,-36 54,-48 82,-70 6,-6 11,-14 16,-22l0 0z"/>
   <path class="fil3" d="M2204 2934c0,50 -2,53 -58,57 -70,5 -139,20 -206,36 -5,1 -9,0 -14,-1l0 0c6,-7 8,-14 8,-20 0,-14 -12,-25 -22,-26 -52,-7 -69,-60 -111,-77 -45,-18 -77,-56 -122,-74 -16,-6 -26,-21 -26,-35 0,-7 2,-14 8,-19l0 0c83,-10 166,-21 250,-15l0 0c-21,13 -46,21 -46,53 0,13 -11,16 -23,14 -14,-2 -28,-4 -41,-5 -10,-1 -16,6 -17,14 0,1 0,1 0,2 0,7 8,7 14,8 73,14 145,29 218,43 11,2 19,6 28,11 19,11 37,38 61,6 2,-3 15,-8 15,3 0,2 -1,5 -2,9 -1,1 -1,3 -1,4 0,10 12,26 20,36 8,10 16,3 25,-5 11,-8 32,11 42,-19z"/>
   <path class="fil7" d="M3117 2552c0,15 0,30 -1,46l0 0c-13,-16 -34,-12 -50,-19 -8,-4 -19,15 -28,-7 -2,-4 -3,-8 -3,-11 0,-9 7,-13 14,-19 1,-1 2,-2 3,-3 -2,-1 -3,-2 -4,-2 -24,-10 -40,1 -56,12 -6,5 -14,10 -22,4 -3,-2 -4,-7 -4,-11 0,0 0,-1 0,-2 2,-10 9,-7 18,-8 15,-1 18,-8 18,-17 0,-6 -1,-13 -2,-19 -1,-6 -6,-6 -11,-5 -3,2 -8,1 -8,6 0,1 0,2 0,2 0,3 1,5 1,7 0,17 -19,14 -28,14 -8,-1 -10,-3 -10,-7 0,-5 2,-10 4,-16 0,-2 1,-3 1,-5 0,-15 -24,-15 -25,-33 -6,6 -8,12 -8,18 0,9 6,17 8,27 -11,-5 -28,-2 -28,-10 0,0 0,-2 1,-3 0,-1 0,-2 0,-3 0,-5 -4,-10 -7,-15 -4,-5 -8,-9 -8,-14 0,-4 5,-9 20,-11 1,-1 2,-1 3,-1 -1,0 -2,0 -4,-1 -14,-3 -28,-14 -29,12 0,7 -1,16 -11,14 -6,-1 -15,-6 -15,-13 0,-1 0,-2 0,-3 1,-2 1,-4 1,-5 0,-6 -2,-10 -3,-15 -2,-5 -4,-10 -4,-15 0,-3 1,-7 3,-11 0,0 1,-1 1,-1 -1,0 -1,0 -2,0 -17,8 -31,13 -44,-3 -2,-3 -9,-5 -12,-4 -35,16 -37,7 -37,-11 0,-1 0,-2 0,-2 0,-1 0,-2 0,-2 0,-7 0,-14 -1,-21 -4,-20 -5,-39 -5,-58 0,-9 0,-18 0,-27 1,-10 1,-19 1,-28 0,-5 0,-10 0,-15 0,0 0,-1 0,-1 0,-7 3,-15 4,-22l0 0c46,8 56,56 89,80 13,10 36,23 36,47 0,2 5,6 8,5 44,-7 75,26 113,36 21,6 32,11 37,32 3,14 10,34 26,6 4,-6 12,-7 15,-4 26,29 25,-6 36,-14l0 0c5,49 9,99 9,149z"/>
   <path class="fil4" d="M5290 4330c-2,0 -5,1 -7,2l0 0c-24,14 -55,16 -74,39l0 0c-58,30 -116,60 -174,90l0 0c-58,19 -106,57 -164,77l0 0c-18,-19 -37,-36 -53,-56 -9,-12 -16,-14 -28,-8 3,-3 6,-5 8,-8 35,-27 75,-44 114,-63 100,-50 204,-93 309,-133 4,-2 9,-1 14,-1l0 0c-4,2 -9,4 -13,7 -6,4 -20,3 -20,14 0,0 0,0 0,1 2,12 15,8 23,10 24,4 48,8 65,29l0 0z"/>
   <path class="fil7" d="M1458 3333c0,10 -9,17 -14,25 -3,5 -6,10 -6,15 0,4 2,8 9,12 6,4 8,9 8,14 0,5 -1,11 -4,17 -11,25 -23,50 -23,77 0,3 0,7 0,10 1,3 1,4 1,6 0,11 -6,15 -13,21l0 0c-63,-30 -126,-60 -191,-84l0 0c4,-6 5,-12 5,-18 0,-13 -6,-25 -10,-37 -9,-24 -24,-3 -42,1 19,-30 36,-49 70,-40 7,2 15,3 19,-5 0,-1 0,-3 0,-4 0,-3 0,-5 -1,-5 -6,-5 -10,-6 -20,0 -15,10 -27,-3 -34,-21 28,-2 57,6 78,1 33,-8 63,-1 94,-1 25,0 51,-2 74,14l0 0c0,0 0,1 0,2z"/>
   <path class="fil5" d="M6192 4077c0,10 -11,16 -36,29 -117,63 -232,129 -352,187 3,-4 5,-9 8,-11 11,-6 26,-11 26,-23 0,-3 -1,-7 -3,-11 -5,-8 -20,-44 -40,-7 -2,6 -10,-1 -16,-1 -46,0 -91,-2 -135,21 -59,30 -121,53 -182,78 -11,5 -22,14 -36,9l0 0c115,-49 230,-99 346,-147 98,-41 198,-80 296,-119 11,-5 26,-6 31,-20l0 0c26,-6 51,-12 76,-18l0 0c11,16 17,26 17,33z"/>
   <path class="fil2" d="M1356 3162c0,0 0,0 0,0 -58,12 -117,-3 -176,2 -30,2 -61,3 -90,16 2,0 4,1 6,1 0,1 0,1 0,2 0,1 0,1 1,2 0,1 0,1 0,0 0,0 0,0 0,-1 0,0 0,-1 0,-1 0,-1 0,-1 1,-1 17,2 33,3 49,5 29,5 60,-3 88,12l0 0c-124,7 -247,13 -370,21 -91,6 -181,20 -273,17l0 0c10,-23 27,-38 49,-49l0 0c76,0 151,-17 226,-22 150,-11 299,-25 449,-14 14,1 29,0 40,10zm0 0c0,0 0,0 0,0l0 0zm-121 37c0,0 0,0 0,0l0 0c0,0 0,0 0,0z"/>
   <path class="fil3" d="M2898 3296c-52,71 -113,135 -187,185l0 0c-27,-6 -33,-41 -59,-44 -51,-6 -93,-41 -145,-43 0,0 -1,0 -1,0 75,-24 151,-43 223,-73 41,-18 87,-3 124,-34 13,-10 31,1 45,9l0 0z"/>
   <path class="fil5" d="M3884 2872c0,35 -4,69 -4,104 0,6 -1,12 -1,17 0,3 0,5 1,7 2,13 3,22 3,29 0,16 -9,16 -41,17 -1,-2 -1,-3 -1,-4 0,-8 12,-10 12,-18 0,-8 11,-15 11,-22 0,-3 -1,-5 -4,-7 -9,-8 -23,-19 -37,-3 -9,11 -16,0 -19,-4 -3,-3 -4,-5 -4,-6 0,-4 9,-2 11,-4 3,-3 4,-7 4,-10 0,-2 -1,-4 -3,-6 -13,-6 -28,-28 -36,-21 -17,16 -34,2 -49,9l0 0c-20,-43 -29,-89 -42,-134l0 0c10,-9 13,-26 35,-19 15,5 15,-12 18,-23 1,-8 2,-17 12,-19 12,-2 11,8 15,15 4,7 12,12 19,19 -1,2 -1,5 -2,6 -6,8 -23,9 -23,19 0,1 0,4 2,6 8,17 27,14 42,5 7,-5 16,-10 22,-5 23,20 38,5 54,-11l0 0c4,21 5,42 5,63z"/>
   <path class="fil3" d="M5727 4128c-45,30 -96,50 -146,69 -99,40 -191,96 -291,133l0 0c-17,-21 -41,-25 -65,-29 -8,-2 -21,2 -23,-10 0,-1 0,-1 0,-1 0,-11 14,-10 20,-14 4,-3 9,-5 13,-7l0 0c155,-57 312,-112 475,-141 6,-1 12,0 17,0l0 0z"/>
   <path class="fil3" d="M4538 2899c-23,85 -53,166 -94,244 -6,-13 -8,-26 -29,-28 -15,-2 -19,-14 -19,-26 0,-7 1,-14 2,-19 9,-70 21,-139 33,-208l0 0c37,7 78,3 107,37z"/>
   <path class="fil3" d="M6614 3003c0,0 0,0 0,0 -38,100 -75,201 -118,299l0 0c-24,-5 -30,-19 -30,-33 0,-14 5,-29 7,-39 8,-62 5,-125 12,-187 1,-7 4,-13 6,-20l0 0c8,6 15,1 23,0 24,-2 44,1 44,34 0,0 0,1 0,1 25,-15 24,-52 56,-55z"/>
   <path class="fil6" d="M2267 1351l0 0c-16,-6 -16,-21 -22,-33 -61,-126 -118,-254 -185,-376 -34,-63 -61,-130 -102,-189l0 0c-7,-32 -20,-64 -20,-97 0,-18 4,-37 17,-56l0 0c1,3 4,6 4,9 0,0 0,0 0,1 0,4 -1,9 -1,14 0,96 64,170 99,254 15,37 38,71 54,108 53,122 104,244 156,365z"/>
   <path class="fil3" d="M5013 4053c-26,33 -57,61 -91,85l0 0c-30,15 -57,1 -80,-15 -18,-13 -37,-22 -56,-34l0 0c41,-34 95,-39 139,-66 3,-2 8,-3 10,-2 28,9 42,-5 49,-30 30,13 12,45 29,62l0 0z"/>
   <path class="fil0" d="M4585 3611c0,7 -7,16 -16,16 -18,1 -31,-10 -40,-22 -4,-4 -5,-8 -5,-12 0,-7 6,-14 13,-20 8,-7 14,-16 21,-23 3,0 6,1 8,2l0 0c3,4 3,9 3,14 0,2 0,5 0,7 0,2 0,4 0,6 0,10 2,20 14,27 2,1 2,3 2,5z"/>
   <path class="fil0" d="M4689 3599c0,13 -8,15 -19,6 -14,-12 -24,-18 -41,-4 -9,8 -26,6 -35,-5 -3,-5 -5,-10 -5,-15 0,-6 3,-13 11,-18l0 0c31,6 60,17 89,30l0 0c0,2 0,4 0,6z"/>
   <path class="fil0" d="M4017 3565c0,4 -1,7 -5,11 -3,3 -9,1 -12,-3 -4,-6 -7,-13 -7,-20 0,-5 2,-11 7,-17l0 0c2,-1 4,-1 6,0l0 0c1,2 2,4 2,6 2,8 9,15 9,23z"/>
   <path class="fil5" d="M4316 4380c0,6 -2,13 -6,19l0 0c-7,1 -13,7 -21,1l0 0c-2,-5 -3,-8 -3,-11 0,-14 27,-8 28,-21 1,4 2,8 2,12z"/>
   <path class="fil4" d="M5513 4590c0,2 -1,5 -3,7 -6,6 -14,6 -19,1 -16,-15 -30,-22 -46,-1 -11,13 -34,8 -38,34 -5,27 -40,26 -57,26 -43,0 -73,11 -88,52 -2,6 -4,9 -9,6 -39,-24 -55,33 -89,26 -6,-1 -9,9 -10,16 -1,14 -9,21 -20,25 -53,19 -108,19 -160,3 -22,-6 -29,-33 -34,-57 -13,-62 -27,-124 -63,-177l0 0c50,-19 100,-38 150,-57l0 0c101,-35 202,-70 303,-105l0 0c24,4 41,-12 61,-19 16,-7 27,-9 35,11 8,21 26,32 48,31 21,0 32,11 38,29l0 0c-26,23 -59,34 -89,50 -54,30 -106,64 -163,88 43,-2 81,-23 123,-31l0 0c28,3 48,-17 73,-24l0 0c4,-2 8,-4 12,-6l0 0c9,8 26,11 26,24 0,3 -1,8 -4,14 -1,1 -2,3 -2,4 0,7 11,12 16,17 3,4 9,8 9,13z"/>
   <path class="fil6" d="M6023 2848c0,11 0,23 -1,35 -1,37 -18,70 -18,106 0,39 -20,74 -25,112 -1,7 -1,13 -8,13 -8,0 -9,-4 -9,-8 0,-2 0,-5 0,-7 4,-39 8,-78 12,-117 1,-12 3,-23 4,-35 0,-1 0,-2 0,-4 0,-7 -2,-14 -9,-17 -11,-6 -15,5 -22,11 -1,-8 -2,-15 -2,-23 0,-20 4,-40 5,-60 1,-6 1,-13 1,-19 0,-110 -50,-203 -108,-293 -48,-75 -96,-150 -130,-232 -51,-124 -70,-254 -71,-387 0,-29 -9,-56 -17,-84 1,-3 2,-6 3,-8l0 0c1,0 1,0 1,-1 15,-7 20,-17 20,-26 0,-14 -11,-29 -16,-41 -12,-29 -17,-60 -38,-86 23,3 22,24 31,37 45,67 68,140 70,222 1,51 16,102 24,153 12,69 22,141 59,202 35,58 55,123 94,179 13,18 35,39 35,66 0,4 0,8 -1,12 0,0 0,0 0,0 0,3 3,6 5,8 43,31 59,78 79,124 25,55 32,110 32,168z"/>
   <path class="fil6" d="M6332 3744c-162,-41 -260,-149 -336,-282l0 0c-22,-49 -42,-98 -55,-150 -9,-32 -21,-63 -21,-96 0,-6 1,-12 2,-18 16,13 31,25 32,49 1,13 13,23 27,22 9,-1 10,-5 10,-11 0,-1 0,-3 0,-5 0,-2 -1,-4 -1,-5 0,-2 1,-3 1,-4 5,-22 2,-47 23,-63l0 0c1,10 3,19 4,29l0 0c2,58 16,113 35,167 10,31 18,65 42,91 1,1 2,2 3,3 67,98 148,185 234,273z"/>
   <path class="fil3" d="M5838 4259c0,12 -15,17 -26,23 -3,2 -5,7 -8,11l0 0c-97,49 -195,98 -292,148l0 0c-6,-18 -17,-29 -38,-29 -22,1 -40,-10 -48,-31 -8,-20 -19,-18 -35,-11 -20,7 -37,23 -61,19l0 0c32,-14 64,-28 96,-41l0 0c14,5 25,-4 36,-9 61,-25 123,-48 182,-78 44,-23 89,-21 135,-21 6,0 14,7 16,1 20,-37 35,-1 40,7 2,4 3,8 3,11z"/>
   <path class="fil10" d="M4523 3898c-99,33 -202,54 -306,65 -100,11 -201,12 -297,41 -123,37 -240,87 -353,148 -63,35 -133,48 -203,44 -50,-3 -102,1 -151,-14l0 0c46,-3 92,-8 138,-9 101,-1 194,-25 281,-79 81,-50 170,-85 262,-107 159,-37 320,-60 482,-77 49,-5 98,-12 147,-12l0 0z"/>
   <path class="fil7" d="M6173 3434c0,4 -1,7 -4,10 -9,8 -33,-7 -50,-5 -12,2 -20,17 -21,32 -1,-1 -2,-2 -3,-3 -24,-26 -32,-60 -42,-91 -19,-54 -33,-109 -35,-167l0 0c9,-14 20,-11 33,-9 32,7 47,0 47,-21 0,-6 -1,-14 -4,-23 -5,-16 -8,-33 -8,-53 0,0 0,-1 0,-2 0,0 0,0 0,0 0,-2 0,-4 0,-6 14,24 29,49 44,74l0 0c-11,-1 -18,0 -18,10 0,2 1,4 1,7 11,57 30,111 51,165 3,9 8,17 8,25 0,4 -1,8 -4,13 -2,3 -3,7 -3,11 0,6 2,12 4,18 2,5 4,11 4,15z"/>
   <path class="fil3" d="M6387 4198c0,13 -20,18 -30,24 -95,52 -188,107 -270,179 -81,72 -165,140 -252,205 -46,36 -89,77 -142,104 41,-41 82,-83 124,-123 60,-57 122,-112 183,-169 81,-75 178,-127 269,-186 26,-17 49,-39 80,-49l0 0c2,1 4,3 5,4 10,8 31,-8 33,10 0,0 0,1 0,1z"/>
   <path class="fil5" d="M6367 3255c0,10 -1,20 -2,29 -1,10 -1,20 -1,30 0,0 0,0 0,1 0,0 0,1 0,2 0,18 -2,36 -3,55 -2,18 -4,36 -4,55 0,8 1,16 2,25 0,1 0,3 0,4 0,21 -16,22 -33,25 -25,5 -19,-13 -23,-24 -21,-65 -43,-129 -65,-193 -5,-14 -9,-27 -9,-41 0,-4 0,-8 1,-12l0 0c14,8 25,13 44,8 18,-6 40,-2 58,9 18,12 24,1 29,-13l0 0c4,13 6,27 6,40z"/>
   <path class="fil3" d="M5996 3462l0 0c-2,-1 -5,-2 -6,-4 -46,-88 -96,-175 -96,-278 0,-4 0,-9 0,-13 2,-49 7,-99 30,-144l0 0c-6,33 -7,66 -7,100 0,14 0,27 0,41 0,1 0,1 0,2 0,2 0,4 0,6 0,2 0,4 0,6 0,7 1,13 5,20l0 0c-1,6 -2,12 -2,18 0,33 12,65 21,96 13,52 33,101 55,150z"/>
   <path class="fil1" d="M5586 1750l0 0c-62,-74 -113,-157 -168,-236 -10,-14 -18,-30 -27,-44l0 0c36,23 52,63 76,96 45,57 93,114 119,184z"/>
   <path class="fil3" d="M4422 4070c-25,5 -33,29 -50,45 -7,6 -12,11 -23,4 -2,-2 -2,-4 -2,-7 0,-1 0,-3 0,-4 0,-1 0,-3 0,-4 0,-1 0,-3 0,-4 -1,0 -1,0 -1,0 -1,-1 -3,-2 -5,-2 -1,0 -2,0 -2,1 -17,1 -8,19 -14,27 -4,-11 -16,-13 -24,-19l0 0 0 -1c0,0 1,0 1,0 33,-15 68,-27 104,-34 5,-1 11,-1 16,-2z"/>
   <path class="fil3" d="M6500 2884c-2,17 -4,34 -6,51 0,1 0,3 -1,4l0 0c-2,-5 -5,-9 -11,-10l0 0c-1,-3 -2,-6 -2,-9 0,-14 10,-24 20,-36z"/>
   <path class="fil1" d="M5628 1831c-1,2 -2,5 -3,8 -13,-30 -26,-59 -39,-89l0 0c26,21 27,54 42,80 0,0 0,1 0,1l0 0z"/>
   <path class="fil7" d="M6157 3177c0,9 -1,19 -7,30 -7,-12 -12,-21 -18,-31l0 0c8,-5 16,-11 24,-17 0,0 0,0 0,0 1,6 1,12 1,18z"/>
   <path class="fil8" d="M7353 3716c0,2 -1,4 -4,5 -6,3 -13,1 -17,-6 -1,-2 -2,-4 -2,-6 0,-3 1,-6 4,-9 9,-3 13,3 16,9 1,2 3,5 3,7z"/>
   <path class="fil2" d="M5456 4524c-25,7 -45,27 -73,24l0 0c24,-8 45,-27 73,-24l0 0z"/>
   <path class="fil2" d="M6391 4400c-3,14 -13,17 -26,18 2,-18 10,-23 26,-18z"/>
   <path class="fil2" d="M2775 3023c0,3 -3,5 -6,6 -161,79 -330,134 -507,166 -36,6 -73,4 -110,-4 -56,-12 -112,-4 -169,6 -114,21 -223,71 -343,66 -54,-2 -105,-16 -156,-30 -8,-2 -16,-2 -24,-3l0 0c-19,-20 -43,-18 -67,-15 -52,-16 -103,-39 -158,-16l0 0 0 0c-28,-15 -59,-7 -88,-12 -16,-2 -32,-3 -49,-5 0,-1 -1,-1 -2,-1 -2,0 -4,-1 -6,-1 29,-13 60,-14 90,-16 59,-5 118,10 176,-2 0,0 0,0 0,0l0 0c0,0 0,0 0,0 0,0 0,0 0,0 14,13 31,14 49,10 51,9 102,18 152,28 101,19 198,7 295,-27 62,-22 127,-35 192,-43 15,-2 30,-4 44,-6 25,2 51,2 75,7 82,17 159,-4 236,-27l0 0c-2,1 -4,1 -5,1 1,0 3,0 5,-1 123,-37 246,-74 375,-84 1,1 1,2 1,3z"/>
   <path class="fil3" d="M1504 2019c0,3 -1,6 -3,10 -10,14 -23,7 -34,0 -41,-30 -84,-57 -129,-80 -72,-38 -146,-70 -226,-90 44,33 90,64 134,98 34,27 74,45 101,81 -31,-11 -63,-20 -94,-32 -132,-53 -257,-121 -384,-185 -11,-6 -21,-14 -32,-21l0 0c-1,-2 -1,-4 -1,-7 0,-7 4,-14 7,-21 4,-7 7,-15 7,-22 0,-3 0,-5 -1,-8l2 -3c8,-5 20,-4 21,2 7,23 44,3 44,30 0,1 0,1 0,2 0,5 -3,10 -3,13 0,3 2,6 10,6 10,0 15,-8 15,-17 0,-1 0,-2 0,-2 -1,-10 -3,-19 -3,-28 0,0 0,-1 0,-1 0,-8 2,-16 10,-19 9,-3 14,2 21,7 18,11 40,23 57,2 14,-16 43,4 48,-25l0 0c61,44 123,89 185,132 67,47 135,93 203,138 11,7 19,16 30,22 8,5 15,10 15,18zm-441 -266c0,1 0,1 1,2 1,7 8,6 13,2 4,-3 7,-7 7,-11 0,-2 -1,-4 -3,-7 -3,-4 -7,-5 -14,-1 -1,4 -4,10 -4,15z"/>
   <path class="fil3" d="M1489 2287c0,3 -2,7 -5,11 -13,17 -29,26 -50,21 -140,-30 -284,-37 -424,-63 -11,-2 -19,-1 -19,8 0,2 1,4 2,7l0 0c-30,-12 -65,-15 -90,-40 15,1 27,-11 44,6 10,11 41,30 51,-11 5,-20 26,-8 41,-18 -6,-5 -9,-12 -9,-18 0,-6 2,-11 6,-17 4,-6 8,-13 8,-19 0,-3 -1,-7 -4,-9 -8,-8 -19,1 -28,3 0,1 0,2 0,3 0,4 3,8 6,12 3,3 6,6 6,10 0,1 -1,3 -4,5 -24,14 -18,-26 -36,-25 0,8 0,14 0,19 0,25 -4,27 -32,36 0,-2 0,-4 0,-6 0,-9 4,-19 8,-28 4,-9 8,-18 8,-28 0,-6 -1,-11 -4,-17 -17,2 -10,30 -32,28 7,-27 13,-54 20,-81 -34,4 -50,16 -50,38 0,7 1,15 4,25 -22,-6 -33,-10 -33,-18 0,-6 5,-14 15,-26 8,-10 13,-18 13,-24 0,-8 -7,-13 -21,-19 -8,-4 -13,-13 -20,-20 13,-4 23,2 34,6 116,46 234,90 348,139 50,22 102,35 152,54 16,5 41,8 41,31 0,4 -1,9 -3,15 0,1 0,2 0,3 0,5 5,5 11,6 6,1 11,2 11,10 0,4 6,-7 7,-12 4,-13 13,-12 22,-6 4,2 6,5 6,9z"/>
   <path class="fil3" d="M4394 2847c-21,63 -46,125 -62,189 -7,28 -23,54 -23,83 0,5 1,9 1,14 1,1 1,2 1,4 0,5 -3,10 -11,9 -5,-1 -12,-4 -12,-8 0,-1 0,-1 0,-2 6,-8 8,-15 8,-21 0,-17 -13,-31 -17,-47 -3,-13 -4,-25 -4,-37 0,-15 1,-30 3,-44 1,-15 3,-30 3,-45 0,-3 0,-7 0,-11 -2,-27 -1,-53 -11,-84 0,-1 0,-1 0,-1 0,0 0,0 -1,1 -25,34 -25,72 -40,105 -7,15 -16,30 -16,47 0,3 0,6 1,9 0,2 0,4 0,6 0,19 -24,-10 -25,7 0,0 0,1 0,1 0,3 0,6 0,8 1,3 1,6 1,9 0,6 -2,12 -10,15 -15,7 -38,-10 -38,-28 0,-1 0,-1 0,-1 1,-4 3,-7 3,-11 0,-2 0,-4 -1,-5 -26,-36 -35,-49 -35,-74 0,-12 2,-29 6,-53 5,-31 14,-61 21,-91l0 0c5,9 11,14 22,12 6,-1 16,-2 16,-1 3,19 17,18 32,23 45,17 56,14 67,-34 1,-3 2,-6 5,-13 3,7 4,13 4,19 0,3 0,6 0,8 0,3 -1,6 -1,8 0,1 0,2 0,2 1,21 3,40 33,38 18,-1 24,14 34,38 0,1 1,3 2,4 0,-1 -1,-3 -1,-5 0,-1 0,-3 0,-5 0,-35 28,-29 45,-38z"/>
   <path class="fil3" d="M2399 3104c-77,23 -154,44 -236,27 -24,-5 -50,-5 -75,-7 -5,-20 -16,-34 -39,-29 -10,3 -14,0 -16,-10 -1,-6 -7,-11 -12,-6 -29,34 -32,1 -41,-16l0 0c61,-1 122,-4 183,-2 48,2 93,-15 141,-8 11,2 20,-1 25,11 0,1 1,3 2,3 34,-11 36,35 63,38 1,0 3,0 5,-1z"/>
   <path class="fil3" d="M1593 2287c0,2 0,4 -1,6 -3,10 -9,14 -18,9 -23,-13 -51,-12 -73,-28 -3,-2 -8,-3 -8,-7 0,0 1,-1 1,-1 0,-3 3,-6 5,-9 6,1 12,1 17,3 22,6 43,14 65,18 8,2 12,4 12,9z"/>
   <path class="fil2" d="M1393 3215c-53,-5 -105,-10 -158,-16 0,0 0,0 0,0l0 0c55,-23 106,0 158,16 0,0 0,0 0,0 0,0 0,0 0,0z"/>
   <path class="fil3" d="M1555 2055c0,4 -5,10 -9,9 -13,-2 -29,2 -37,-12 -1,-1 -1,-2 -1,-2 0,-4 4,-6 9,-7 12,2 27,-6 37,8 0,1 1,2 1,4z"/>
   <path class="fil2" d="M1460 3230l0 0c-23,0 -46,-5 -67,-15 0,0 0,0 0,0 0,0 0,0 0,0 24,-3 48,-5 67,15z"/>
   <path class="fil1" d="M2372 1405l0 0c-24,-25 -29,-59 -43,-88l0 0c23,25 29,58 43,88z"/>
   <path class="fil1" d="M2264 1186l0 0c-24,-22 -27,-55 -41,-81l0 0c22,22 27,54 41,81z"/>
   <path class="fil3" d="M1942 2806c0,6 -2,11 -8,15 -5,3 -10,-1 -13,-6 -2,-3 -3,-6 -3,-9 0,-4 2,-7 5,-9 6,-3 13,-4 19,3 0,2 0,4 0,6z"/>
   <path class="fil2" d="M1890 2355c-15,1 -26,-5 -36,-13 13,-2 27,-7 36,13z"/>
   <path class="fil7" d="M5035 4461c-3,8 -12,14 -12,23 0,3 1,6 4,10l0 0c-50,19 -100,38 -150,57l0 0c-13,-2 -24,1 -35,7l0 0c4,-15 19,-14 29,-20l0 0c58,-20 106,-58 164,-77l0 0z"/>
   <path class="fil4" d="M5490 2639c0,2 -2,4 -7,5 -21,7 -29,-17 -44,-26 -3,-1 -4,-3 -4,-5 0,-5 7,-11 11,-13 22,-7 29,11 36,25 3,5 8,10 8,14z"/>
   <path class="fil1" d="M3061 3918c0,4 -2,7 -7,9 -10,2 -18,-3 -22,-13 -1,-2 -1,-4 -1,-6 0,-4 2,-9 6,-12 11,-2 17,3 20,11 2,3 4,8 4,11z"/>
   <path class="fil6" d="M5562 1617c-12,-12 -29,-21 -29,-45 0,-1 0,-1 0,-2 24,10 27,28 29,47z"/>
   <path class="fil2" d="M1405 3172l0 0c-18,4 -35,3 -49,-10 0,0 0,0 0,0 0,0 0,0 0,0 0,0 0,0 0,0 0,0 0,0 0,0 16,-11 31,2 46,3l0 0c1,2 2,4 3,7z"/>
   <path class="fil6" d="M6310 4152c-23,36 -59,58 -94,78 -135,77 -251,176 -362,283 -112,107 -222,215 -342,314 -119,97 -231,201 -323,327 -48,65 -105,121 -165,175l-84 0c100,-86 191,-181 268,-288 69,-98 163,-170 253,-246 105,-87 209,-175 311,-266 104,-92 206,-189 326,-261 69,-42 142,-78 212,-116z"/>
   <path class="fil7" d="M4775 4968c0,3 -3,5 -6,6 -17,7 -20,-11 -30,-16 0,-1 1,-1 1,-1 0,0 0,0 0,0 13,-3 24,-4 34,7 1,2 1,3 1,4zm-36 -10c0,0 0,0 0,0l0 -1c0,0 0,0 0,1z"/>
   <path class="fil3" d="M5232 1536c0,15 -17,15 -30,22 -2,1 -2,2 -3,2 0,-1 0,-2 0,-4 0,-1 1,-2 1,-3 0,-3 -1,-6 -1,-9 -1,-3 -1,-6 -1,-8 0,-5 1,-8 7,-10 7,-2 26,-3 27,9 0,0 0,1 0,1z"/>
   <path class="fil0" d="M4519 3558c0,6 -5,10 -11,13 -5,2 -11,5 -15,-1 -1,-2 -1,-4 -1,-6 0,-6 3,-12 8,-16 6,-6 14,-3 17,4 1,2 2,4 2,6z"/>
   <path class="fil0" d="M4193 3632c0,4 -1,8 -4,11 -4,3 -8,-1 -11,-5 -1,-3 -2,-6 -2,-9 0,-4 2,-6 7,-8 2,-1 7,1 8,3 2,2 2,5 2,8z"/>
   <path class="fil2" d="M6052 5264c0,1 -1,2 -2,2 -31,-1 -11,41 -35,42 -7,0 -15,-13 -23,-20 2,-3 4,-7 6,-8 15,-11 28,-21 28,-38 0,-4 -1,-9 -3,-15 8,8 15,17 23,25 3,3 6,9 6,12zm-60 24c0,0 0,0 0,0l0 0c0,0 0,0 0,0z"/>
   <path class="fil3" d="M5139 1594c0,2 -1,4 -2,7l0 0c-2,0 -4,1 -7,2l0 0c-15,-1 -31,0 -47,-2 -10,-2 -13,-6 -13,-11 0,-2 1,-4 1,-7 1,-3 1,-6 1,-8 0,-4 0,-7 -3,-10 26,9 41,28 64,22 4,0 6,3 6,7z"/>
   <path class="fil7" d="M5144 1614c0,8 -10,14 -16,19 -11,8 -24,16 -38,8 -3,-2 -6,-7 -6,-11 0,0 0,-1 0,-1 1,-8 9,-12 15,-10 17,6 27,0 31,-16l0 0c3,-1 5,-2 7,-2l0 0c5,5 7,9 7,13z"/>
   <path class="fil7" d="M5262 1745c0,6 -4,12 -10,15 -11,4 -20,-5 -26,-12 -2,-2 -3,-4 -3,-6 0,-5 8,-9 9,-13 12,-5 23,-2 28,8 1,2 2,5 2,8z"/>
   <path class="fil7" d="M5198 1763c-7,9 -14,18 -25,33 0,-2 0,-3 0,-5 0,-6 -2,-11 -4,-16 -3,-4 -5,-8 -5,-13 0,-2 0,-4 2,-7 11,-19 19,19 32,8z"/>
   <path class="fil7" d="M5217 1653c0,6 -2,11 -10,12 -2,0 -6,-7 -7,-10 0,-1 0,-2 0,-3 0,-4 1,-9 1,-11 12,1 15,4 16,9 0,1 0,2 0,3z"/>
   <path class="fil0" d="M5295 3305c0,10 -10,11 -18,15 -1,-4 -4,-9 -4,-13 0,-4 2,-7 8,-10 5,-2 13,-1 14,5 0,1 0,2 0,3zm-18 15l0 0c0,0 0,0 0,0 0,0 0,0 0,0z"/>
   <path class="fil3" d="M5283 4332c-19,24 -49,26 -74,39l0 0c19,-23 50,-25 74,-39l0 0z"/>
   <path class="fil2" d="M4325 4126l0 0c-11,5 -22,9 -30,-3 -2,-2 -2,-4 -2,-6 0,-5 4,-8 8,-10l0 0c8,6 20,8 24,19l0 0z"/>
   <path class="fil4" d="M1084 1746c0,4 -3,8 -7,11 -5,4 -12,5 -13,-2 -1,-1 -1,-1 -1,-2 0,-5 3,-11 4,-15 7,-4 11,-3 14,1 2,3 3,5 3,7z"/>
  </g>
 </g>
</svg>
