<?xml version="1.0" encoding="UTF-8"?>
<!DOCTYPE svg PUBLIC "-//W3C//DTD SVG 1.1//EN" "http://www.w3.org/Graphics/SVG/1.1/DTD/svg11.dtd">
<!-- Creator: CorelDRAW X7 -->
<svg xmlns="http://www.w3.org/2000/svg" xml:space="preserve" width="34.1921mm" height="10.2292mm" version="1.1" style="shape-rendering:geometricPrecision; text-rendering:geometricPrecision; image-rendering:optimizeQuality; fill-rule:evenodd; clip-rule:evenodd"
viewBox="0 0 155 46"
 xmlns:xlink="http://www.w3.org/1999/xlink">
 <defs>
  <style type="text/css">
   <![CDATA[
    .fil0 {fill:#F4F1ED}
    .fil1 {fill:#B0C3C5}
   ]]>
  </style>
 </defs>
 <g id="Layer_x0020_1">
  <metadata id="CorelCorpID_0Corel-Layer"/>
  <path class="fil0" d="M155 0c0,0 0,0 -1,1 1,-1 1,-1 1,-1z"/>
  <path class="fil1" d="M75 27c1,0 1,1 3,2 1,1 2,1 3,2 1,0 1,0 2,0 1,0 2,0 3,0 1,0 3,0 5,-1 2,-1 4,-1 6,-2 2,-1 5,-2 7,-3 2,-1 5,-2 8,-2 3,0 5,1 7,2 3,1 5,2 7,3 2,1 4,2 6,2 2,1 4,1 6,2 2,0 3,0 5,0 1,0 2,0 3,0 2,-1 3,-1 3,-1 0,0 0,0 -1,0 0,0 -1,1 -2,1 -1,0 -2,0 -3,0 -2,0 -3,0 -5,0 -2,0 -4,0 -6,-1 -2,-1 -4,-1 -6,-2 -2,-1 -4,-2 -7,-3 -2,-1 -5,-2 -7,-2 -3,0 -5,1 -8,1 -2,1 -4,2 -6,3 -3,1 -5,2 -7,3 -2,0 -4,1 -5,1 -1,0 -2,0 -3,0 -1,-1 -1,-1 -2,-1 -1,0 -3,-1 -3,-1 -1,-1 -2,-2 -2,-2 0,0 -1,-1 -1,-1z"/>
  <path class="fil1" d="M88 33c2,0 5,1 7,3 3,3 4,6 4,9 -3,1 -7,-1 -9,-3 -2,-3 -3,-6 -2,-9z"/>
  <path class="fil1" d="M93 28c3,-1 5,-4 6,-7 0,-3 0,-6 -2,-9 0,0 0,-1 0,-1 -1,0 -1,0 -1,1 -3,2 -5,5 -5,8 -1,3 0,5 2,8z"/>
  <path class="fil1" d="M112 25c3,0 4,2 5,5 2,2 2,5 1,8 0,0 0,0 0,0 -1,0 -1,0 -1,0 -4,-3 -6,-8 -5,-13z"/>
  <path class="fil1" d="M129 28c0,0 4,-4 7,-5 3,-1 6,-1 9,0 0,0 0,0 0,0 -2,4 -6,6 -10,6 -3,0 -5,0 -6,-1z"/>
  <path class="fil1" d="M132 32c1,-1 2,1 3,1 1,2 3,4 4,6 1,2 1,5 0,7 -5,-3 -8,-9 -7,-14l0 0z"/>
  <path class="fil1" d="M111 22c2,1 6,-1 7,-2 2,-2 3,-4 4,-6 -3,0 -7,1 -10,4 -1,1 -1,3 -1,4z"/>
  <path class="fil1" d="M145 23c0,0 -1,0 -2,1 -2,0 -4,1 -6,2 -4,1 -7,2 -7,2 0,0 3,-2 7,-3 2,-1 4,-2 6,-2 1,0 2,0 2,0z"/>
  <path class="fil1" d="M123 14c0,1 -3,2 -6,4 -3,2 -6,4 -6,4 0,0 2,-2 5,-4 4,-2 7,-4 7,-4z"/>
  <path class="fil1" d="M117 38c0,0 -1,-3 -3,-7 -1,-3 -2,-6 -2,-6 0,0 2,2 3,6 1,4 2,7 2,7z"/>
  <path class="fil1" d="M140 46c-1,0 -1,0 -2,-1 -1,-1 -1,-2 -2,-3 0,-1 -1,-2 -1,-3 -1,-1 -1,-2 -1,-3 -1,-1 -1,-2 -1,-2 -1,-2 -1,-2 -1,-2 0,-1 1,0 1,2 1,0 1,1 1,2 1,1 1,2 2,3 0,1 0,2 1,3 0,1 1,2 1,2 1,1 2,2 2,2z"/>
  <path class="fil1" d="M99 46c0,0 -3,-2 -6,-6 -3,-4 -5,-7 -5,-7 0,0 3,3 6,6 3,4 5,7 5,7z"/>
  <path class="fil1" d="M96 12c0,0 -1,3 -1,8 -1,4 -2,8 -2,8 -1,0 0,-4 1,-8 1,-5 2,-8 2,-8z"/>
  <path class="fil1" d="M105 37c-1,0 -3,-1 -5,-2 -3,-1 -5,-2 -5,-3 0,0 2,1 5,2 3,1 5,3 5,3z"/>
  <path class="fil1" d="M87 21c0,0 1,2 2,4 1,2 2,3 1,3 0,0 -1,-1 -2,-3 -1,-2 -2,-4 -1,-4z"/>
  <path class="fil1" d="M104 19c0,1 -1,2 -3,3 -1,2 -3,3 -3,3 0,0 1,-2 3,-3 2,-2 3,-3 3,-3z"/>
  <path class="fil1" d="M102 17c0,0 0,0 0,1 -1,0 -1,1 -1,1 0,0 0,-1 0,-1 0,0 0,0 0,-1 0,0 0,0 1,0 0,-1 0,-1 0,0z"/>
  <path class="fil1" d="M123 21c0,1 -1,1 -3,1 -2,1 -3,0 -3,0 0,0 1,0 3,0 1,-1 3,-1 3,-1z"/>
  <path class="fil1" d="M123 19c0,0 -1,1 -1,1 -1,0 -1,0 -1,0 0,0 0,-1 0,-1 1,0 1,0 2,0z"/>
  <path class="fil1" d="M109 30c0,0 0,-1 1,-2 0,-1 0,-2 1,-2 0,0 0,1 -1,2 0,1 0,2 -1,2z"/>
  <path class="fil1" d="M120 29c0,0 -1,0 -2,-1 -1,-1 -2,-2 -1,-2 0,0 1,0 2,1 0,1 1,2 1,2z"/>
  <path class="fil1" d="M128 39c0,0 0,-1 1,-3 0,-2 1,-4 1,-4 0,0 0,2 0,4 -1,2 -1,3 -2,3z"/>
  <path class="fil1" d="M125 34c-1,0 0,-1 1,-2 1,0 2,-1 2,-1 0,1 -1,1 -1,2 -1,1 -2,1 -2,1z"/>
  <path class="fil1" d="M140 35c0,0 -1,0 -2,0 -1,-1 -2,-2 -2,-2 0,0 1,0 2,1 2,0 2,1 2,1z"/>
  <path class="fil1" d="M141 30c0,0 0,0 -1,0 -1,0 -2,0 -2,0 0,0 1,-1 2,0 1,0 1,0 1,0z"/>
  <path class="fil1" d="M132 19c0,0 0,2 -1,4 -1,2 -2,3 -2,3 0,0 0,-1 1,-3 1,-2 2,-4 2,-4z"/>
  <path class="fil1" d="M102 30c0,0 -1,1 -2,1 -2,0 -3,0 -3,0 0,0 1,-1 2,-1 2,0 3,0 3,0z"/>
  <path class="fil1" d="M83 38c-1,0 0,-1 0,-2 1,-2 2,-2 2,-2 0,0 0,1 -1,2 -1,1 -1,2 -1,2z"/>
  <path class="fil1" d="M85 28c1,-1 1,0 2,0 0,0 1,1 0,1 0,0 0,0 -1,0 0,-1 -1,-1 -1,-1z"/>
  <path class="fil1" d="M74 27c0,1 -1,1 -1,1 0,1 -1,1 -2,2 0,0 -1,1 -3,1 0,1 -1,1 -2,1 -1,0 -2,0 -3,0 -1,0 -3,0 -5,-1 -2,-1 -4,-2 -6,-3 -3,-1 -5,-2 -7,-2 -3,-1 -5,-2 -8,-2 -2,0 -5,1 -7,2 -3,1 -5,2 -7,3 -2,1 -4,2 -6,2 -2,1 -4,1 -6,1 -2,1 -3,1 -5,1 -1,0 -2,-1 -3,-1 -1,0 -2,0 -2,-1 -1,0 -1,0 -1,0 0,0 1,0 3,1 1,0 2,0 3,0 2,0 3,0 5,0 2,0 4,-1 6,-1 2,-1 4,-2 6,-3 2,-1 4,-2 7,-3 2,-1 5,-1 7,-2 3,0 6,1 8,2 3,1 5,2 7,3 2,1 4,2 6,2 2,1 4,1 5,1 1,0 2,0 3,0 1,0 1,0 2,0 1,0 2,-1 3,-2 2,-1 3,-2 3,-2z"/>
  <path class="fil1" d="M61 33c-2,0 -5,1 -7,4 -3,2 -4,5 -4,9 3,0 7,-2 9,-4 2,-2 3,-6 2,-9z"/>
  <path class="fil1" d="M56 28c-3,-1 -5,-4 -5,-7 -1,-3 0,-6 1,-9 0,0 0,0 0,-1 1,0 1,1 1,1 3,2 5,5 5,8 1,3 0,5 -2,8z"/>
  <path class="fil1" d="M37 25c-3,1 -4,2 -5,5 -1,2 -2,5 -1,8 0,0 0,0 0,1 1,0 1,-1 1,-1 4,-3 6,-8 5,-13z"/>
  <path class="fil1" d="M20 28c0,0 -4,-4 -7,-5 -3,-1 -6,-1 -9,0 0,0 0,0 0,0 2,4 6,6 10,6 3,0 5,0 6,-1z"/>
  <path class="fil1" d="M17 32c-1,-1 -2,1 -3,2 -1,1 -3,3 -4,5 -1,2 -1,5 0,7 5,-3 8,-9 7,-14l0 0z"/>
  <path class="fil1" d="M38 22c-2,1 -5,0 -7,-2 -2,-2 -3,-4 -4,-6 3,0 7,2 10,4 1,1 1,3 1,4z"/>
  <path class="fil1" d="M4 23c0,0 1,0 3,0 1,1 3,1 5,2 4,1 7,3 7,3 0,0 -3,-1 -7,-2 -2,-1 -4,-2 -6,-2 -1,-1 -2,-1 -2,-1z"/>
  <path class="fil1" d="M26 15c1,-1 3,1 7,3 3,2 5,4 5,4 0,0 -3,-1 -6,-3 -3,-2 -6,-4 -6,-4z"/>
  <path class="fil1" d="M32 38c0,0 1,-3 2,-7 1,-3 3,-6 3,-6 0,0 -1,3 -2,7 -2,3 -3,6 -3,6z"/>
  <path class="fil1" d="M9 46c0,0 1,0 2,-2 0,0 1,-1 1,-2 1,-1 1,-2 1,-3 1,-1 1,-2 2,-3 0,-1 0,-2 1,-2 1,-2 1,-2 1,-2 0,0 0,1 -1,2 0,1 0,1 -1,2 0,1 0,2 -1,3 0,2 -1,3 -1,3 -1,1 -1,2 -2,3 -1,1 -1,1 -2,1z"/>
  <path class="fil1" d="M50 46c0,0 3,-3 5,-6 4,-4 6,-7 6,-7 0,0 -2,4 -5,7 -3,4 -6,6 -6,6z"/>
  <path class="fil1" d="M53 12c1,0 1,3 2,8 1,4 2,8 1,8 0,0 -1,-3 -1,-8 -1,-5 -2,-8 -2,-8z"/>
  <path class="fil1" d="M45 37c-1,0 1,-1 4,-3 3,-1 5,-2 5,-1 0,0 -2,1 -5,2 -2,1 -4,2 -4,2z"/>
  <path class="fil1" d="M62 21c1,0 0,2 -1,4 -1,2 -2,4 -2,3 -1,0 0,-1 1,-3 2,-2 2,-4 2,-4z"/>
  <path class="fil1" d="M45 20c0,-1 2,0 3,2 2,2 3,3 3,3 0,0 -2,-1 -3,-2 -2,-2 -3,-3 -3,-3z"/>
  <path class="fil1" d="M47 17c0,0 0,0 0,0 1,0 1,0 1,0 0,1 0,1 0,1 0,1 0,1 0,1 0,0 0,-1 -1,-1 0,-1 0,-1 0,-1z"/>
  <path class="fil1" d="M26 22c0,-1 2,-1 3,0 2,0 3,0 3,0 0,1 -1,1 -3,0 -2,0 -3,0 -3,0z"/>
  <path class="fil1" d="M27 19c0,0 0,0 1,0 0,1 0,1 0,1 0,0 0,0 -1,0 0,0 -1,-1 0,-1z"/>
  <path class="fil1" d="M40 31c-1,0 -1,-1 -1,-3 -1,-1 -1,-2 -1,-2 1,0 1,1 1,2 1,1 1,2 1,3z"/>
  <path class="fil1" d="M29 29c0,0 1,-1 2,-2 0,0 1,-1 1,-1 1,0 0,1 -1,2 -1,1 -2,1 -2,1z"/>
  <path class="fil1" d="M21 39c-1,0 -1,-1 -1,-3 -1,-2 -1,-4 -1,-4 0,0 1,2 1,4 1,2 1,3 1,3z"/>
  <path class="fil1" d="M24 34c0,0 -1,0 -1,-1 -1,-1 -2,-1 -2,-1 0,-1 1,0 2,1 1,0 2,1 1,1z"/>
  <path class="fil1" d="M9 35c0,0 0,0 2,-1 1,-1 2,-1 2,-1 0,1 -1,1 -2,2 -1,0 -2,0 -2,0z"/>
  <path class="fil1" d="M8 30c0,0 0,0 1,0 1,0 2,0 2,0 0,0 -1,0 -2,0 0,1 -1,0 -1,0z"/>
  <path class="fil1" d="M17 19c0,0 1,2 2,4 1,2 1,3 1,3 0,1 -1,-1 -2,-3 -1,-2 -1,-4 -1,-4z"/>
  <path class="fil1" d="M47 30c0,0 1,0 3,0 1,1 2,1 2,1 0,0 -1,0 -2,0 -2,0 -3,0 -3,-1z"/>
  <path class="fil1" d="M67 38c-1,0 -1,-1 -2,-2 -1,-1 -1,-2 -1,-2 0,0 1,1 2,2 0,1 1,2 1,2z"/>
  <path class="fil1" d="M64 28c0,0 -1,0 -1,1 -1,0 -1,0 -1,0 0,0 0,-1 0,-1 1,0 1,0 2,0z"/>
 </g>
</svg>
