<?xml version="1.0" encoding="UTF-8"?>
<!DOCTYPE svg PUBLIC "-//W3C//DTD SVG 1.1//EN" "http://www.w3.org/Graphics/SVG/1.1/DTD/svg11.dtd">
<!-- Creator: CorelDRAW X7 -->
<svg xmlns="http://www.w3.org/2000/svg" xml:space="preserve" width="25.6326mm" height="29.0331mm" version="1.1" style="shape-rendering:geometricPrecision; text-rendering:geometricPrecision; image-rendering:optimizeQuality; fill-rule:evenodd; clip-rule:evenodd"
viewBox="0 0 539 611"
 xmlns:xlink="http://www.w3.org/1999/xlink">
 <defs>
  <style type="text/css">
   <![CDATA[
    .fil30 {fill:#F7F6F5}
    .fil31 {fill:#F7F5F3}
    .fil38 {fill:#F7F3F1}
    .fil39 {fill:#F7F3F0}
    .fil0 {fill:#F6F0EF}
    .fil1 {fill:#F6EFED}
    .fil37 {fill:#F4F1EF}
    .fil43 {fill:#F4F1ED}
    .fil34 {fill:#F4EFEC}
    .fil41 {fill:#F4EFEA}
    .fil10 {fill:#F4EDEB}
    .fil21 {fill:#F4EDEA}
    .fil44 {fill:#F2EDEB}
    .fil7 {fill:#F2EDE9}
    .fil35 {fill:#F2EBE8}
    .fil140 {fill:#F2EBE6}
    .fil52 {fill:#F2E9E5}
    .fil121 {fill:#F2E8E3}
    .fil91 {fill:#F0EAE6}
    .fil61 {fill:#F0E9E4}
    .fil36 {fill:#EFE8E5}
    .fil15 {fill:#EFE7E3}
    .fil32 {fill:#EFE7E1}
    .fil6 {fill:#EFE6E2}
    .fil5 {fill:#EFE6E1}
    .fil8 {fill:#EFE4DF}
    .fil14 {fill:#EFE4DD}
    .fil20 {fill:#EFE3DF}
    .fil16 {fill:#EFE2DD}
    .fil12 {fill:#EFE2DB}
    .fil19 {fill:#EFE0DA}
    .fil25 {fill:#EEE9E6}
    .fil49 {fill:#EEE6E2}
    .fil46 {fill:#EEE5E1}
    .fil122 {fill:#EDE3DF}
    .fil33 {fill:#EDE3DD}
    .fil104 {fill:#EDE2DD}
    .fil40 {fill:#EDE2DB}
    .fil11 {fill:#EDE0DA}
    .fil102 {fill:#EDDED9}
    .fil134 {fill:#EDDED7}
    .fil131 {fill:#EDDED6}
    .fil101 {fill:#ECDDD5}
    .fil54 {fill:#EDDCD4}
    .fil92 {fill:#EBE5E0}
    .fil71 {fill:#EBE2DF}
    .fil23 {fill:#EBE1DC}
    .fil27 {fill:#EBE1DB}
    .fil18 {fill:#EAE0DA}
    .fil24 {fill:#EBDFDA}
    .fil66 {fill:#EADED7}
    .fil105 {fill:#EADCD6}
    .fil73 {fill:#EADCD5}
    .fil68 {fill:#E9DAD3}
    .fil130 {fill:#E9DAD1}
    .fil45 {fill:#E9D9D0}
    .fil57 {fill:#E8DFDA}
    .fil60 {fill:#E7DCD8}
    .fil17 {fill:#E7DBD4}
    .fil96 {fill:#E7D9D3}
    .fil64 {fill:#E7D9D1}
    .fil78 {fill:#E7D8D2}
    .fil72 {fill:#E7D8D0}
    .fil29 {fill:#E7D6CF}
    .fil81 {fill:#E5D8D1}
    .fil87 {fill:#E5D7D0}
    .fil79 {fill:#E5D7CF}
    .fil74 {fill:#E5D4CB}
    .fil154 {fill:#E4D1C6}
    .fil107 {fill:#E4DEDB}
    .fil97 {fill:#E3D8D1}
    .fil77 {fill:#E3D4CE}
    .fil75 {fill:#E0D4CC}
    .fil110 {fill:#DED7D4}
    .fil55 {fill:#DCCBC4}
    .fil124 {fill:#DAD0CB}
    .fil158 {fill:#DAD0C7}
    .fil76 {fill:#DACFC6}
    .fil144 {fill:#DACFC4}
    .fil56 {fill:#D8C8BD}
    .fil69 {fill:#D7C7BD}
    .fil128 {fill:#D6CFC7}
    .fil113 {fill:#D5CCC5}
    .fil139 {fill:#D4C7BF}
    .fil156 {fill:#D3C2B5}
    .fil90 {fill:#D2C5B8}
    .fil142 {fill:#D0C8C2}
    .fil111 {fill:#D0C6BF}
    .fil85 {fill:#D0C4BA}
    .fil152 {fill:#CFC2B7}
    .fil157 {fill:#CFC0B5}
    .fil127 {fill:#CDC1B9}
    .fil136 {fill:#CDBEB4}
    .fil94 {fill:#CBC0B7}
    .fil117 {fill:#C9C0B7}
    .fil147 {fill:#C7BBB1}
    .fil108 {fill:#C8BBAF}
    .fil80 {fill:#C6B6A7}
    .fil59 {fill:#C5B4A5}
    .fil146 {fill:#C3B5A7}
    .fil86 {fill:#BFB0A2}
    .fil114 {fill:#BDB2A6}
    .fil132 {fill:#BCAC9C}
    .fil65 {fill:#BCAA9C}
    .fil141 {fill:#BAAB9C}
    .fil112 {fill:#B7A99B}
    .fil118 {fill:#B6A89A}
    .fil138 {fill:#B7A898}
    .fil129 {fill:#B4A89B}
    .fil109 {fill:#B4A899}
    .fil123 {fill:#B3A697}
    .fil106 {fill:#B3A696}
    .fil145 {fill:#B2A38F}
    .fil83 {fill:#B2A291}
    .fil89 {fill:#B1A18F}
    .fil137 {fill:#AE9C88}
    .fil84 {fill:#AC9C89}
    .fil151 {fill:#AC9B86}
    .fil143 {fill:#AA9883}
    .fil93 {fill:#A99984}
    .fil135 {fill:#A89580}
    .fil133 {fill:#A38F75}
    .fil115 {fill:#A49580}
    .fil125 {fill:#A3947E}
    .fil100 {fill:#A0917B}
    .fil155 {fill:#9D8B72}
    .fil88 {fill:#9C896F}
    .fil53 {fill:#9C896E}
    .fil70 {fill:#9B886E}
    .fil120 {fill:#99876D}
    .fil149 {fill:#99856A}
    .fil150 {fill:#988369}
    .fil126 {fill:#96846A}
    .fil51 {fill:#958064}
    .fil9 {fill:#938266}
    .fil99 {fill:#938166}
    .fil148 {fill:#917C5E}
    .fil13 {fill:#8F7B60}
    .fil95 {fill:#8E7A5E}
    .fil82 {fill:#8E795B}
    .fil159 {fill:#8D785A}
    .fil63 {fill:#8A775A}
    .fil98 {fill:#8A7657}
    .fil58 {fill:#887454}
    .fil103 {fill:#877152}
    .fil153 {fill:#877150}
    .fil119 {fill:#85704F}
    .fil50 {fill:#85704D}
    .fil62 {fill:#836F4D}
    .fil67 {fill:#816946}
    .fil28 {fill:#806744}
    .fil26 {fill:#7D6543}
    .fil22 {fill:#7D6542}
    .fil48 {fill:#7D6541}
    .fil47 {fill:#7C6340}
    .fil116 {fill:#79623E}
    .fil42 {fill:#79623C}
    .fil4 {fill:#6F552D}
    .fil2 {fill:#6E522C}
    .fil3 {fill:#6D512A}
   ]]>
  </style>
 </defs>
 <g id="Layer_x0020_1">
  <metadata id="CorelCorpID_0Corel-Layer"/>
  <g id="_-2062978280">
   <path class="fil0" d="M86 281c-6,5 -10,11 -15,17 5,1 13,-2 8,9 2,-1 6,-1 6,-4 2,-5 -8,-4 -6,-10 4,-2 8,-3 13,-2 1,4 2,8 0,12 6,-3 13,2 11,8 4,1 7,4 9,8 -2,5 0,13 -6,15 -4,-2 -6,-7 -10,-7 -1,4 0,8 4,10 5,9 -8,12 -6,20 4,9 -6,15 -14,16 -1,6 12,3 9,11 -5,2 -7,-3 -9,-6 -8,0 -4,10 -5,14 6,-3 14,4 11,11 5,-3 7,5 9,9 -2,3 -5,8 0,11 3,1 1,5 2,8 8,-3 -3,-13 2,-18 1,5 8,8 12,4 6,1 3,9 3,13 -4,2 -10,2 -10,7 0,2 -3,7 0,7 8,0 -2,6 1,10 2,3 4,7 8,8 -1,-2 -1,-5 -1,-7 2,-1 7,-5 1,-6 -5,0 -5,-9 0,-9 3,1 5,4 8,5 3,-5 7,-9 9,-14 -1,-5 -6,-9 -5,-14 3,-2 6,-5 9,-8 5,4 10,-3 15,-4 7,-1 1,-13 8,-12 0,5 3,10 4,15 -5,3 -8,6 -6,12 -4,2 -9,4 -14,4 -2,4 -4,8 -4,12 3,-3 4,0 6,3 2,-1 5,-1 8,-2 0,4 -4,9 0,12 6,-2 8,-10 11,-16 -2,-2 -5,-4 -6,-7 4,-7 5,-14 7,-21 0,-2 -2,-4 -2,-5 6,-2 4,9 10,9 4,1 7,-1 9,-4 2,-5 6,-9 10,-12 -1,-5 -6,-9 -2,-13 4,-4 8,2 12,2 1,-2 2,-4 3,-6 4,0 11,3 11,-2 -4,-3 -13,-6 -7,-12 -5,-2 -11,0 -15,-4 0,-5 1,-10 -1,-15 4,-3 4,-8 6,-12 6,-2 5,8 6,10 2,4 3,9 1,14 5,3 11,5 15,9 -4,-7 -1,-14 -3,-21 8,-1 16,-5 23,-8 6,-4 4,-11 8,-17 4,-6 -16,-11 -11,-2 -4,-2 -6,-7 -9,-9 -3,2 -5,4 -7,5 1,-5 1,-10 -1,-15 -1,-5 2,-16 -7,-15 -8,1 -8,-9 -14,-13 -12,5 -9,-9 -18,-11 1,4 2,8 3,12 -6,4 -12,9 -18,13 0,-7 1,-17 -7,-18 -1,3 -2,8 -2,11 -4,-5 -7,-2 -11,1 -5,3 1,-11 -5,-10 -3,-1 -1,4 -2,6 -2,2 3,13 -2,13 -2,-3 -3,-7 -3,-10 0,-4 3,-11 -8,-5 0,1 0,3 -1,5 -5,1 -4,-5 -5,-9 -6,0 -7,7 -8,12 -5,-3 -3,-10 -5,-15 -5,-2 -3,2 -2,4 -9,0 -11,10 -11,16 -2,0 -5,-2 -7,-3z"/>
   <path class="fil0" d="M137 436c-1,7 -9,10 -12,17 6,-1 10,2 9,8 2,-1 5,-3 8,-3 3,1 5,4 7,6 5,-5 6,-11 9,-16 8,1 12,-6 19,-7 7,-4 14,0 22,0 0,-3 0,-5 0,-7 3,3 4,8 8,11 5,-2 7,-7 8,-12 5,2 8,-1 10,-5 2,0 4,2 6,2 6,-1 9,5 13,8 6,0 11,0 17,0 1,1 1,4 2,6 2,-2 4,-5 8,-4 6,2 7,-7 8,-11 3,-1 6,2 8,5 -1,3 -4,4 -6,6 -3,4 2,13 -5,13 -6,1 -12,9 -8,15 6,2 6,-4 5,-9 6,0 13,1 15,7 -5,0 -12,1 -14,8 3,-1 5,-1 8,-2 0,4 -3,6 -5,9 2,3 5,5 4,10 -5,2 -10,3 -13,8 1,1 3,1 5,2 4,1 5,-4 7,-7 3,0 8,3 10,0 0,-7 -3,-14 3,-19 3,-5 9,0 13,0 0,-3 -8,-5 -4,-8 5,-3 -4,-9 1,-12 4,-1 0,-7 4,-9 -2,-1 -4,-2 -6,-2 0,3 -1,5 -1,7 -6,1 -4,-9 -5,-11 3,-1 5,-1 7,-1 0,-3 -2,-7 -4,-8 -2,3 -3,8 -8,7 1,-4 -1,-16 7,-16 1,4 -2,11 8,8 3,1 4,5 8,7 9,-1 17,-8 27,-8 1,2 2,3 3,5 -1,3 -8,8 -1,7 8,1 14,-7 22,-5 13,-6 8,3 6,8 -1,4 7,8 2,10 -5,3 -6,-4 -7,-8 -5,0 -11,-1 -14,4 -5,1 -3,5 -3,8 -5,1 -5,-5 -9,-5 -1,2 -1,5 -1,7 -8,0 -1,-9 -7,-12 -3,1 -6,4 -9,5 -1,-6 -7,-8 -11,-12 -1,3 -2,5 -2,8 3,2 8,6 11,8 4,2 11,3 10,9 -8,-4 -11,9 -9,14 3,4 9,1 12,-2 0,-2 1,-5 1,-8 4,0 7,3 8,6 -6,1 -9,6 -9,11 3,-2 7,-6 10,-8 3,2 5,3 7,5 -2,4 -5,7 -3,12 2,1 4,2 6,2 1,2 -3,7 1,7 8,0 5,-11 4,-15 2,-7 -5,-9 -6,-15 5,2 13,13 9,-3 3,3 6,8 12,8 13,-5 8,3 6,7 -3,0 -5,0 -8,-1 -2,3 -5,6 -7,8 3,4 6,7 7,12 -3,0 -6,-1 -9,-1 0,3 1,7 2,11 2,0 5,-2 6,1 4,7 6,14 7,21 2,-4 3,-8 8,-9 7,-1 7,-12 17,-7 2,2 1,7 5,7 4,1 -2,-6 1,-5 4,0 15,5 14,-2 7,0 10,-11 2,-14 -6,-6 -9,2 -13,4 0,-3 -1,-5 -1,-7 -4,-2 -1,5 -5,5 -6,1 -2,-6 -1,-8 4,-3 0,-8 3,-11 5,-2 7,4 11,2 3,0 7,-2 8,-5 1,-3 1,-7 5,-6 0,3 -1,6 -1,8 3,5 13,3 7,-6 19,-7 1,18 13,19 0,-3 0,-6 2,-9 5,-1 5,6 5,9 -2,2 -6,3 -5,7 1,2 6,3 5,7 -7,1 -8,-7 -12,-11 -4,2 -8,4 -12,6 4,4 2,9 0,13 2,4 5,7 6,11 7,1 14,1 22,0 19,3 37,-4 56,-4 8,-2 15,-2 22,0l0 -9c0,-4 -1,-7 -3,-10 -9,-2 -18,0 -27,-1 -3,-1 -3,6 -6,4 -6,-2 1,-8 2,-12 -2,-3 -5,-7 -9,-5 -4,1 -4,-3 -3,-6 -3,1 -8,3 -9,-1 -4,-3 -2,-12 3,-10 1,4 3,8 7,9 -2,-5 3,-8 4,-12 -6,0 -15,-4 -17,3 -3,-2 -5,-7 -10,-7 0,2 -1,4 -1,6 -1,-7 -9,-11 -8,-18 6,-2 9,9 13,2 1,-8 -2,-19 -8,-26 -2,1 -3,3 -5,4 -7,-8 -11,-19 -20,-25 0,-8 0,-17 5,-23 5,-1 8,-4 6,-9 -7,4 -9,-2 -10,-6 -4,0 -12,4 -7,-7 -1,-4 -3,-5 -6,-6 -7,7 5,13 3,20 -4,-1 -10,-3 -9,4 -6,1 -10,-4 -12,-8 -5,-1 -14,9 -15,0 6,0 5,-9 12,-8 2,1 2,-5 0,-5 -5,-1 -10,-2 -16,-3 -5,0 -6,13 -12,6 0,-6 3,-13 0,-20 -2,-4 -2,-9 -1,-13 1,-4 4,0 7,1 -1,-2 -1,-5 -2,-7 -7,1 -7,8 -11,12 -2,1 -4,1 -6,2 1,6 5,13 1,19 -3,-3 -5,-5 -8,-8 -1,-5 0,-11 -2,-16 -9,8 -12,21 -18,31 -2,3 -4,-1 -6,-2 0,-5 0,-13 0,-17 -6,0 -8,5 -6,10 -4,-1 -8,-1 -13,0 -2,-3 -4,-5 -5,-8 3,-6 6,-12 5,-19 -9,-4 -16,4 -19,12 -5,0 -8,-3 -12,-4 -1,-4 3,-7 5,-10 -4,-2 -8,-4 -12,-7 -3,1 -6,4 -10,3 -2,-2 -3,-4 -4,-6 2,-4 6,-7 5,-12 -3,-5 -7,3 -10,0 -8,-3 -19,-1 -23,-10 -4,-8 -15,-12 -13,-23 -3,0 -8,1 -11,1 9,-1 6,10 7,15 2,5 2,10 1,15 2,-1 4,-3 7,-5 3,2 5,7 9,9 -5,-9 15,-4 11,2 -4,6 -2,13 -8,17 -7,3 -15,7 -23,8 2,7 -1,14 3,21 -4,-4 -10,-6 -15,-9 2,-5 1,-10 -1,-14 -1,-2 0,-12 -6,-10 -2,4 -2,9 -6,12 2,5 1,10 1,15 4,4 10,2 15,4 -6,6 3,9 7,12 0,5 -7,2 -11,2 -1,2 -2,4 -3,6 -4,0 -8,-6 -12,-2 -4,4 1,9 2,13 -4,3 -8,7 -10,12 -2,3 -5,5 -9,4 -6,0 -4,-11 -10,-9 0,1 2,3 2,5 -2,7 -3,14 -7,21 1,3 4,5 6,7 -3,6 -5,14 -11,16 -4,-3 0,-8 0,-12 -3,1 -6,1 -8,2 -2,-3 -3,-6 -6,-3z"/>
   <path class="fil0" d="M167 185c-4,2 -12,1 -6,10 3,-1 7,-2 10,-2 -3,7 2,11 5,17 4,2 9,2 14,1 0,4 0,9 0,13 -7,1 -6,-10 -13,-10 -5,4 1,9 3,13 -2,3 -5,7 -2,10 1,3 5,3 7,5 -2,4 -7,8 -7,13 0,1 1,3 2,3 9,2 6,16 18,11 6,4 6,14 14,13 3,0 8,-1 11,-1 -2,11 9,15 13,23 4,9 15,7 23,10 3,3 7,-5 10,0 1,5 -3,8 -5,12 1,2 2,4 4,6 4,1 7,-2 10,-3 4,3 8,5 12,7 -2,3 -6,6 -5,10 4,1 7,4 12,4 3,-8 10,-16 19,-12 1,7 -2,13 -5,19 1,3 3,5 5,8 5,-1 9,-1 13,0 -2,-5 0,-10 6,-10 0,4 0,12 0,17 2,1 4,5 6,2 6,-10 9,-23 18,-31 2,5 1,11 2,16 3,3 5,5 8,8 4,-6 0,-13 -1,-19 2,-1 4,-1 6,-2 4,-4 4,-11 11,-12 1,2 1,5 2,7 3,3 13,4 6,-6 -3,-3 -5,-7 -7,-10 -5,-2 -9,-4 -14,-4 -3,-2 -6,-4 -10,-6 -3,1 -5,5 -8,7 -4,-2 -8,-7 -13,-6 -5,-4 2,-11 -4,-15 -4,-3 -4,-7 -3,-11 -3,-3 -7,-1 -11,-1 -3,-3 -5,-6 -8,-9 -6,-3 1,9 -4,10 -6,4 -4,-8 -5,-11 0,5 -2,10 -4,15 3,0 8,-3 10,1 -3,7 -6,14 -9,22 -8,-4 -2,-13 -3,-20 -2,-1 -4,-2 -6,-2 -3,3 -4,8 -6,12 -5,-2 -7,-7 -12,-10 -5,3 -15,1 -12,11 -1,4 -5,2 -8,2 -2,-2 -2,-5 -2,-8 -4,2 -9,5 -13,5 4,-13 -14,-11 -15,-21 3,0 5,0 7,0 0,-3 -4,-12 -5,-5 -8,-4 -8,-12 -14,-17 -4,-4 3,-7 5,-4 5,5 7,11 11,16 0,-6 -2,-11 -2,-17 5,-1 15,-10 15,-1 6,2 14,3 20,-1 1,2 1,5 2,8 3,4 11,1 5,10 0,2 0,7 0,9 3,-1 10,-2 14,-3 -2,3 -5,4 -6,7 1,5 7,3 11,3 2,-7 7,-12 12,-17 3,-1 3,3 5,5 0,-3 2,-5 3,-8 0,-4 0,-17 8,-14 1,10 14,11 17,20 8,-1 6,8 10,12 3,1 8,0 6,4 3,8 -7,12 -3,20 2,4 6,0 8,-2 3,-6 0,-15 2,-22 9,3 7,15 12,21 1,0 3,-1 4,-2 -1,-10 -4,-20 -8,-29 1,-6 0,-15 -8,-15 -2,7 8,12 4,19 -2,9 -15,0 -13,-7 1,-2 5,-7 1,-9 -6,-3 -12,-7 -10,-16 -7,1 -12,-4 -8,-12 7,3 12,8 14,15 1,7 17,0 10,-5 -8,-6 1,-18 9,-17 -1,-4 -3,-6 -5,-10 0,-2 1,-5 1,-8 -4,-1 -8,-3 -12,-5 -4,-1 -5,4 -8,7 -3,2 -8,8 -12,3 -1,-7 2,-15 -2,-22 -4,0 -11,-1 -8,-7 5,-1 7,-7 11,-7 2,2 6,7 8,10 3,1 7,-1 6,-4 -9,-1 -6,-12 -10,-18 -8,-2 -4,15 -15,8 -2,-4 -3,-8 -4,-12 -4,1 -7,3 -10,4 1,6 4,11 3,17 -3,1 -5,-2 -7,-5 -8,-3 -4,10 -8,13 -3,0 -7,-2 -9,1 1,6 9,4 12,9 -1,3 2,12 -3,11 -6,1 -5,-6 -7,-10 -5,2 -8,6 -13,5 -6,-8 7,-13 6,-21 -1,-6 -6,-12 -4,-19 0,-3 6,-16 -2,-15 -2,7 -6,11 -9,17 2,2 5,3 8,4 -1,2 -2,6 -5,7 -4,1 -6,-4 -9,-6 -3,2 -5,7 -10,5 -4,-4 -7,-10 -11,-15 -10,-6 -8,2 -7,6 2,5 8,8 4,14 -3,4 -9,7 -8,13 2,-1 5,-3 8,-4 5,9 11,23 0,30 -4,-2 -5,-8 -8,-12 -4,-1 -7,-5 -11,-7 -4,1 -2,6 -2,10 -2,0 -4,0 -6,0 -3,4 1,10 -3,12 -4,3 1,6 1,9 1,3 -5,6 -6,3 -1,-7 0,-14 2,-20 -2,-2 -3,-4 -5,-6 3,-3 7,-1 11,-1 3,-1 3,-4 2,-7 3,-2 6,-3 10,-4 4,-3 -3,-16 -5,-7 -2,4 -4,9 -9,7 -7,-1 -1,-11 -1,-15 8,4 9,-4 12,-9 2,0 6,2 8,0 -2,-3 -6,-5 -7,-8 -3,-9 -15,-1 -12,6 -5,2 -5,-6 -10,-5 -4,9 6,24 -7,26 1,-6 3,-12 -2,-17 -3,1 -5,4 -7,7 -4,-2 -7,-6 -11,-5z"/>
   <path class="fil1" d="M219 260c-2,-3 -9,0 -5,4 6,5 6,13 14,17 1,-7 5,2 5,5 -2,0 -4,0 -7,0 1,10 19,8 15,21 4,0 9,-3 13,-5 0,3 0,6 2,8 3,0 7,2 8,-2 -3,-10 7,-8 12,-11 5,3 7,8 12,10 2,-4 3,-9 6,-12 2,0 4,1 6,2 1,7 -5,16 3,20 3,-8 6,-15 9,-22 -2,-4 -7,-1 -10,-1 2,-5 4,-10 4,-15 -2,-2 -2,-6 -5,-5 -5,5 -10,10 -12,17 -4,0 -10,2 -11,-3 1,-3 4,-4 6,-7 -4,1 -11,2 -14,3 0,-2 0,-7 0,-9 6,-9 -2,-6 -5,-10 -1,-3 -1,-6 -2,-8 -6,4 -14,3 -20,1 0,-9 -10,0 -15,1 0,6 2,11 2,17 -4,-5 -6,-11 -11,-16z"/>
   <path class="fil2" d="M469 84c-9,14 -17,28 -25,43 -3,4 -3,11 -9,13 -7,9 -13,18 -19,27 -1,2 -2,5 -4,6l0 0c-1,4 -2,6 -6,8 -8,8 -15,18 -25,25 -4,3 -7,6 -10,10l0 0c0,1 -1,1 -2,2l0 0c0,1 -1,1 -2,2 0,1 -1,1 -1,1 -1,1 -1,1 -1,2 -1,0 -1,0 -1,1 -1,0 -1,1 -1,1 -1,0 -1,1 -1,1 0,1 -1,1 -1,2 -1,2 -2,4 -4,4 -4,-2 -3,-5 -2,-8 0,0 1,0 1,-1 0,0 0,0 0,-1 1,0 1,-1 2,-2 0,0 0,0 0,-1 1,0 1,-1 2,-1 0,0 1,-1 1,-1 0,0 1,-1 1,-1 1,-1 1,-1 1,-1 1,-1 1,-1 2,-2 0,0 0,0 0,0 1,-1 1,-1 2,-2 0,0 0,0 0,-1 1,0 1,-1 1,-2 1,-1 2,-2 3,-4 10,-10 19,-21 28,-32 3,-3 6,-7 8,-11 6,-9 13,-17 19,-26 1,-2 1,-3 2,-4 1,-1 1,-2 2,-3 2,-3 5,-7 6,-10 8,-14 15,-27 23,-40 3,-4 5,-8 7,-11 1,-1 1,-2 2,-3 1,0 1,-1 2,-2 2,-3 4,-7 7,-10 -6,2 -11,5 -17,7 -5,2 -11,4 -17,6 -14,3 -27,6 -41,8 -6,0 -12,2 -18,2 -12,-1 -24,1 -36,0 -7,-3 -14,-2 -20,-2 -2,-1 -3,-1 -4,-1 -2,-1 -6,-1 -9,-2 -19,-4 -38,-8 -56,-16 -8,-4 -9,-7 -5,-15 17,-2 34,0 52,-1 4,0 8,0 12,-1 10,-1 20,-1 29,-3 7,0 13,0 20,-1 2,0 4,-1 6,-1 7,0 13,1 20,-1 1,0 3,0 5,0 12,-1 25,-2 37,-4 18,-2 37,-3 55,-6 10,-1 19,-5 28,-11 6,-4 12,-11 21,-10 0,3 0,7 0,10 -10,9 -21,15 -30,24 -12,12 -21,25 -31,39 -3,3 -5,8 -9,11z"/>
   <path class="fil3" d="M366 280c-2,13 3,25 9,36 7,6 9,16 15,23 1,2 2,4 3,5 0,1 1,2 1,2 1,2 2,3 3,4 5,6 9,13 14,19 3,2 4,5 7,8 20,23 45,39 67,60 5,6 9,11 9,19l0 0c2,3 2,7 0,11 -2,2 -4,4 -7,1 -1,-13 -9,-21 -18,-29 -1,-1 -1,-2 -2,-2 -1,-1 -1,-1 -2,-2 -12,-9 -23,-18 -34,-27 -3,-3 -6,-5 -9,-8 -16,-16 -31,-34 -43,-54 -1,-1 -2,-3 -3,-4 0,-1 -1,-2 -1,-2 -2,-4 -4,-7 -5,-10 0,3 1,6 1,10 1,2 1,5 1,8 0,1 -1,3 -1,4 -1,0 -2,1 -2,1 -1,0 -1,0 -1,0 0,0 -1,0 -1,-1 1,4 1,8 1,12 0,9 -2,18 -2,28 -2,4 -2,9 -1,14 0,1 0,2 0,2 0,1 0,2 0,3 0,1 0,3 -1,4 -4,3 -3,8 -5,12 0,2 -2,4 -2,7 0,1 0,2 0,3 0,2 -1,4 -2,6 -1,3 -1,6 -2,9 -1,2 -1,3 -1,4 -2,7 -5,13 -4,20 1,1 1,3 2,5 1,3 0,6 1,9 0,1 0,2 1,3 0,1 1,3 1,4 0,1 1,2 1,2 1,2 1,4 2,6 0,1 1,1 1,2 0,1 1,2 1,3 1,1 1,1 1,2 1,0 1,1 2,1 0,1 0,1 1,2 0,1 1,3 2,4 0,1 1,3 2,4 2,1 3,2 5,3 4,3 8,4 12,7 3,2 5,2 7,0 3,-5 4,-10 5,-15 0,-1 0,-2 0,-3 2,-3 1,-7 0,-10 -5,-22 -15,-43 -17,-66 -1,-1 -1,-3 -2,-4 -1,-2 -1,-3 -3,-4 0,0 -1,-1 -2,-2 -1,0 -2,-1 -2,-2 -1,-1 -2,-1 -3,-2 0,-1 -1,-2 -1,-3 -1,-1 -2,-2 -2,-4 -1,-1 -1,-2 0,-3 1,0 1,-1 2,-1 1,0 1,0 2,1 1,0 1,1 2,1 0,1 1,2 1,3 0,0 1,1 1,1 1,1 1,1 2,2 0,0 0,0 0,0 2,1 3,2 4,3 1,0 1,0 2,1 0,0 1,1 2,1 0,0 0,1 1,1 0,0 1,1 2,1 4,3 10,4 12,11 0,2 -2,3 -3,4 -4,9 3,15 4,23 2,10 4,20 6,30 2,9 3,19 1,28 -1,5 0,11 -6,14 -6,6 -13,6 -20,2 -3,-2 -7,-3 -10,-4l0 0c-3,-1 -5,-4 -7,-5 -4,-2 -5,-6 -7,-10 -3,-6 -6,-11 -9,-16 -3,-1 -1,-4 -3,-6l0 0c-1,-2 0,-4 -1,-6l0 0c-2,-1 -2,-2 -2,-3 0,-1 1,-2 0,-3 0,1 0,2 -1,2 0,1 0,2 -1,3 -1,1 -2,2 -3,3l1 0c-2,1 -1,3 -2,5 -1,2 -2,4 -5,5l1 0c-1,1 -1,1 -2,2 -3,4 -5,8 -8,12 -8,9 -16,17 -25,25 -1,0 -2,1 -2,2 -1,0 -2,1 -2,2l0 0c-1,0 -1,1 -3,1l1 1 -1 -1c0,4 -5,3 -7,5 -4,2 -8,3 -12,5 -4,3 -9,2 -13,0 -1,-1 -2,-2 -4,-2 -4,0 -7,-3 -10,-5l0 0c-7,-2 -10,-8 -12,-14 -2,-5 -5,-10 -7,-16 -4,-4 -6,-9 -6,-15l0 0c-1,-1 -2,-2 -2,-2 -1,-4 -3,-7 -5,-11 -4,2 -3,7 -6,9 -2,1 -2,3 -3,4l0 0c0,1 -1,1 -1,2l0 0c-1,0 -2,1 -2,2l0 0c-1,0 -2,1 -2,2l0 0c-1,0 -2,1 -2,2l0 0c-1,1 -2,1 -3,1 -1,0 -2,-1 -2,-2 0,-1 0,-2 1,-3 0,0 1,-1 1,-1 0,-1 1,-1 1,-2 1,0 1,0 1,0 1,-1 1,-1 2,-2 0,0 0,0 0,-1 1,0 1,-1 1,-2 0,0 1,0 1,-1 0,-1 0,-3 1,-5 3,-9 3,-18 0,-28 -3,-16 -3,-32 1,-49 3,-19 10,-36 20,-53 9,-19 22,-36 35,-53 3,-5 7,-9 10,-14 3,-3 5,-7 8,-11 10,-12 22,-23 33,-35l0 0 0 0c-5,5 -10,11 -16,15 -8,3 -12,10 -18,15 -1,1 -3,3 -5,4 -3,4 -7,8 -11,12 -3,3 -5,5 -8,8 -1,0 -1,1 -2,2 0,0 -1,1 -2,1 0,0 0,1 0,1 -1,1 -1,1 -2,2 -1,0 -2,1 -2,2 -1,1 -1,1 -2,2 -1,0 -1,1 -2,1 0,0 0,1 0,1 -1,1 -2,1 -2,2 0,0 -1,0 -1,1 -1,0 -1,1 -2,1 -8,6 -16,11 -25,17 -7,4 -13,8 -21,12 -4,2 -8,4 -12,5 -2,2 -5,2 -8,3 -2,0 -3,1 -5,1 -1,1 -1,1 -2,1 -2,0 -3,1 -5,1 -1,1 -1,1 -2,1 -3,0 -5,-1 -6,-3 0,-1 1,-2 1,-2 1,-1 3,-1 4,-2 1,0 1,0 2,-1 1,0 3,-1 4,-2 11,-7 23,-11 33,-18 2,-1 4,-2 6,-4 0,0 1,-1 2,-1 4,-3 8,-6 12,-9 3,-2 6,-4 9,-6 1,0 1,-1 2,-1 1,-1 1,-1 2,-2 3,-1 5,-3 7,-5 4,-4 8,-9 13,-13 3,-3 5,-6 8,-9 13,-12 26,-24 40,-35 1,-1 2,-2 3,-2 1,-1 2,-1 2,-2 1,0 2,-1 2,-1 1,-1 2,-1 2,-1 6,-3 12,-6 18,-6 1,0 1,0 2,0 1,0 3,0 4,0 -1,-1 -3,-1 -4,-1 -4,0 -8,-1 -11,-3 -1,-1 -3,-1 -4,-1 -4,-1 -8,-2 -12,-3 -4,-2 -8,-3 -13,-2 -17,-3 -34,1 -51,5 -5,1 -10,3 -15,5 -2,1 -3,1 -5,2 -12,6 -23,11 -34,18 -2,1 -3,2 -5,2 0,1 -1,1 -2,2 0,0 -1,1 -2,2 -1,0 -1,1 -2,1 -1,1 -2,2 -4,3 -2,2 -4,5 -6,7 -5,4 -10,7 -15,12 -5,3 -10,7 -16,10 -12,5 -25,7 -38,10 -15,3 -29,7 -43,12 -4,1 -9,2 -9,7 0,3 -1,4 -2,6 0,2 1,3 2,4 1,1 3,2 5,3 0,0 0,1 1,2 0,1 0,2 0,3 0,1 1,2 2,2 1,1 2,1 3,2 0,0 1,1 1,2 1,0 1,1 1,2 0,0 0,1 0,1 -1,2 -3,1 -5,0l1 1c-1,-2 -3,-2 -4,-3l0 0c-1,0 -1,-1 -2,-2l0 0c-1,0 -1,-1 -2,-1l0 0c-1,-1 -1,-2 -2,-2l0 0c-1,-1 -1,-2 -3,-2 -1,-1 -3,-2 -4,-3 -5,-6 -8,-13 -2,-21l0 0c0,-4 4,-6 7,-8 24,-12 51,-15 76,-21 6,-1 10,-3 15,-5 4,-2 5,-5 3,-9 -6,-9 -12,-17 -19,-24 -10,-9 -18,-19 -26,-30 -2,-1 -1,-3 -2,-4l0 -1c-3,-2 -4,-5 -4,-9 0,-1 0,-1 0,-2 -2,-3 0,-7 -2,-10l0 0c-3,-3 -3,-7 -3,-12 1,-1 1,-2 1,-3 4,-23 17,-37 39,-45 9,-3 16,-2 23,4 7,6 13,11 20,16 14,11 30,20 46,29 3,1 5,3 8,4 1,0 2,0 3,1 1,0 2,1 3,1 1,0 2,1 2,1 4,2 7,4 11,5 2,0 3,1 5,2 2,1 4,1 6,2 1,0 1,0 2,1 12,4 25,6 37,8 3,1 6,2 8,2 1,0 2,1 3,1 5,1 10,0 16,0 14,0 28,0 42,0 4,0 7,1 10,2 3,2 6,3 8,5 -1,2 -4,5 0,8 6,2 6,7 6,12 1,12 2,24 2,36z"/>
   <path class="fil4" d="M151 524c-14,-4 -23,-14 -30,-25 -8,-12 -18,-19 -31,-22 -5,-2 -11,1 -14,-5 -3,-3 -7,-5 -8,-9 -4,-11 -4,-22 -4,-32 1,-3 -1,-6 2,-9 2,-4 4,-9 6,-13 1,-5 4,-9 8,-12 10,-8 18,-18 31,-23 -3,-3 -3,-3 -8,-3 -2,-1 -6,0 -3,-4 2,-2 4,-2 7,-2 4,0 7,0 11,0 4,1 6,4 4,8 -2,5 -7,8 -10,12 -7,3 -12,7 -17,13 -1,0 -1,1 -2,2 0,0 0,0 -1,0 -3,3 -6,6 -8,10 -4,6 -7,13 -9,21 -1,3 0,6 -1,9 0,5 0,10 2,15 1,2 2,4 4,5 2,2 3,3 5,3 1,1 1,1 2,1 2,1 4,1 6,2 3,1 7,2 10,4 6,2 11,4 15,8 1,1 2,2 2,2 1,1 2,1 2,2 5,6 8,14 14,20 2,2 5,4 7,6 2,2 5,1 7,1 1,0 2,1 3,2 -2,3 0,4 2,5 2,1 4,1 7,1 1,0 2,0 3,0 3,0 6,0 9,-1 0,0 1,0 2,0 2,0 4,-1 6,-1 1,-1 1,-1 2,-1 2,0 3,0 5,2l0 0c0,0 0,0 0,1 0,0 0,1 -1,2 -1,0 -2,1 -3,1 -1,0 -1,1 -2,1 -2,0 -4,-1 -6,1l0 0c-2,1 -6,-1 -8,2 0,0 -1,0 -1,0 -6,1 -12,1 -17,0z"/>
   <path class="fil5" d="M57 388c-3,1 -4,-1 -5,-4 -2,-3 -4,-7 -6,-10 -1,-2 -1,-4 2,-5 2,-2 5,-1 5,1 2,5 3,8 8,9 3,0 5,4 4,6 -1,4 -5,2 -8,3z"/>
   <path class="fil6" d="M48 259c-2,-7 2,-15 9,-17 1,0 3,0 5,-1 5,-2 8,-1 9,3 1,5 -3,5 -7,5 -2,2 -5,1 -8,3 -4,1 -4,4 -5,7 -1,1 -2,1 -3,0z"/>
   <path class="fil7" d="M6 325c7,-2 7,-2 7,-12 3,3 2,6 2,8 1,4 3,2 5,2 -1,7 -2,15 2,21 -1,0 -3,-1 -3,-2 -2,-5 -5,-8 -11,-9 -5,-1 -2,-5 -2,-8z"/>
   <path class="fil8" d="M76 471c4,2 9,4 14,6 -4,0 -6,1 -7,5 -2,7 -4,7 -11,3 -2,-2 -1,-5 -3,-6 0,-1 0,-2 0,-3 0,-2 3,-2 5,-3l0 0c0,-1 1,-2 2,-2z"/>
   <path class="fil9" d="M99 368c4,3 8,1 12,2 2,0 3,0 3,2 -1,1 -2,2 -3,2 -3,-4 -6,-2 -9,-2 -12,0 -23,0 -35,-4 2,-3 5,-3 7,-4 9,-1 17,-1 25,4z"/>
   <path class="fil10" d="M56 251c1,-7 6,-1 8,-2 1,4 -2,8 4,10 2,0 0,8 -2,9 -1,1 -2,0 -3,-1 -2,-2 -3,-4 -5,-6 0,-1 0,-1 0,-1 2,-4 -3,-6 -2,-9z"/>
   <path class="fil5" d="M70 477c0,0 0,1 0,2 0,1 -1,1 -2,2 -2,3 -3,6 -5,9 -4,-3 -6,-5 -2,-9 2,-2 5,-5 1,-8 -1,-1 -3,-2 -2,-4 2,-2 4,-1 6,0l0 0c1,1 1,1 2,2l0 0c2,2 1,4 2,6z"/>
   <path class="fil5" d="M105 606c-1,4 -3,5 -7,5 -3,0 -4,-2 -4,-5 0,-3 4,-7 6,-6 4,0 4,3 5,6z"/>
   <path class="fil11" d="M89 568c-3,0 -7,-3 -7,-6 1,-2 2,-5 5,-5 3,0 6,2 6,6 0,3 -2,4 -4,5z"/>
   <path class="fil8" d="M85 278c0,5 -2,8 -6,8 -2,0 -4,-1 -4,-3 0,-3 5,-9 8,-9 2,0 2,2 2,4z"/>
   <path class="fil8" d="M66 422c0,3 0,6 -2,9 -2,-4 -6,-2 -8,-4 -2,-2 -4,-3 -2,-6 1,-3 4,-3 6,-1 2,2 4,2 6,2z"/>
   <path class="fil8" d="M43 430c-3,-1 -6,-2 -6,-6 1,-3 4,-4 7,-4 4,1 5,3 4,6 0,3 -2,4 -5,4z"/>
   <path class="fil12" d="M11 345c-1,2 -1,5 -4,4 -3,0 -7,0 -7,-4 0,-3 3,-5 6,-6 2,0 5,4 5,6z"/>
   <path class="fil6" d="M25 391c-4,0 -5,-2 -5,-5 0,-3 2,-4 5,-4 2,0 5,0 5,3 0,4 -3,5 -5,6z"/>
   <path class="fil7" d="M49 477c-2,-1 -2,-3 -2,-4 0,-5 3,-11 -3,-14 -1,-1 -1,-2 0,-2 0,-1 1,-1 2,-1 3,1 6,2 6,6 -1,3 2,5 2,7 0,0 0,1 0,1 -2,2 -3,5 -5,7z"/>
   <path class="fil8" d="M49 590c-4,0 -5,-3 -6,-6 0,-3 2,-4 5,-4 3,1 6,1 6,5 0,3 -2,4 -5,5z"/>
   <path class="fil13" d="M74 366c-2,2 -4,2 -7,2 -6,0 -12,-3 -17,-6 1,-2 3,-3 5,-3 7,0 14,1 19,7z"/>
   <path class="fil8" d="M68 499c1,-3 3,-4 6,-4 3,0 4,3 4,6 0,3 -2,4 -4,4 -4,0 -5,-3 -6,-6z"/>
   <path class="fil14" d="M14 411c0,-3 1,-5 4,-6 3,0 5,2 5,5 0,3 -1,4 -4,4 -3,1 -5,0 -5,-3z"/>
   <path class="fil15" d="M70 212c2,3 4,6 4,9 -2,1 -3,6 -6,2 -3,-3 -5,-6 -1,-9 1,-1 2,-1 3,-2z"/>
   <path class="fil16" d="M23 452c-3,0 -5,-1 -6,-4 0,-3 1,-5 4,-5 3,-1 5,2 6,5 0,3 -2,4 -4,4z"/>
   <path class="fil8" d="M61 549c-3,-1 -6,-2 -5,-5 0,-3 3,-5 5,-5 3,1 5,3 5,6 -1,2 -3,4 -5,4z"/>
   <path class="fil17" d="M80 397c-2,5 -5,8 -8,12 0,-3 -2,-5 -4,-7 -2,-3 0,-4 3,-5 3,0 6,2 9,0z"/>
   <path class="fil18" d="M216 508c3,5 4,10 6,15 -3,0 -4,-3 -5,-5 -3,-3 -3,-3 -9,-3 0,-5 6,-4 8,-7z"/>
   <path class="fil19" d="M74 261c1,-3 3,-4 5,-5 3,0 4,2 4,4 1,3 0,6 -3,6 -3,0 -5,-2 -6,-5z"/>
   <path class="fil20" d="M0 377c0,-3 2,-3 5,-3 3,0 5,2 4,5 0,2 -1,4 -4,4 -3,-1 -5,-2 -5,-6z"/>
   <path class="fil16" d="M96 263c0,3 -2,3 -4,4 -3,0 -5,-2 -4,-5 0,-2 1,-5 3,-4 3,0 5,2 5,5z"/>
   <path class="fil21" d="M41 404c4,0 6,4 9,2 3,0 2,2 2,4 -1,2 -4,3 -6,2 -3,-1 -6,-4 -5,-8z"/>
   <path class="fil22" d="M54 360c0,2 -2,2 -4,2 -4,-1 -8,-2 -12,-6 2,0 4,0 5,-2 6,-2 10,0 11,6z"/>
   <path class="fil8" d="M39 398c-1,3 -3,5 -6,5 -2,0 -3,-1 -4,-3 0,-1 5,-6 7,-6 2,1 2,2 3,4z"/>
   <path class="fil8" d="M60 564c-3,-1 -6,-1 -6,-5 0,-2 2,-2 4,-2 3,0 6,-1 6,3 0,2 -2,4 -4,4z"/>
   <path class="fil10" d="M64 579c-2,1 -3,-1 -5,-3 -1,-2 -1,-4 1,-6 1,-1 2,-2 3,0 2,2 1,5 3,7 1,1 0,2 -2,2z"/>
   <path class="fil23" d="M328 506c1,-3 2,-5 4,-6 1,4 5,0 6,2l0 0c2,2 2,4 0,6 -4,4 -6,-1 -10,-2z"/>
   <path class="fil16" d="M104 500c1,-3 2,-4 5,-3 2,0 3,1 3,4 -1,2 -3,3 -5,3 -2,-1 -3,-2 -3,-4z"/>
   <path class="fil24" d="M64 201c-4,-7 1,-10 4,-14 0,4 0,9 0,13 -1,0 -3,0 -4,1z"/>
   <path class="fil7" d="M27 315c-2,3 -5,6 -7,8 -1,-2 -1,-5 -2,-8 4,-3 6,1 9,0z"/>
   <path class="fil7" d="M66 469c-2,0 -6,-1 -4,4 -3,0 -5,1 -8,2 -1,-2 -1,-4 0,-6l0 0c2,1 3,1 5,0 2,-3 5,-3 7,0z"/>
   <path class="fil11" d="M54 469c0,2 0,4 0,6l0 0c0,0 -1,1 -2,2 -1,0 -2,0 -3,0 -1,-4 -1,-9 5,-8z"/>
   <path class="fil7" d="M76 471c-1,0 -2,1 -2,2 -2,-4 -7,-6 -6,-10 3,2 5,5 8,8z"/>
   <path class="fil25" d="M335 496c-1,-2 1,-4 2,-5 0,-1 1,-2 1,-3l0 0c1,0 1,0 2,0 0,0 0,0 0,1 0,1 0,3 1,5 -2,1 -4,2 -6,2z"/>
   <path class="fil25" d="M338 502c-2,0 -5,3 -6,-2 0,-2 1,-3 3,-4 -1,3 2,4 3,6z"/>
   <path class="fil15" d="M68 200c2,3 2,7 2,10 -3,-3 -2,-6 -2,-10z"/>
   <path class="fil7" d="M70 477c-2,-2 -2,-4 -2,-6 2,1 4,1 6,2 -2,1 -3,3 -4,4z"/>
   <path class="fil7" d="M68 481c1,-1 1,-2 2,-2 2,1 2,3 2,6 -1,-2 -3,-3 -4,-4z"/>
   <path class="fil25" d="M342 500c2,2 3,4 3,6 -3,-1 -3,-4 -3,-6z"/>
   <path class="fil25" d="M341 494c1,2 2,4 1,6 -2,-1 -2,-4 -1,-6z"/>
   <path class="fil25" d="M338 508c0,-2 0,-4 0,-6 3,2 3,4 0,6z"/>
   <path class="fil15" d="M74 222c2,0 2,2 2,4 -2,-1 -2,-3 -2,-4z"/>
   <path class="fil26" d="M200 508c0,-2 1,-3 3,-4 0,2 -1,3 -3,4z"/>
   <path class="fil22" d="M35 354c2,0 3,1 4,3 -2,0 -3,-1 -4,-3z"/>
   <path class="fil18" d="M214 506c1,0 2,1 2,2 -1,0 -2,-1 -2,-2z"/>
   <path class="fil22" d="M31 351c1,0 2,0 2,1 -1,0 -2,0 -2,-1z"/>
   <path class="fil22" d="M33 352c1,1 2,1 2,2 -1,0 -2,0 -2,-2z"/>
   <path class="fil7" d="M52 477c1,-1 2,-1 2,-2 0,1 -1,1 -2,2z"/>
   <path class="fil22" d="M26 347c2,0 2,1 3,2 -1,0 -2,-1 -3,-2z"/>
   <path class="fil7" d="M68 471c-1,-1 -1,-1 -2,-2 1,1 1,1 2,2z"/>
   <path class="fil23" d="M327 508c0,-1 0,-2 2,-2 0,1 -1,2 -2,2z"/>
   <path class="fil22" d="M29 349c1,0 2,0 2,2 -1,0 -2,-1 -2,-2z"/>
   <path class="fil26" d="M195 514c0,-1 1,-2 2,-2 0,1 -1,2 -2,2z"/>
   <path class="fil26" d="M197 512c0,-1 1,-2 2,-2 0,1 -1,2 -2,2z"/>
   <path class="fil26" d="M199 510c0,-1 0,-2 1,-2 0,1 0,2 -1,2z"/>
   <path class="fil27" d="M366 280c-3,-7 -4,-15 -4,-22 -1,-9 0,-18 -4,-26 0,-3 0,-5 2,-6 1,-1 1,-2 2,-2l0 0c0,-1 1,-2 2,-2l0 0c0,-1 1,-2 2,-2l0 1c1,-2 2,-2 3,-2 -1,4 -1,9 -1,13 0,16 0,32 0,48 -1,0 -2,0 -2,0z"/>
   <path class="fil28" d="M371 216c2,-5 5,-8 10,-10 -3,4 -6,7 -10,10z"/>
   <path class="fil27" d="M368 284c0,-1 0,-2 0,-4 2,2 2,3 0,4z"/>
   <path class="fil28" d="M369 219c-1,1 -2,1 -3,2 0,-2 2,-3 3,-3 0,0 0,1 0,1z"/>
   <path class="fil28" d="M369 218c1,-1 1,-2 2,-2 0,1 0,2 -2,2z"/>
   <path class="fil28" d="M350 222c3,0 5,0 7,0 1,0 1,1 1,2 -3,0 -6,1 -8,-2z"/>
   <path class="fil28" d="M357 222c1,-2 2,-2 3,-2 -1,1 -1,2 -3,2z"/>
   <path class="fil28" d="M362 224c0,1 -1,2 -2,2 0,-1 1,-2 2,-2z"/>
   <path class="fil28" d="M360 220c0,-1 1,-2 2,-2 -1,1 -1,2 -2,2z"/>
   <path class="fil28" d="M362 218c0,-1 1,-2 2,-2 0,1 -1,2 -2,2z"/>
   <path class="fil28" d="M366 220c0,2 -1,2 -2,2 0,-1 1,-2 2,-2z"/>
   <path class="fil28" d="M364 222c0,1 -1,2 -2,2 0,-1 1,-2 2,-2z"/>
   <path class="fil28" d="M364 216c0,-1 1,-2 2,-2 0,1 -1,2 -2,2z"/>
   <path class="fil28" d="M366 214c0,-1 1,-2 2,-2 -1,1 -1,2 -2,2z"/>
   <path class="fil28" d="M368 212c0,-1 0,-2 2,-2 -1,1 -1,2 -2,2z"/>
   <path class="fil23" d="M389 341c-6,-8 -10,-17 -14,-25 1,-2 1,-5 4,-2 5,5 11,10 16,17 1,0 1,1 2,2 0,1 0,1 0,2 -1,4 -3,7 -8,6z"/>
   <path class="fil29" d="M389 341c2,-2 5,-4 8,-6 2,2 5,4 8,6 -5,1 -9,4 -13,6 -2,-2 -3,-4 -3,-6z"/>
   <path class="fil29" d="M397 333c-1,-1 -2,-1 -2,-2 0,1 1,1 2,2z"/>
   <path class="fil30" d="M93 397c4,-6 10,-11 17,-14 2,-1 4,-2 6,-2 4,0 7,1 8,4 1,4 -3,4 -4,6 -1,1 -2,2 -2,4 1,0 1,1 2,1 1,1 2,1 2,0 1,0 2,-1 2,-1 0,-1 1,-1 1,-1 2,-2 4,-3 6,1 3,5 4,0 6,-1 4,-3 6,-1 7,2 2,3 5,3 7,4 4,4 2,8 1,13 -3,6 -8,11 -15,13 -2,0 -3,-1 -4,-1 -1,0 -2,-2 -2,0 0,0 1,1 1,1 1,1 1,2 1,3 0,1 -1,1 -1,2 -3,4 -6,7 -10,10 -2,2 -5,3 -7,5 -1,1 -3,2 -4,3 -1,1 -2,2 -2,3 1,-1 2,-2 3,-3 1,-1 3,-2 4,-4 2,-1 4,-3 6,-5 4,-2 7,-6 11,-9 0,-1 1,-2 2,-3 2,-1 4,-3 7,-3 6,3 7,0 6,-5 1,-3 3,-4 4,-7 12,-9 23,-21 35,-31 1,0 1,0 2,0 5,3 5,7 7,11 1,5 -5,6 -6,11 6,-4 9,-1 10,4 1,4 1,8 0,13 -1,10 -3,20 -3,30 1,7 1,14 3,20 5,10 3,18 -1,27 0,1 0,3 -1,4 -1,1 0,3 -2,4l0 0c0,1 -1,1 -2,2l0 0c0,1 -1,1 -1,2l0 0c-1,1 -2,1 -3,2l0 0c-2,2 -5,2 -7,4l0 0c-2,1 -5,0 -7,1 0,0 -1,0 -1,1 -3,2 -7,0 -10,1 -1,0 -2,0 -3,0 -3,-1 -6,1 -8,-1 -2,-2 -5,-3 -2,-6 1,-2 0,-4 2,-5 1,-1 1,-1 1,-2 0,0 0,0 -1,0 -1,0 1,-1 0,1 -1,1 -2,2 -4,2 -3,-1 -5,-2 -6,-5 0,-1 0,-2 0,-4 1,0 1,0 0,-1 0,0 0,0 0,1 0,1 0,2 -1,4 -3,2 -6,3 -9,1 -6,-6 -9,-14 -14,-21 0,-1 -1,-2 -2,-2l0 0c-2,-3 6,-5 1,-8 -3,-2 -6,-5 -11,-2 -1,1 -3,1 -5,0 -4,-1 -8,-3 -12,-4 -1,-2 -4,0 -6,-2l0 0c-1,-2 -1,-5 -2,-8 0,0 0,-1 0,-2 0,-1 0,-2 1,-2 0,-1 0,-2 1,-2 1,-2 2,-3 3,-5l0 0 -1 0c-1,2 -2,4 -3,5 -2,4 -4,9 -10,6 -2,-5 -4,-11 -2,-17 9,-2 1,-7 1,-10 2,-8 4,-16 10,-21 3,-3 5,-6 9,-2 3,3 5,0 7,-1 -2,-3 -8,-1 -8,-7l0 0c1,-1 2,-1 2,-2z"/>
   <path class="fil30" d="M54 360c-3,-3 -7,-5 -11,-6l0 0c-1,0 -2,-1 -2,-2l0 0c-1,-1 -3,-1 -3,-3 1,-2 3,-2 5,-2 1,-1 3,-1 4,0 2,0 3,0 4,0 7,2 14,2 18,2 4,0 2,-2 3,0 0,0 0,0 -1,0 -4,1 -8,-1 -12,-1 -2,0 -4,0 -6,0 -2,-1 -4,-2 -6,-2 -1,0 -3,0 -4,0 -2,-1 -4,-1 -6,-2 -1,0 -2,-1 -2,-2l0 0c-2,-1 -4,0 -6,-1 -2,-2 -4,-3 -4,-6 3,-2 7,-3 10,-2 9,3 18,1 27,2 2,0 4,0 5,0 3,0 5,0 8,-1 6,0 11,-2 14,-8 0,-2 0,-4 -1,-5 -3,-2 -5,-1 -6,1 -1,1 -1,-1 -1,0 -5,16 -17,13 -28,13 -9,0 -17,0 -24,-4 -3,-1 -4,-3 -2,-6 1,-2 4,-3 7,-4 18,-8 37,-12 56,-15 10,-2 20,-5 30,-8 8,-1 12,-7 18,-10 1,-1 2,-2 3,-3 1,-1 1,-1 2,-2 1,0 2,0 3,0 9,4 15,11 18,20 3,6 5,11 11,13 0,1 1,2 1,2 2,2 3,4 4,5 1,1 2,1 2,2 5,3 5,6 1,9 -4,2 -9,7 -12,-1 0,-1 0,-2 -1,-2 0,-1 0,-2 -1,-2 0,-1 0,-1 -1,-1 -2,-2 -5,-2 -8,-3 -2,0 -4,0 -5,2 -2,3 2,4 3,6 4,12 2,14 -11,15 -3,-4 -1,-9 -2,-14 -1,-1 -3,-1 -4,-1 -4,2 -4,-5 -8,-3 0,4 -10,7 -1,11 2,1 4,1 5,3 3,4 8,1 11,5 2,2 3,5 3,9 0,1 -1,1 -1,2l0 0c-2,1 -3,1 -5,2 0,0 -1,0 -1,0 -7,7 -16,5 -25,5 -4,0 -8,-1 -12,1 -3,0 -5,0 -8,0 -8,-1 -17,-1 -25,-2 -7,-2 -13,-4 -20,-6z"/>
   <path class="fil31" d="M218 395c0,-3 1,-6 3,-8 6,-5 13,-4 19,-7 5,-2 10,5 12,10 3,5 -2,5 -5,7 -2,1 -4,3 -4,6 1,5 5,5 9,7 1,0 1,1 1,2 0,1 0,1 0,2 0,1 0,1 0,1 -1,1 0,2 1,2 3,0 5,0 8,-2 5,-3 9,-1 13,3 7,2 10,7 8,14 -1,3 -1,6 -2,8 -1,4 -2,7 -2,10 -1,3 -2,5 -2,8 -1,3 -2,6 -2,9 -4,12 -8,24 -11,37 -1,4 -1,8 -5,11 -5,4 -10,5 -14,-2 -1,-5 2,-10 2,-15 1,-2 2,-5 3,-7 1,-3 1,-5 2,-8 1,-2 1,-5 2,-7 0,-1 -2,0 -1,0 1,0 0,1 0,1 0,2 0,3 -1,4 0,2 -1,4 -1,7 -1,2 -2,5 -3,8 -4,11 -3,24 -9,35 -1,3 -3,2 -4,0 -3,-6 -5,-12 -5,-19 -1,-7 -2,-14 -1,-21 3,-6 4,-14 5,-21 1,-1 1,-2 2,-4 3,-1 7,-2 2,-6 -2,-3 1,-8 -4,-11 0,3 4,5 3,9 0,2 -1,5 -1,8 -3,6 -3,13 -5,20 0,1 -1,1 -2,2 -5,4 -9,4 -13,-1l0 0c1,-5 2,-10 -4,-12 -3,-5 -4,-10 -4,-15 -1,-2 -1,-3 -1,-5 0,-6 1,-8 7,-5 2,2 4,3 6,1 0,-4 -4,-3 -6,-4 -2,-2 -7,0 -6,-6l0 0 0 -1c3,-3 -2,-10 3,-12 4,-1 7,5 9,8 1,1 2,1 2,0 0,-1 1,-1 0,-2 -10,-7 -10,-17 -8,-27l0 0c2,-2 1,-6 5,-5 3,1 1,4 1,6 5,-6 -5,-8 -2,-13z"/>
   <path class="fil32" d="M243 348c6,-10 13,-20 21,-29 3,-3 5,-6 9,-1 2,2 4,3 7,3 3,1 5,1 8,2 4,0 7,2 7,7 0,4 6,6 6,10 3,3 9,-1 12,5 0,1 0,3 -1,4 -2,1 -4,2 -6,2 -6,1 -6,4 -5,8 1,4 4,6 4,10 0,2 0,5 4,6 2,-1 3,-2 3,-4 -1,-1 -1,-1 -1,-2 -3,-3 -4,-7 0,-10 0,-1 1,-2 2,-2 0,-1 1,-1 2,-2 1,0 2,0 3,0 9,6 11,12 8,22 -2,7 5,21 12,23 4,1 6,3 6,6 1,3 0,6 3,8 1,2 5,3 3,7 1,0 1,1 0,1 -2,3 0,6 -2,8 -1,11 -5,22 -9,32 -2,-1 -3,-3 -6,-4 -4,0 -7,-3 -5,-7 1,-4 4,-6 8,-4 -4,-4 -10,4 -13,-2 -1,-3 3,-5 2,-9 0,0 -1,-1 -1,-1 0,-1 0,-1 -1,-1 -1,-1 -2,-1 -3,-1 -1,0 -2,0 -2,0 -1,0 -1,0 -1,-1 -1,0 -1,-1 -1,-2 2,-9 8,-2 12,-4 2,0 3,0 4,1 1,0 3,1 4,0 0,-1 -1,-2 -2,-3 -2,-2 -4,-3 -6,-1 -1,0 -3,2 -4,1 -5,-6 -7,0 -10,4 -1,1 -3,2 -5,1 -3,-6 -5,-13 -14,-13 -4,1 -4,-4 -5,-7 -2,-7 -5,-14 -14,-14 -1,-1 -2,-1 -2,-2 0,-1 0,-2 0,-2 9,-7 9,-9 1,-17 -4,-3 -11,-2 -8,-10 1,-3 -2,-3 -4,-2 -4,0 -9,0 -12,-3 0,-1 -1,-4 -2,-5 -2,-1 -5,-3 -6,-6z"/>
   <path class="fil33" d="M344 416c-3,-2 -1,-6 -2,-9 0,-4 -2,-7 -6,-4 -4,2 -7,0 -7,-4 0,-6 -3,-10 -7,-15 -1,-3 -1,-5 1,-7 3,-3 4,-6 2,-10 -2,-5 -4,-10 -10,-11 -2,-1 -2,-3 -2,-5 0,-2 0,-3 1,-4 5,-5 7,-11 5,-18 2,-9 3,-19 8,-27 7,-5 5,-12 5,-18 0,-4 0,-7 3,-10 5,-5 9,0 12,3 2,3 3,7 5,9 2,3 3,6 2,9 2,11 0,22 1,33 0,3 -1,6 1,9l0 0c1,11 1,22 0,34 0,6 0,13 -2,20 -3,7 1,13 -2,20l0 0c-2,2 -5,4 -8,5z"/>
   <path class="fil34" d="M83 177c0,0 -1,0 -1,0 -2,-2 -1,-4 -1,-6 2,-3 4,-6 6,-9 5,-5 11,-4 15,2 1,1 2,2 2,3 3,12 11,18 23,21 6,1 13,3 20,5 3,3 2,6 0,9l0 0c0,1 0,2 -1,2 -1,2 -8,4 0,7 0,0 1,0 2,1 0,0 1,0 2,1 0,0 1,1 2,1l0 0c0,1 1,1 2,2l0 0c1,1 3,1 3,2l0 0c1,1 2,1 2,2 1,0 2,1 3,2 0,1 0,2 0,3 -3,6 -8,5 -13,3 -5,-4 -7,2 -10,3 -9,2 -17,1 -25,1 -1,0 -3,-3 -3,1 -1,5 -9,2 -10,8 -6,-5 -11,-10 -14,-17 8,-4 14,5 22,1 1,0 3,1 5,-1 -2,-4 -4,-4 -7,-2 -3,2 -6,5 -10,2 -3,-3 -1,-6 -1,-10 0,-4 5,-9 -1,-12 -6,-2 -12,-1 -15,5 -3,-3 -2,-6 -2,-10 4,-1 8,0 11,-1 2,-1 4,0 6,0 -2,0 -4,0 -6,-1 0,0 -1,0 -2,0 -9,-2 -9,-2 -9,-12 1,-3 4,-2 6,-3 2,-1 -1,-2 -1,-3z"/>
   <path class="fil33" d="M299 343c-1,-1 -3,-1 -3,-3 0,-2 2,-4 1,-6 -3,0 -4,4 -7,2 -1,-1 0,-2 1,-3 3,-6 3,-6 -3,-8 0,-5 4,-3 5,-4 -7,-4 -7,-4 -13,2 -4,-1 -9,2 -10,-5 -1,-3 -4,1 -6,1 9,-14 20,-27 31,-40 8,-9 16,-18 22,-28 1,-1 3,-4 5,-2 2,2 1,4 0,6 -3,4 -5,9 -8,13 -1,4 -4,7 -6,11 -2,3 -4,6 -6,10 -2,5 2,5 6,6 -2,-2 -5,-2 -6,-4 1,-5 4,-8 6,-11 2,-4 4,-7 6,-11 3,-4 4,-11 10,-13 10,1 12,8 11,16 -2,5 -1,10 -5,14 -4,2 -7,-4 -11,-1 1,5 9,7 8,13 -1,5 -2,10 -4,15 -2,3 -4,6 -9,3 1,4 4,6 4,9 0,0 0,1 0,2 -3,1 -3,3 -2,4 0,1 0,2 -1,3 -4,5 -9,7 -16,9z"/>
   <path class="fil35" d="M465 467c-9,1 -17,-2 -25,-5 -15,-7 -30,-15 -45,-23 -4,-3 -9,-6 -14,-9 0,0 -1,-1 -2,-2l0 0c0,0 -1,-1 -2,-1l0 -1c-1,-2 -4,-2 -5,-4l0 0c-1,0 -2,-1 -2,-2l0 0c-2,0 -1,-3 -2,-3l0 0c-1,-1 -1,-2 -2,-2 0,-1 0,-2 -1,-4 0,0 0,-1 0,-2 0,-1 1,-2 2,-3 1,-2 3,-6 7,-3 0,1 0,3 1,4 0,1 1,2 1,2 1,1 2,1 2,0 0,-1 1,-1 2,-2 12,-3 20,2 19,16 -1,5 1,5 5,6 9,2 17,1 22,-8 1,-1 3,-2 5,-2 1,1 2,1 4,2 1,1 1,2 2,4 1,3 3,6 7,5 7,3 13,9 18,14 4,5 9,9 14,12 2,3 7,5 7,9 -2,5 -7,4 -10,2 -3,-1 -6,-2 -8,0z"/>
   <path class="fil36" d="M432 421c-3,-1 -5,1 -6,4 -2,3 -6,6 -9,9 -2,1 -4,2 -6,-1 -2,-3 -5,-3 -8,-2 -3,1 -5,1 -7,-1 -2,-1 -3,-3 -1,-4 6,-6 -1,-10 -1,-15 -1,-2 -5,-4 -9,-3 -2,1 -5,2 -8,3 -2,-3 -1,-6 2,-8 4,-2 11,1 10,-7 0,-2 -1,-2 0,-1 -1,0 -2,0 -2,1 0,0 -1,1 -2,1 0,1 0,1 -1,1 0,0 -1,0 -1,0 -1,-1 -2,-2 -3,-3 0,-1 -1,-2 -1,-3 -1,-1 -1,-2 -1,-3 -1,-2 -2,-4 -2,-6 -1,-2 -2,-4 -2,-6 -1,-3 -1,-6 -2,-9 0,-1 -1,-2 -1,-4 0,-2 -1,-4 -1,-6 -1,-2 0,-4 0,-6 1,-1 1,-3 1,-4 0,-10 0,-10 6,-7l0 0c1,1 1,3 3,3 13,20 28,38 44,55 3,3 0,8 3,12 1,2 3,3 4,5 1,1 1,2 1,3 0,1 0,1 0,2z"/>
   <path class="fil37" d="M379 436c1,1 2,1 2,2 0,13 4,24 8,36 4,10 5,21 8,32 1,3 1,7 0,10 0,1 0,1 0,2 -4,0 -8,1 -12,2 -1,0 -2,-1 -3,-2 -1,-2 -1,-3 -1,-4 0,-3 -1,-5 -1,-7 0,-4 -2,-8 -3,-12 0,-3 0,-6 0,-7 1,3 -1,8 2,12 0,2 0,3 0,5 0,2 1,5 2,7 0,1 0,2 0,3 0,2 1,4 2,6 0,1 0,3 0,4 1,2 1,3 2,5 0,1 0,2 0,2 -1,2 -1,4 -4,3 -3,-3 -8,-4 -12,-8 -1,-3 -4,-6 -4,-10 0,-1 0,-2 0,-4 0,-2 0,-4 0,-6 -1,0 -1,-1 -1,-2 0,-1 0,-2 0,-3 0,-1 -1,-2 -1,-3l0 -1c-1,2 0,4 1,6 0,2 0,5 0,7 -1,2 -2,4 -5,3l1 0c-1,-1 -1,-1 -2,-2l0 0c-1,-1 -1,-3 -2,-4l0 0c-2,-3 -2,-7 -4,-10l0 1c-2,-2 0,-5 -2,-7l0 1c-1,-2 -1,-4 -1,-6 5,-5 10,-2 15,-1 2,-6 -2,-17 10,-17 2,-3 -2,-3 -3,-4 -1,0 -1,-1 -2,-1 -1,-1 -1,-2 -1,-3 -1,-1 -2,-3 -2,-5 -1,-5 -2,-11 1,-16 3,-4 -2,-7 0,-11 0,-1 1,-1 2,-1 1,0 1,0 2,1 0,0 1,0 1,1 1,0 1,1 2,1 0,0 0,1 1,1 1,2 3,3 4,4z"/>
   <path class="fil38" d="M266 551c-3,2 -6,1 -9,0 -2,-3 -3,-6 -2,-9 0,-2 1,-4 1,-7 0,-1 1,-2 1,-4 1,-2 1,-4 2,-7 2,-6 2,-12 6,-18 6,-4 4,-9 3,-14 0,-4 0,-7 2,-10 3,-6 9,-3 16,-4 -16,-1 -8,-11 -10,-17 0,-2 0,-5 1,-7 1,-2 1,-5 2,-8 1,-2 1,-3 3,-5 2,-1 4,-1 2,-4 -2,-3 -2,-6 0,-7 3,-2 6,-1 8,1 7,5 10,11 8,20 5,1 12,-1 13,7 0,5 -6,2 -9,4 -1,0 -2,0 -3,0 -4,1 -1,4 -2,6 0,3 -2,6 -3,10 -1,2 -1,4 -2,7 -1,3 -3,6 -4,9 -1,2 -1,4 -2,6 0,1 -1,2 -1,3 0,1 -1,2 -1,4 -4,11 -8,22 -12,32 -2,5 -4,9 -8,12z"/>
   <path class="fil38" d="M142 399c0,-6 0,-6 -4,-4 -4,1 -5,-2 -6,-4 0,-1 0,-2 0,-3 -2,-3 -5,-5 -8,-7 -4,-3 -4,-6 -2,-9 2,-4 6,-5 10,-5 3,0 6,0 8,3 0,1 0,1 0,2 0,0 0,-1 1,-1 4,-1 8,1 11,3 2,2 3,4 7,5 -2,-3 -5,-3 -7,-5 -2,-1 -4,-3 -4,-6 1,-1 1,-2 1,-3 2,0 4,0 5,-1 1,-1 1,-1 2,-2 1,0 1,0 1,0 2,-1 3,-1 5,-2 3,-1 6,-1 9,-2 6,3 8,-3 12,-6 7,-4 14,-8 20,-12 6,0 6,3 5,7 -3,4 -4,12 -12,10 -1,4 3,4 3,7 0,3 -1,5 -4,7 -5,0 -12,-1 -9,8 0,1 0,2 0,3 -6,5 -10,12 -17,15 -8,-8 -16,-2 -24,1 -1,1 -2,2 -3,1z"/>
   <path class="fil31" d="M311 514c-9,12 -20,21 -31,31 -1,1 -3,1 -4,2l0 0c-1,0 -1,1 -2,1l0 0c-6,-1 -3,-5 -1,-7 4,-11 8,-21 11,-31 1,-2 1,-3 2,-4 0,-1 0,-3 1,-4 1,-1 1,-3 2,-5 1,-3 2,-7 4,-11 1,-1 1,-4 2,-6 5,-4 12,-1 16,-6 2,-1 5,-2 7,-2 11,-4 15,-1 13,11 0,4 -2,7 -4,9 -5,4 -10,5 -15,8 -3,2 -5,1 -6,-3 -3,4 0,5 2,7 3,3 6,6 3,10z"/>
   <path class="fil15" d="M241 298c-4,5 -8,10 -13,14 -3,1 -7,1 -8,6l0 0c-1,0 -1,1 -2,1 -3,3 -6,5 -10,6 -4,-3 -7,3 -11,1 -3,-3 3,-7 -1,-10 -2,-3 -4,-5 -5,-8 -3,-4 -6,-8 -10,-10 -4,-2 -4,-7 -5,-11 0,-5 -5,-6 -7,-9 1,-5 6,-4 9,-7 2,-1 3,-1 5,-2 1,0 3,-1 4,-1 3,1 5,1 6,4 0,0 0,1 0,2 -9,3 -6,7 -2,12 0,1 0,2 -1,3 1,0 2,-1 3,-1 1,-2 3,-3 5,-4 3,-1 5,-2 8,-2 6,1 8,6 11,11 4,-6 8,-9 14,-3 1,2 4,1 5,1 4,0 7,2 5,7z"/>
   <path class="fil33" d="M192 274c0,0 0,-1 0,-1 4,-3 7,-6 9,-10 1,-1 3,-2 4,-2 25,-10 51,-19 77,-28 3,-1 6,0 8,-1 5,0 9,1 13,2 2,1 2,2 1,4 -10,8 -22,10 -33,15 -11,6 -24,10 -36,15 -5,2 -9,4 -14,6 -3,2 -5,3 -8,4 -3,2 -5,3 -8,4 -1,0 -2,-1 -3,-1 -2,-2 -4,-3 -7,-4 -1,0 -2,-1 -3,-3z"/>
   <path class="fil37" d="M253 413c-1,-1 -2,-2 -2,-2 -3,-1 -6,2 -7,-1 -2,-3 -5,-5 -4,-8 0,-5 4,-7 8,-9 1,0 2,0 3,0 0,-4 -4,-6 -6,-8 -2,-3 -4,-6 -7,-1 -2,2 -7,3 -10,2 -3,0 -5,1 -7,1 3,-5 6,-10 8,-15 1,-1 2,-2 3,-3 1,0 2,0 3,0 13,-5 13,-5 23,6 3,8 8,15 16,18l0 0c5,4 8,9 12,14 2,1 3,4 1,6 -1,2 -3,1 -6,0 0,0 -1,0 -2,-1 -2,-1 -5,0 -7,1 -6,-2 -13,-2 -19,0z"/>
   <path class="fil39" d="M331 483c0,-2 0,-5 -1,-7 -2,-3 -4,-6 -8,-3 -4,1 -7,2 -11,4 -3,-6 5,-6 6,-10 -4,-4 -12,-1 -16,-6 3,-4 7,-2 11,-2 -2,-5 -5,-6 -8,-5 -2,0 -4,1 -6,1 -3,0 -5,-3 -2,-5 4,-3 3,-6 2,-9 -2,-5 -6,-8 -10,-10 -1,-1 -3,0 -3,1 -1,1 -1,2 0,3 0,0 1,1 2,1 2,2 4,4 2,6 -2,3 -5,1 -7,0 -3,-3 1,-7 -2,-10 0,-3 1,-5 1,-8 -2,-3 -7,0 -9,-4 8,-6 16,0 23,2 5,1 11,3 7,10 -1,3 2,3 4,4 6,5 12,9 15,16 1,2 3,3 5,4 12,4 12,5 9,17 0,4 -2,7 -4,10z"/>
   <path class="fil37" d="M101 241c-1,-3 -1,-6 4,-6 2,-1 4,-1 6,-1 1,-1 1,-1 2,-1 3,2 3,6 6,8 3,1 6,1 9,2 1,1 3,2 4,3 1,3 1,6 6,4 6,-3 13,-2 19,-1 4,1 6,3 3,6l0 0c-5,3 -9,8 -17,7 -6,-1 -4,4 -2,8 0,1 0,2 -1,2 -3,3 -6,6 -10,8 -7,-15 -18,-26 -29,-39z"/>
   <path class="fil40" d="M290 253c-14,13 -27,25 -41,37 -10,3 -14,1 -13,-9 0,-3 0,-5 0,-7 0,-1 0,-2 0,-3 1,-1 2,-2 3,-3 1,0 1,-1 2,-1 2,-1 3,-2 4,-3 14,-6 27,-12 41,-17 1,0 2,-1 4,-1 1,0 2,0 3,0 2,0 3,1 3,3l0 0c-1,1 -2,1 -2,2l0 0c-1,1 -3,1 -4,2z"/>
   <path class="fil41" d="M335 473c0,-1 0,-3 0,-5 1,-6 -3,-10 -8,-9 -4,0 -7,0 -8,-4 -1,-9 -9,-12 -15,-17 -2,-1 -5,-1 -6,-3 -1,-3 1,-4 3,-5 2,-1 0,-2 0,-3 -2,-3 -5,-3 -7,-3 -2,-4 -5,-6 -9,-7 -3,-1 -7,-1 -5,-6 2,0 4,2 7,1 -4,-7 -12,-10 -13,-19 3,0 5,0 8,0 3,0 5,1 6,5 1,5 7,8 5,15 -1,2 3,2 5,2 8,1 10,2 11,9 0,2 0,3 0,4 2,3 0,6 2,8 2,3 6,1 9,3 2,1 4,2 3,5 2,3 5,1 8,0 6,-1 7,0 9,7 -1,1 -2,0 -2,-1 -2,-2 -4,-3 -7,-1 -1,1 -2,2 -2,4 1,3 3,4 5,4 5,-1 4,2 5,5 0,4 -2,8 -4,11z"/>
   <path class="fil32" d="M169 260c12,-7 24,-14 37,-19 9,0 17,1 26,3 0,1 0,2 0,3 0,1 -1,2 -2,3 -1,0 -2,0 -3,1 -2,0 -3,1 -5,3 -7,4 -14,5 -21,9 -3,2 -6,2 -9,4 -3,1 -6,2 -9,3 -2,0 -4,1 -6,2 -9,3 -10,-4 -12,-9l0 0c1,-1 3,-1 4,-3z"/>
   <path class="fil38" d="M196 315c5,1 6,3 4,7 -1,1 -3,2 -4,3 1,4 1,7 -1,10l0 0c-1,1 -2,1 -3,1 -1,-1 -1,-1 -1,0 -1,1 -2,2 -2,3 -8,6 -16,9 -25,13 -3,2 -7,4 -10,6 -2,1 -3,1 -4,1 -2,-3 -3,-7 -2,-11 3,-1 4,-8 11,-4 -1,-4 -5,-7 -2,-11 1,-1 1,-1 1,-1 1,-1 2,-2 3,-2 1,1 2,1 2,2 4,3 7,-2 10,-1 1,2 -1,6 4,3 0,0 1,0 1,-1 3,-1 6,-1 6,-4 0,-3 -4,-2 -5,-4 1,-1 3,-2 4,-2 2,0 3,-1 4,-1 2,-1 3,-3 4,-4 1,-1 1,-1 2,-1 1,-1 1,-1 2,-2 1,0 1,0 1,0z"/>
   <path class="fil27" d="M232 248c-1,-2 -1,-4 -3,-4 -8,3 -16,1 -23,-3 1,-1 2,-2 4,-2 5,1 11,1 14,-5 17,-6 35,-9 54,-6 3,1 7,3 2,6 -15,5 -30,12 -46,15 -1,0 -1,-1 -2,-1z"/>
   <path class="fil32" d="M117 243c-4,-2 -2,-7 -4,-9 1,-2 2,-2 4,-2 1,0 3,0 4,0 2,0 4,0 5,0 20,1 40,2 60,0 2,-1 5,-1 8,-1 2,2 5,1 4,4 -7,4 -13,7 -20,11 -3,1 -5,4 -9,3 0,0 -1,0 -1,0 -8,-2 -16,-1 -24,-1 -2,0 -3,-1 -4,-1 -4,-1 -8,-2 -13,-3 -3,0 -6,-3 -10,-1z"/>
   <path class="fil42" d="M194 370c1,-2 3,-4 5,-6 1,-6 8,-10 11,-15 0,-1 1,-2 1,-2 1,-1 2,-2 2,-2 6,-5 10,-13 16,-18 1,-1 1,-1 2,-2 0,0 1,0 1,-1 0,0 1,-1 2,-1 0,0 0,-1 0,-1 1,0 1,-1 2,-2 0,0 0,0 1,0 0,-1 0,-2 1,-2 0,-1 1,-2 1,-2 2,-2 4,-4 5,-6 3,-3 7,-6 10,-9 3,-5 7,-9 11,-12 1,-2 3,-3 3,-5 6,-6 11,-14 20,-15 1,2 0,4 -2,6 -1,0 -2,0 -3,0 0,0 0,1 -1,1 0,1 1,2 0,3 -4,4 -7,8 -10,12 -3,3 -5,7 -9,10 -3,3 -6,8 -9,12 -14,15 -27,31 -40,46 -5,4 -9,8 -12,12 -4,5 -7,11 -14,12 0,0 -1,0 -1,0 -2,1 -3,0 -3,-2 0,-1 1,-1 1,-2 2,-4 4,-8 9,-9z"/>
   <path class="fil43" d="M80 207c1,-8 1,-8 7,-8 3,0 6,-1 9,0 5,0 7,4 5,9 -2,3 -1,7 -3,11 -1,1 -1,3 1,4 1,1 3,1 4,-1 1,0 1,-1 2,-2 6,-5 9,-4 12,3 1,1 1,2 2,4 -11,2 -21,0 -32,-3 -4,-5 -6,-11 -7,-17z"/>
   <path class="fil44" d="M200 370c4,-4 7,-8 12,-12 8,-1 9,4 8,10 0,3 -2,5 -3,7 -8,14 -14,28 -15,43 0,1 -1,2 -2,3 -2,-6 0,-13 -5,-17 -4,1 -1,5 -4,7 -4,-3 -1,-9 -6,-12 3,-3 10,1 9,-6 2,-2 5,-4 8,-6 3,-5 7,-9 -1,-13 -2,0 -2,-2 -1,-4z"/>
   <path class="fil34" d="M185 325c-2,0 -4,0 -6,0l0 0c-2,-2 -1,-5 -4,-6 -2,-3 0,-6 2,-9 2,-3 2,-7 -1,-8 -8,-3 -12,-8 -15,-15 -1,-1 -3,-2 -4,-3 -1,0 -2,-1 -2,-1 -1,-2 -2,-4 -4,-5 -1,-1 -1,-1 -2,-2 3,-3 5,-5 9,-7 0,-2 3,-1 3,-3 6,1 6,6 7,10 1,7 9,5 11,10 0,5 -1,10 6,11 1,4 7,5 7,11 0,0 0,1 -1,1 -1,1 -2,2 -2,2 -1,2 -1,3 -1,4 0,2 -1,3 -1,5 -1,1 -1,4 -2,5z"/>
   <path class="fil45" d="M237 270c2,4 2,7 2,11 -2,8 -1,8 6,9 1,0 3,0 4,0 -2,3 -5,6 -8,8 0,-3 -1,-7 -5,-4 -5,3 -7,1 -9,-3 -2,-4 -4,-3 -5,1 -1,1 -1,2 -1,2 -1,2 -2,4 -4,3 -3,0 -4,-2 -4,-4 1,-5 -3,-8 -7,-9 -1,-1 0,-2 0,-2 2,-1 3,-1 4,-1 4,2 7,2 7,-3 1,-3 4,-3 6,-5 5,-1 9,-6 14,-3z"/>
   <path class="fil46" d="M220 368c-1,-5 -3,-9 -8,-10 13,-16 27,-31 41,-47 3,0 3,2 2,4 -12,18 -25,34 -35,53z"/>
   <path class="fil47" d="M232 248c16,-6 33,-11 49,-17 0,-2 -2,-2 -3,-3 5,-1 9,0 12,4 -20,9 -41,15 -61,23 -8,3 -16,5 -25,8 -2,1 -4,2 -4,-2 8,-3 15,-6 22,-10 1,-2 4,0 6,-2l0 0c1,-1 2,-1 4,-1l0 0z"/>
   <path class="fil48" d="M292 247c-1,0 -2,0 -2,1 -1,0 -2,1 -3,1 -14,5 -28,11 -42,18 -1,1 -3,1 -4,1l0 0c-1,2 -2,2 -4,2 -2,-1 -4,0 -4,-3 23,-11 47,-20 70,-30 2,-1 3,-2 4,-3 3,3 8,4 12,3 1,1 1,2 0,3 -10,1 -18,6 -27,7z"/>
   <path class="fil49" d="M432 407c12,9 23,18 35,27 1,1 1,1 2,2l0 0c1,4 -2,5 -5,6 -10,-2 -15,-11 -23,-16 -2,-2 -4,-4 -6,-6 -2,-2 -4,-4 -6,-5 -1,-2 -2,-3 -2,-5 1,-3 2,-4 5,-3z"/>
   <path class="fil50" d="M257 542c0,3 0,6 0,9 -2,-1 -5,-2 -6,-4 0,-2 0,-3 0,-5 0,-1 0,-2 1,-3 0,-2 1,-4 1,-6 1,-3 1,-5 1,-7 0,-5 2,-9 5,-12 3,-14 7,-27 11,-41 1,-2 2,-5 2,-8 3,0 4,2 4,4 -1,5 -1,9 -4,14 -1,3 -2,6 -2,9 -1,5 1,10 -4,14 -2,6 -3,13 -5,19 -2,2 -1,5 -2,7 0,1 0,2 0,3 -2,2 -1,5 -2,7z"/>
   <path class="fil41" d="M257 376c-4,-4 -8,-7 -13,-11 -4,2 -6,10 -12,5 -1,-1 -1,-2 -1,-2l0 0c4,-2 4,-5 4,-8l0 0c1,-1 1,-3 2,-4 2,-3 3,-6 6,-8 5,0 7,6 12,7 -1,1 -3,2 -4,3 3,3 5,7 7,11 0,2 1,4 0,6 -1,0 -1,0 -1,1z"/>
   <path class="fil46" d="M232 327c-6,7 -11,14 -18,20 -1,0 -2,1 -2,2l0 0c-2,0 -5,0 -6,-3 2,-3 0,-5 -3,-6 8,-6 18,-11 26,-17 1,0 2,-1 2,-2l0 0c1,0 2,-1 2,-2l1 0c0,0 1,-1 1,-1l1 -1c1,-1 3,-1 4,0 0,1 -1,2 -1,2 -1,1 -1,1 -2,2l0 0c-1,1 -1,1 -2,2l0 0c0,1 -1,1 -2,2l0 0c0,1 -1,1 -1,2z"/>
   <path class="fil51" d="M321 313c2,-4 3,-10 4,-15 2,-4 -1,-9 4,-12 2,-4 3,-9 4,-13 2,-7 0,-16 5,-22 2,1 4,2 4,4 -1,1 -1,2 0,3 0,2 0,3 0,5 -1,2 -1,4 -2,6 -1,2 -3,3 -3,6 -2,2 -3,6 -3,9 -2,6 0,13 -5,18 -4,9 -6,19 -8,29 -1,1 -1,3 -3,4 -2,0 -2,-2 -2,-4 0,-1 0,-3 1,-4l0 -1 0 0c0,-5 2,-9 4,-13z"/>
   <path class="fil6" d="M311 514c0,-3 -1,-7 -5,-8 -2,-1 -5,-2 -4,-5 0,-3 1,-7 3,-10 1,-1 3,0 4,1 1,3 -2,5 0,7 5,-5 11,-6 18,-7 -4,9 -9,16 -16,22z"/>
   <path class="fil52" d="M214 407c-2,9 4,17 7,25 1,-1 2,-2 4,-3 1,0 2,0 3,1 0,0 0,1 0,2 0,1 -1,1 -1,1 -5,1 -1,8 -6,8 -5,1 -2,-6 -6,-8 -1,-1 -2,-3 -4,-3 -3,2 1,7 -3,10 -1,-12 3,-22 6,-33z"/>
   <path class="fil53" d="M288 503c0,1 0,2 -1,3 0,1 -1,2 -1,3 -2,10 -7,21 -11,31 -1,2 -4,5 -1,8 -2,4 -5,2 -8,3 6,-16 12,-31 18,-47 1,-1 2,-2 2,-3l0 0 0 -1c2,0 3,1 2,3z"/>
   <path class="fil54" d="M208 441c3,4 9,2 13,5 2,1 4,1 4,4 0,3 -3,5 -6,6 -2,0 -4,1 -5,-1 -1,-2 -1,-5 -4,-4 -3,1 -1,4 -2,6 0,1 0,2 0,3 -2,-6 -2,-12 0,-19z"/>
   <path class="fil55" d="M337 275c-1,-3 0,-5 1,-6 2,-2 1,-5 2,-7 0,-2 0,-3 0,-5 1,-1 2,-1 3,0 3,3 5,7 5,12 0,6 4,11 4,17 -4,-2 -5,-7 -9,-10 -2,-2 -4,-3 -6,-1z"/>
   <path class="fil56" d="M338 251c0,8 -3,15 -5,22 0,-8 -1,-14 -10,-16 0,-6 2,-11 10,-10 2,1 3,3 5,4z"/>
   <path class="fil57" d="M350 487c0,2 0,4 0,6 -2,-4 -2,-8 -2,-11 -1,-2 -1,-4 -2,-5 -2,-4 -1,-7 0,-11 1,-4 3,-7 4,-11 1,0 2,0 2,0 2,2 2,3 2,5 1,2 0,4 0,6 1,1 1,3 1,4 1,1 1,2 1,2 1,1 1,3 2,4 1,2 3,5 -1,7 -2,0 -4,-2 -5,1 0,1 -1,2 -2,3z"/>
   <path class="fil58" d="M245 522c-2,7 -3,14 -2,21 -2,-1 -2,-3 -2,-6 0,-2 0,-4 -2,-6 0,-13 4,-25 8,-37 2,0 3,1 2,3 0,5 -1,10 -2,14 -2,4 2,8 -2,11z"/>
   <path class="fil59" d="M284 274c2,-1 3,-3 4,-5 6,-6 11,-11 17,-16 1,-1 2,-1 3,0 -12,13 -24,26 -36,39 -1,0 -1,-1 -2,-2 4,-5 8,-9 12,-14 -1,-1 0,-1 0,-1l0 0c0,-1 1,-1 2,-1z"/>
   <path class="fil60" d="M216 487c4,2 9,2 13,-1 2,10 1,18 -3,21 -4,-6 -8,-13 -10,-20z"/>
   <path class="fil17" d="M363 393c0,-10 2,-21 3,-31 1,-2 2,-3 4,-2 2,4 2,8 3,11 0,3 2,5 1,8 -2,2 -5,3 -5,7 0,3 -1,7 -5,8 0,-1 0,-1 -1,-1z"/>
   <path class="fil61" d="M160 255c0,-1 1,-4 -2,-4 -6,0 -12,0 -18,0 -2,0 -3,2 -4,4 -1,1 -2,2 -4,1 -1,0 -2,-2 -1,-3 0,-2 0,-4 -1,-6 1,-1 3,-2 5,-2 4,1 8,3 12,2 6,0 12,0 18,0 1,0 3,1 4,2l0 0c-2,4 -6,5 -9,6z"/>
   <path class="fil62" d="M132 370c-4,-1 -8,-1 -10,3 0,2 -1,2 -2,0 0,-2 4,-5 -2,-5 0,-1 0,-1 1,-2 8,-1 16,-3 25,-4 1,2 4,2 6,2 1,1 0,1 0,2l0 0c-5,6 -13,1 -18,4z"/>
   <path class="fil63" d="M29 331c8,-1 17,3 25,2 3,2 7,0 10,1 1,1 1,2 0,3 -9,1 -17,0 -26,-1 -4,-1 -8,-2 -13,-1 0,-2 3,-2 4,-4z"/>
   <path class="fil64" d="M165 276c1,-4 -2,-7 -4,-10 1,-2 2,-3 4,-3 2,2 5,2 6,5 0,5 3,3 6,3 1,0 2,1 2,2 -3,3 -7,3 -10,5 -2,2 -4,2 -4,-2z"/>
   <path class="fil65" d="M333 247c-6,1 -8,6 -10,10 -3,4 -6,9 -8,13 -2,1 -3,0 -2,-2 2,-6 7,-11 9,-18 -3,-1 -4,1 -5,1 4,-5 9,-6 16,-4z"/>
   <path class="fil36" d="M218 395c0,1 0,3 2,3 2,0 3,0 3,1 -1,4 -1,8 0,13 0,1 -3,3 -5,2 -2,-1 -2,-2 -1,-4 0,-2 2,-3 2,-6 -3,-1 -3,3 -5,3 -1,-5 1,-9 4,-12z"/>
   <path class="fil61" d="M140 270c-1,0 -1,-1 -1,-1 -3,-2 -6,-5 -3,-7 2,-2 6,-6 8,-4 6,4 9,0 13,-2 1,-1 2,-1 3,-1 -3,4 -6,6 -10,8 -4,1 -7,3 -8,7l0 1c-1,0 -1,0 -1,0 -1,0 -1,0 -1,-1z"/>
   <path class="fil66" d="M195 335c0,-3 -2,-7 1,-10 6,1 7,-6 12,-7 1,2 -4,5 0,7 -4,4 -8,8 -13,10z"/>
   <path class="fil67" d="M364 415c0,1 0,2 0,3 0,1 0,1 0,1 0,4 1,7 2,11 0,2 0,4 0,7 0,3 0,6 -3,7 -6,-4 -5,-9 -5,-15 0,0 0,-1 0,-1 -1,-4 1,-8 1,-12 0,-4 3,-2 5,-1l0 0z"/>
   <path class="fil68" d="M410 370c2,-1 2,-4 3,-6 2,-2 5,-3 7,-1 3,3 3,6 0,7 -4,2 -5,4 -4,7 -3,-1 -5,-4 -6,-7z"/>
   <path class="fil69" d="M292 247c8,-4 17,-9 27,-8 1,4 -3,3 -4,4 -7,0 -13,4 -19,6 -1,-1 -3,-2 -4,-2z"/>
   <path class="fil70" d="M226 507c2,-6 2,-14 3,-21l1 1c3,-1 2,2 2,4 -1,7 0,14 -2,21 -1,-2 -4,-2 -4,-5z"/>
   <path class="fil71" d="M212 475c1,0 3,0 4,0 6,1 7,4 3,9 -1,1 -2,2 -3,3 -3,-4 -4,-8 -4,-12z"/>
   <path class="fil72" d="M183 352c-1,1 -1,2 -1,3 0,3 1,5 -2,6 -4,2 -7,1 -9,-3 4,-3 7,-5 12,-6z"/>
   <path class="fil73" d="M356 337c-2,-2 -2,-4 -2,-6 0,-12 0,-24 0,-36 3,14 2,28 2,42z"/>
   <path class="fil74" d="M224 234c-1,1 -1,2 -1,3 -1,7 -3,8 -9,4 -1,0 -3,-1 -4,-2 4,-3 9,-4 14,-5z"/>
   <path class="fil75" d="M354 442c0,-2 0,-5 2,-6 1,0 1,0 1,0 4,2 2,8 5,10 0,1 0,2 0,3 -5,2 -1,10 -8,10 -3,-6 -1,-11 0,-17z"/>
   <path class="fil17" d="M368 409c-1,0 -2,1 -3,2 0,0 -1,1 -1,0 0,0 0,0 0,0l-1 0c0,-1 -1,-2 -1,-3 0,-5 -1,-10 1,-15 1,0 1,0 1,0 6,4 5,10 4,16z"/>
   <path class="fil76" d="M255 315c0,-1 -1,-3 -2,-4 2,-4 6,-8 9,-11 2,-1 3,0 3,2 -3,5 -6,10 -10,13z"/>
   <path class="fil77" d="M377 341c-2,-2 -5,-2 -5,2 -1,2 -1,4 -1,6 0,0 -1,0 -1,-1 0,-3 0,-6 -1,-9 0,-4 -3,-8 3,-10 2,4 5,7 5,12z"/>
   <path class="fil78" d="M432 407c-2,0 -3,2 -4,4 -1,1 -1,2 -2,2 -3,-2 -4,-4 -3,-7 1,-2 1,-5 1,-7 3,2 6,4 8,8z"/>
   <path class="fil38" d="M140 288c-3,3 -7,3 -9,7 -2,4 -7,3 -11,3 5,-4 10,-7 16,-10 1,-1 3,-1 4,0z"/>
   <path class="fil73" d="M356 371c0,-12 0,-23 0,-34 3,11 3,22 0,34z"/>
   <path class="fil79" d="M344 416c1,-5 4,-6 8,-5 0,3 0,7 -2,10 -1,-3 -4,-3 -6,-5z"/>
   <path class="fil80" d="M255 302c-3,3 -6,7 -10,10 -1,0 -2,-1 -2,-2 3,-5 6,-8 10,-10l1 0c0,0 0,0 1,1l0 1z"/>
   <path class="fil81" d="M220 318c-1,-3 -3,-5 -1,-7 3,-3 6,1 9,1 -2,2 -5,4 -8,6z"/>
   <path class="fil82" d="M372 372c-1,-4 -2,-8 -3,-11 -1,-1 -1,-2 -1,-4 0,-1 -1,-2 -1,-3 0,-1 0,-2 1,-2 0,0 1,0 1,0 1,0 1,-1 2,0 0,0 0,0 0,0 0,2 1,4 1,5 1,2 0,5 1,7 0,1 1,2 1,3 0,2 1,5 -2,5z"/>
   <path class="fil83" d="M267 288c-4,5 -8,9 -12,14l-1 -1c0,0 0,-1 -1,-1 0,0 0,0 0,0 3,-5 7,-9 11,-12 1,-1 1,-1 2,-1 0,1 1,1 1,1z"/>
   <path class="fil17" d="M142 270c0,-1 0,-2 -1,-2 -1,-5 0,-7 5,-6 1,1 3,1 4,1 -2,3 -5,6 -8,7z"/>
   <path class="fil34" d="M140 288c-2,0 -3,0 -4,0 3,-5 8,-9 13,-12l1 1c2,6 -3,5 -6,7 -1,1 -1,2 -2,2 -1,1 -1,1 -2,2z"/>
   <path class="fil84" d="M354 442c1,6 -1,12 2,18 0,0 0,1 0,2 -2,0 -3,0 -4,-1 0,-2 0,-4 0,-5 -1,-1 -1,-3 -2,-4 2,-4 3,-7 4,-10z"/>
   <path class="fil85" d="M265 302c-1,-1 -2,-2 -3,-2 2,-4 5,-7 8,-10 1,1 2,2 2,2 -2,4 -4,7 -7,10z"/>
   <path class="fil86" d="M372 329c-4,3 -1,7 -3,10 -2,-5 -1,-10 -2,-16 3,1 4,3 5,6z"/>
   <path class="fil87" d="M235 360c1,2 5,4 3,6 -2,3 -5,2 -7,2 0,-3 2,-6 4,-8z"/>
   <path class="fil79" d="M352 411c1,-7 -2,-14 2,-20 0,7 1,14 -2,20z"/>
   <path class="fil88" d="M83 177c3,0 5,1 7,3 -4,4 -9,-1 -12,3 -2,-5 4,-3 5,-6z"/>
   <path class="fil22" d="M35 342c1,1 1,1 2,1 2,1 4,0 6,1 1,0 3,1 4,1 0,0 0,0 0,1 0,1 -1,1 -1,1 -2,0 -3,0 -4,0 -2,0 -4,1 -6,2 -1,0 -1,0 -1,0 -5,-3 -2,-5 0,-7z"/>
   <path class="fil89" d="M368 352c0,1 0,2 0,2 0,1 1,2 1,3 0,1 0,2 0,4 -1,0 -2,1 -3,1 -1,-4 0,-9 0,-13 2,0 1,2 2,3z"/>
   <path class="fil47" d="M315 243c1,-2 4,-1 4,-4 0,0 0,-1 0,-2 2,2 5,2 7,5 -4,1 -8,1 -11,1z"/>
   <path class="fil90" d="M243 310c1,0 2,1 2,2 -1,2 -3,4 -5,5 -1,0 -3,0 -4,0 0,-1 2,-3 3,-4 1,0 1,-1 2,-1l0 -1c1,0 1,-1 2,-1l0 0z"/>
   <path class="fil91" d="M352 498c3,3 4,6 4,10 -2,-3 -4,-6 -4,-10z"/>
   <path class="fil26" d="M183 516c2,-2 5,-4 7,-4 0,1 -1,2 -1,4 -2,0 -4,0 -6,0z"/>
   <path class="fil67" d="M355 436c-1,-4 1,-6 3,-8l0 1c1,2 1,4 -1,6 -1,0 -1,0 -2,1z"/>
   <path class="fil70" d="M267 288c-1,0 -2,0 -3,0 1,-2 3,-3 4,-4 3,2 0,3 -1,4z"/>
   <path class="fil79" d="M348 430c0,-3 -1,-5 2,-8 0,3 0,6 -2,8z"/>
   <path class="fil92" d="M189 339c0,-1 1,-3 2,-4l0 0c1,0 2,0 4,0 -2,2 -4,3 -6,4z"/>
   <path class="fil67" d="M372 422c2,1 4,2 5,4 -3,0 -5,-1 -5,-4z"/>
   <path class="fil88" d="M81 171c0,2 1,4 1,6 -5,-2 -3,-4 -1,-6z"/>
   <path class="fil22" d="M29 341c2,-1 4,0 6,1 -2,1 -4,1 -6,-1z"/>
   <path class="fil91" d="M350 492c2,2 2,4 2,7 -2,-2 -2,-4 -2,-7z"/>
   <path class="fil34" d="M150 366c0,-1 0,-1 0,-2 1,0 1,0 2,0 1,-1 2,-1 3,0 -1,2 -3,2 -5,2z"/>
   <path class="fil93" d="M308 253c-1,0 -2,0 -3,0 1,-2 2,-3 3,-2 2,0 1,1 0,2z"/>
   <path class="fil69" d="M290 253c0,-1 2,-2 4,-2 -1,2 -2,2 -4,2z"/>
   <path class="fil94" d="M340 489c-1,0 -1,0 -2,-1 1,0 1,-2 1,-2 2,0 1,2 1,3z"/>
   <path class="fil17" d="M346 477c2,1 2,3 2,5 -1,-2 -2,-3 -2,-5z"/>
   <path class="fil94" d="M350 452c2,1 2,2 2,4 -1,-1 -2,-1 -2,-1 0,-1 0,-2 0,-3z"/>
   <path class="fil91" d="M356 508c2,1 2,2 2,4 -2,-1 -2,-2 -2,-4z"/>
   <path class="fil67" d="M364 418c1,1 1,3 2,4 0,0 -1,1 -1,1 -2,-1 -3,-2 -1,-4l0 -1z"/>
   <path class="fil67" d="M364 411c0,0 1,0 1,0l0 0c2,1 2,2 1,3 0,0 0,1 -1,1 0,0 -1,0 -1,0l0 0c0,-2 0,-3 0,-4z"/>
   <path class="fil67" d="M368 417c1,0 2,2 2,3 -2,0 -3,-2 -2,-3z"/>
   <path class="fil95" d="M371 352c-1,0 -1,0 -2,0 0,-1 1,-3 1,-4 0,0 1,0 1,1 0,1 0,2 0,3z"/>
   <path class="fil77" d="M380 344c-2,0 -3,-2 -3,-3 2,0 3,2 3,3z"/>
   <path class="fil29" d="M392 347c2,0 3,1 3,3 -2,0 -2,-2 -3,-3z"/>
   <path class="fil62" d="M145 362c1,-2 3,-2 5,-2 -1,2 -3,2 -5,2z"/>
   <path class="fil62" d="M150 359c1,0 2,-1 4,-1 -1,2 -3,2 -4,2 0,0 0,-1 0,-1z"/>
   <path class="fil62" d="M155 364c-1,0 -2,0 -3,0 1,-2 2,-2 4,-2 0,1 0,1 -1,2z"/>
   <path class="fil62" d="M162 360c-1,2 -3,2 -5,2 1,-2 3,-2 5,-2z"/>
   <path class="fil64" d="M161 266c0,2 -2,3 -3,3 0,-2 1,-3 3,-3z"/>
   <path class="fil64" d="M169 260c-1,2 -2,3 -4,3 1,-2 2,-3 4,-3z"/>
   <path class="fil22" d="M39 350c0,1 1,2 2,2 -2,0 -3,0 -4,-1 0,-1 0,-1 0,-1 1,-1 1,0 2,0z"/>
   <path class="fil26" d="M196 506c0,-2 1,-3 2,-4 0,2 0,3 -2,4z"/>
   <path class="fil87" d="M231 368c0,0 0,1 1,2 -1,0 -2,1 -3,2 0,-2 0,-4 2,-4z"/>
   <path class="fil87" d="M237 356c0,2 0,3 -2,4 0,-2 1,-3 2,-4z"/>
   <path class="fil81" d="M218 319c0,-1 1,-1 2,-1 0,1 -1,1 -2,1z"/>
   <path class="fil90" d="M231 321c0,1 -1,2 -2,2 1,-1 1,-2 2,-2z"/>
   <path class="fil90" d="M233 319c0,2 0,2 -2,2 1,-1 1,-1 2,-2z"/>
   <path class="fil90" d="M235 318c0,1 0,1 -1,1 0,-1 0,-1 1,-1z"/>
   <path class="fil80" d="M241 312c0,0 -1,1 -2,1 1,0 2,-1 2,-1z"/>
   <path class="fil80" d="M243 310c0,0 -1,1 -2,1 1,0 2,-1 2,-1z"/>
   <path class="fil22" d="M37 351c-1,-1 -2,-2 -2,-2l0 -1c2,0 2,1 2,2l0 1z"/>
   <path class="fil69" d="M294 251c0,-1 1,-2 2,-2 -1,1 -1,2 -2,2z"/>
   <path class="fil17" d="M140 270c1,0 1,0 2,1 0,1 -1,1 -2,1l0 -1 0 -1z"/>
   <path class="fil94" d="M338 488c0,1 0,2 -1,3 0,-2 0,-2 1,-3z"/>
   <path class="fil56" d="M343 257c-1,0 -2,0 -3,0 1,-1 1,-2 2,-2 1,0 1,1 1,2z"/>
   <path class="fil75" d="M355 436c0,0 1,0 1,0l-1 -1 1 1 0 0c0,0 -1,0 -1,0z"/>
   <path class="fil22" d="M41 352c1,0 2,1 2,2 -1,0 -2,-1 -2,-2z"/>
   <path class="fil91" d="M358 512c1,0 1,1 2,2 -2,0 -2,-1 -2,-2z"/>
   <path class="fil67" d="M362 408c1,1 1,2 1,3 -1,-1 -1,-1 -1,-3z"/>
   <path class="fil67" d="M366 422c1,1 1,1 2,2 0,0 -1,1 -1,1 -1,0 -1,0 -2,-1 0,-1 0,-1 1,-2l0 0z"/>
   <path class="fil67" d="M368 415c0,0 0,1 0,2 -1,-1 -2,-2 -3,-2 1,0 1,-1 1,-1 1,0 1,0 2,1z"/>
   <path class="fil67" d="M368 424c1,1 1,1 2,2 0,0 -1,0 -1,1 -1,-1 -2,-1 -2,-2l1 -1z"/>
   <path class="fil67" d="M370 426c1,1 1,1 2,2 0,0 0,0 0,1 -1,0 -2,0 -2,-1l0 0c-1,0 -1,-1 -1,-2l1 0z"/>
   <path class="fil67" d="M370 420c1,0 2,1 2,2 -1,0 -2,-1 -2,-2z"/>
   <path class="fil67" d="M372 428c1,0 1,1 2,2l-1 0c0,1 0,1 -1,0 0,0 0,0 0,0l0 0c-1,0 -1,-1 -1,-2l1 0z"/>
   <path class="fil67" d="M377 427c1,0 2,0 2,1 -1,0 -2,0 -2,-1z"/>
   <path class="fil67" d="M379 428c1,0 2,1 2,2 -1,0 -1,-1 -2,-2z"/>
   <path class="fil26" d="M190 512c1,-1 1,-2 3,-2 -1,1 -2,2 -3,2z"/>
   <path class="fil26" d="M193 510c0,-1 0,-2 1,-2 0,1 0,2 -1,2z"/>
   <path class="fil26" d="M194 508c0,-1 1,-2 2,-2 0,1 0,2 -2,2z"/>
   <path class="fil34" d="M120 373c1,0 2,0 2,0 0,2 -1,4 1,4 4,2 7,7 11,8 1,0 1,2 0,2 0,1 -1,1 -1,2 0,0 1,0 1,0 0,3 1,5 4,6 0,1 0,2 -1,3 -1,2 -3,3 -6,3 -4,-1 -2,-5 -2,-7 -3,-1 -3,3 -5,3 -2,-3 -5,-5 -7,-8 1,-2 4,-1 6,-2 -3,-7 -8,-3 -13,-4 4,-3 7,-6 10,-10z"/>
   <path class="fil8" d="M103 471c1,0 3,0 4,-2 3,-4 6,-6 10,0 0,1 1,2 3,1 4,0 5,3 5,5 0,3 -3,3 -5,4 0,0 -1,1 -2,2 -5,-3 -10,-7 -15,-10z"/>
   <path class="fil8" d="M91 399c3,3 6,5 11,3 1,-1 2,0 2,1 1,1 0,2 0,3 -3,1 -5,3 -6,5 -3,3 -7,2 -8,-2 -2,-6 -5,0 -7,0 2,-5 5,-7 8,-10z"/>
   <path class="fil96" d="M73 430c2,1 3,2 5,3 3,1 4,3 3,6 -1,3 -4,3 -6,1 -1,0 -2,0 -3,0 0,-4 -1,-7 1,-10z"/>
   <path class="fil97" d="M145 502c2,2 4,4 7,4 1,2 -1,3 -2,4 -3,4 -6,3 -9,0 0,-3 -1,-6 2,-8 1,0 1,-1 2,0z"/>
   <path class="fil98" d="M85 451c0,1 0,1 0,2 0,1 -1,2 -1,2l0 0c-2,3 -1,6 -4,8 -2,-2 -5,-3 -6,-6 1,1 3,1 4,-1 2,-2 4,-4 5,-7 2,0 3,0 2,2z"/>
   <path class="fil81" d="M80 463c0,-3 1,-6 4,-8 1,4 5,6 1,10 -2,1 -3,-1 -5,-2z"/>
   <path class="fil99" d="M144 502c-1,3 -3,5 -3,8 -1,-3 -5,-3 -7,-6 4,2 6,-1 8,-4 2,0 3,0 2,2z"/>
   <path class="fil9" d="M119 366c0,1 0,1 -1,2 -3,0 -7,1 -11,0 3,-2 8,-2 12,-2z"/>
   <path class="fil100" d="M150 510c0,-1 1,-3 2,-4 1,-1 2,-2 4,-3 0,1 0,2 0,3 -1,2 -2,5 -4,6 -1,-1 -2,-1 -2,-2z"/>
   <path class="fil81" d="M85 465c3,0 5,0 6,2 -2,0 -4,0 -6,-2z"/>
   <path class="fil8" d="M93 397c0,1 -1,2 -2,2 1,-1 1,-2 2,-2z"/>
   <path class="fil8" d="M118 481c2,0 2,1 2,2 -1,0 -2,-1 -2,-2z"/>
   <path class="fil101" d="M99 129c-1,1 -2,2 -4,1 -3,-1 -4,-3 -8,0 -2,2 -15,-6 -17,-9 0,-3 1,-5 3,-6 5,-1 13,0 16,4 2,3 3,6 7,2 2,-1 4,0 4,2 1,2 1,4 -1,6l0 0z"/>
   <path class="fil102" d="M200 370c1,4 3,4 6,4 3,0 4,2 4,4 0,6 -7,8 -9,13 0,3 -4,2 -7,2 -3,-2 -2,-7 -6,-10 4,-5 8,-9 12,-13z"/>
   <path class="fil6" d="M167 465c2,-3 6,-1 8,-2 1,-1 0,-2 0,-3 -1,-1 -4,-2 -2,-5 2,-1 3,-1 5,0 3,4 7,4 11,2 1,-1 3,-1 4,0 1,2 1,3 0,5 -2,2 -4,5 -6,6 -3,2 -5,-1 -7,-2 -1,0 -2,0 -3,2 0,2 -2,3 -4,3 -3,2 -4,0 -6,-2l0 0c-1,-1 -1,-3 0,-4z"/>
   <path class="fil34" d="M142 399c2,-2 2,-6 7,-5 4,1 7,-4 10,-7 3,-2 5,-1 5,3 0,3 2,5 5,5 2,5 -3,7 -6,9 -1,1 -2,1 -4,2 0,0 -1,0 -2,0 -3,-1 -3,-7 -7,-5 -3,0 -6,1 -8,-2z"/>
   <path class="fil103" d="M161 403c3,-2 6,-5 8,-8 5,-5 10,-9 15,-14 1,1 2,2 3,2 -10,12 -21,22 -33,32 -2,0 -3,-1 -3,-2 0,-5 3,-7 7,-8 1,0 1,0 1,-1 1,0 2,0 2,-1z"/>
   <path class="fil6" d="M180 496c-2,0 -3,-1 -3,-2 1,-4 1,-8 4,-11 2,-2 5,-4 7,0 2,2 3,5 0,7 -3,1 -4,3 -6,5 -1,1 -2,1 -2,1z"/>
   <path class="fil5" d="M130 416c-2,0 -3,-1 -3,-4 0,-4 4,-7 8,-7 3,0 5,0 6,3 0,3 -7,8 -11,8z"/>
   <path class="fil34" d="M167 469c2,1 4,1 6,2 -1,2 -4,3 -3,6 1,3 0,5 -3,5 -2,1 -4,0 -5,-2 -1,-2 0,-4 1,-6 2,-1 4,-2 4,-5z"/>
   <path class="fil35" d="M189 428c-1,2 -2,5 -4,7 0,1 -2,2 -4,2 -1,-1 -2,-3 -2,-4 2,-4 1,-9 4,-13 2,2 4,5 6,8z"/>
   <path class="fil70" d="M152 413c0,0 1,1 2,2 -2,1 -3,3 -5,5 -1,3 -4,5 -7,6 -2,1 -4,3 -6,4 0,0 -1,0 -1,0 -1,-1 -1,-2 -2,-2 1,-1 1,-1 1,-2 0,-1 1,-1 3,-1 4,-4 9,-8 13,-12 0,-1 0,-1 1,-1 0,0 1,0 1,1z"/>
   <path class="fil104" d="M152 413c-1,0 -2,0 -2,0 -1,-4 3,-8 0,-12 3,-4 4,-5 6,-1 1,1 0,4 2,5 -2,3 -4,5 -6,8z"/>
   <path class="fil16" d="M117 389c7,1 7,1 7,8l0 0c0,1 -1,1 -2,2 -1,0 -2,0 -3,0 -1,-1 -2,-1 -2,-2 -2,-3 -2,-5 0,-8z"/>
   <path class="fil35" d="M160 456c0,4 -3,6 -3,9 0,2 -1,3 -3,2 -2,0 -2,-1 -2,-3 0,-4 3,-7 8,-8z"/>
   <path class="fil105" d="M142 426c2,-3 4,-5 7,-6 0,0 1,0 1,1 1,3 3,6 0,8 -4,3 -6,-1 -8,-3z"/>
   <path class="fil16" d="M189 428c-5,0 -6,-3 -6,-8 2,-3 5,-1 8,0 1,2 1,4 0,6 -1,1 -2,1 -2,2l0 0z"/>
   <path class="fil36" d="M137 425c-1,1 -2,2 -3,3 0,1 -1,1 -1,1 -2,-2 -3,-3 -5,-3 -2,0 -3,-1 -2,-3 0,-2 2,-2 3,-2 3,0 5,3 8,4z"/>
   <path class="fil10" d="M180 408c-2,-1 -4,-3 -4,-5 -1,-2 1,-3 2,-3 3,0 4,1 5,4 0,2 -1,3 -3,4z"/>
   <path class="fil21" d="M170 416c0,-1 1,-3 3,-3 3,0 4,2 4,5 -1,2 -2,2 -4,2 -2,0 -3,-2 -3,-4z"/>
   <path class="fil106" d="M134 432c-4,3 -8,7 -11,10 -2,0 -3,0 -3,-2 4,-4 8,-6 10,-10 1,0 1,-1 2,0 1,0 2,1 2,2z"/>
   <path class="fil107" d="M113 450c-2,3 -7,4 -10,7 1,-4 4,-7 8,-9 1,0 2,0 2,2z"/>
   <path class="fil108" d="M120 440c1,0 2,1 3,2 -2,2 -4,3 -6,4 -1,1 -2,1 -3,0 2,-3 4,-5 6,-6z"/>
   <path class="fil109" d="M85 451c0,0 -1,-1 -2,-2 1,-2 3,-3 4,-5 2,-1 3,0 3,2 -2,2 -2,4 -5,5z"/>
   <path class="fil110" d="M90 446c-1,-1 -2,-1 -3,-2 1,-2 3,-5 5,-3 2,2 -1,4 -2,5z"/>
   <path class="fil111" d="M144 496c0,0 0,-1 1,-1 0,-1 1,-3 3,-2 1,1 0,2 0,3 -1,1 -1,2 -2,3 -1,0 -1,-2 -2,-3z"/>
   <path class="fil112" d="M144 496c1,1 2,2 2,3 0,1 0,2 -1,3 0,0 -1,0 -1,0 -1,-1 -1,-1 -2,-2 1,-1 1,-2 2,-4z"/>
   <path class="fil113" d="M114 446c1,0 2,0 3,0 -1,2 -3,3 -4,4 -1,-1 -2,-2 -2,-2 1,-1 2,-2 3,-2z"/>
   <path class="fil35" d="M191 426c0,-2 0,-4 0,-6 2,2 2,4 0,6z"/>
   <path class="fil99" d="M134 432c-1,-1 -1,-1 -2,-2 -1,-1 0,-1 1,-2l0 1c0,0 1,-1 1,-1l1 1c0,0 0,0 0,1l1 0c-1,1 -1,1 -2,2z"/>
   <path class="fil114" d="M156 506c0,-1 0,-2 0,-3 0,0 1,-1 1,0 1,2 0,3 -1,3z"/>
   <path class="fil34" d="M167 465c0,1 0,3 0,4 -2,-1 -2,-3 0,-4z"/>
   <path class="fil81" d="M84 455c0,-1 0,-2 1,-2 0,1 0,2 -1,2z"/>
   <path class="fil35" d="M189 428c0,0 1,-1 2,-2 -1,1 -2,2 -2,2z"/>
   <path class="fil34" d="M117 397c0,1 1,1 2,2 -1,-1 -2,-1 -2,-2z"/>
   <path class="fil34" d="M122 399c1,-1 2,-1 2,-2 0,1 -1,1 -2,2z"/>
   <path class="fil36" d="M133 428c0,1 -1,2 -1,2 0,0 -1,0 -2,0 1,-1 1,-1 3,-2z"/>
   <path class="fil38" d="M144 284c2,-2 6,-3 6,-7 5,-1 5,-1 6,5l0 0c5,0 8,2 9,8 1,5 4,7 9,8 8,1 10,7 5,13 -2,2 -5,4 -4,8 -1,0 -1,-1 -2,-1 -8,-1 -9,-8 -11,-14 -3,-9 -9,-16 -18,-20z"/>
   <path class="fil40" d="M64 335c-3,-1 -7,0 -10,-2 2,0 3,0 5,0 9,1 15,-1 19,-11 3,-7 7,-8 13,-4 2,2 2,4 1,7 -2,8 -7,12 -17,12 -2,-2 -5,-1 -7,-1 -1,0 -3,0 -4,-1z"/>
   <path class="fil16" d="M89 345c0,-2 1,-4 3,-5 2,-1 4,-1 5,0 3,3 5,7 6,11 0,1 -1,3 -3,3 -4,0 -10,-5 -11,-9z"/>
   <path class="fil38" d="M157 333c-2,0 -6,0 -7,-4 0,-2 2,-3 4,-5 2,-2 4,-4 7,-1 2,1 3,1 5,1 3,-1 4,1 5,3 -3,2 -6,4 -10,4l0 0c-2,-1 -2,1 -4,2l0 0z"/>
   <path class="fil16" d="M132 343c-3,1 -5,1 -7,-2 -1,-2 -1,-5 1,-7 3,-2 5,-4 4,-7 4,-2 7,-1 7,4 0,4 -1,9 -5,12z"/>
   <path class="fil12" d="M161 331c3,-4 6,-4 10,-4l0 0c1,1 1,1 2,2 0,1 0,1 0,2 -5,8 -8,8 -12,0z"/>
   <path class="fil10" d="M134 309c-1,3 -5,7 -8,6 -2,-1 -4,-2 -3,-4 1,-4 5,-5 8,-5 2,0 3,1 3,3z"/>
   <path class="fil34" d="M132 343c1,-4 2,-7 3,-11 2,-5 -1,-5 -5,-5 4,-3 7,-4 8,2 0,3 2,3 4,2 0,0 0,1 1,1 0,5 -4,8 -6,12 0,0 -1,0 -1,1 -1,-1 -3,-2 -4,-2z"/>
   <path class="fil34" d="M146 331c3,5 1,12 2,17 -2,1 -5,0 -7,1 -4,1 -5,-1 -5,-4l0 -1c9,0 6,-8 9,-12 0,-1 0,-1 1,-1z"/>
   <path class="fil5" d="M124 358c-2,0 -3,-1 -3,-4 0,-2 0,-4 3,-4 2,0 4,2 4,5 0,2 -2,3 -4,3z"/>
   <path class="fil115" d="M58 347c6,-1 10,2 16,3 -8,1 -16,2 -24,-1 2,-3 6,0 8,-2z"/>
   <path class="fil38" d="M175 319c1,0 3,-2 4,-1 3,2 -1,5 0,7 -2,-1 -3,-4 -4,-6z"/>
   <path class="fil116" d="M58 347c-2,2 -5,1 -8,2 -1,0 -2,-1 -3,-1 -1,0 -1,-1 0,-2l0 0c2,-1 4,-1 6,0 2,0 3,1 5,1z"/>
   <path class="fil117" d="M37 350c-1,0 -1,-1 -2,-2 2,-3 5,-1 7,-1 1,0 1,0 1,1 -2,1 -3,1 -4,2 -1,0 -1,0 -2,0z"/>
   <path class="fil118" d="M68 335c3,0 5,-1 7,2 -2,0 -5,0 -7,0 -1,-1 -1,-1 0,-2z"/>
   <path class="fil119" d="M53 346c-2,0 -4,0 -6,0 0,0 0,-1 0,-1 2,-1 4,0 6,1z"/>
   <path class="fil119" d="M43 344c-2,1 -4,1 -6,-1 2,-1 4,0 6,1z"/>
   <path class="fil120" d="M68 335c0,0 0,1 0,2 -1,0 -3,0 -4,0 0,-1 0,-1 0,-2 1,0 3,0 4,0z"/>
   <path class="fil34" d="M142 331c1,-2 2,-2 4,0l0 0c-2,1 -3,1 -4,0l0 0z"/>
   <path class="fil119" d="M43 348c0,0 -1,-1 -1,-1 2,0 3,0 5,-1 0,1 0,2 0,2 -2,0 -3,0 -4,0z"/>
   <path class="fil38" d="M173 329c-1,-1 -1,-1 -2,-2 1,1 1,1 2,2z"/>
   <path class="fil38" d="M142 286c1,-1 1,-1 2,-2 -1,1 -1,1 -2,2z"/>
   <path class="fil121" d="M280 411c0,4 4,3 6,4 6,1 8,3 8,9 -7,-4 -14,-4 -22,-4 -2,-3 -3,-6 -9,-2 -3,2 -8,3 -12,2 -1,-2 -1,-3 0,-5l0 0c1,-1 1,-2 2,-2l0 0c2,-2 3,-3 5,-4 4,-2 7,-4 10,1 1,2 3,1 4,1 3,-2 5,-2 8,0l0 0z"/>
   <path class="fil6" d="M249 437c0,-4 1,-6 4,-6 4,0 9,-5 12,0 3,5 -5,5 -7,8 -1,2 -4,3 -7,2 -1,-1 -2,-3 -2,-4z"/>
   <path class="fil35" d="M235 458c0,-2 0,-5 -2,-5 -3,-1 -4,-2 -3,-5 1,-3 4,-2 6,-2 2,0 4,1 4,4 1,10 1,10 8,16 -3,2 -7,-1 -11,1 -3,-3 1,-7 -2,-9z"/>
   <path class="fil122" d="M245 522c0,-4 0,-7 2,-11 3,6 4,6 12,3 -1,4 -2,9 -2,13 -1,0 -1,1 -1,1 -1,0 -1,-1 -2,-1 0,-2 -1,-3 -3,-3 -2,-1 -4,-2 -6,-2z"/>
   <path class="fil123" d="M232 491c-1,-2 -1,-3 -2,-4 0,-8 2,-14 4,-22 3,0 2,2 2,4 -1,8 -2,15 -4,22z"/>
   <path class="fil124" d="M251 481c1,-4 1,-8 6,-12 -1,6 -2,10 -4,14 -1,0 -1,-2 -2,-2z"/>
   <path class="fil112" d="M280 446c0,3 0,6 -2,8 -2,-1 0,-3 -2,-4 1,-4 2,-7 2,-10 5,1 2,4 2,6z"/>
   <path class="fil125" d="M276 450c2,1 2,2 2,4 0,2 0,5 0,7 0,1 -1,1 -2,1 -1,-1 0,-4 -2,-5 0,-2 2,-5 2,-7z"/>
   <path class="fil126" d="M274 457c2,1 2,3 3,5 0,3 2,6 -2,8 -1,-2 -1,-4 -3,-5 0,-3 2,-5 2,-8z"/>
   <path class="fil127" d="M236 469c-1,-1 -1,-3 -2,-4 -1,-2 1,-5 1,-7 4,2 2,6 2,9 0,1 -1,2 -1,2z"/>
   <path class="fil128" d="M280 446c0,-2 1,-4 -2,-6 1,-2 2,-5 2,-8 4,3 2,7 2,10 0,1 -1,3 -2,4z"/>
   <path class="fil115" d="M249 497c0,-1 -1,-2 -2,-3 0,-3 1,-5 2,-7 4,0 3,2 2,4 0,2 0,4 -2,6z"/>
   <path class="fil129" d="M251 491c0,-2 0,-3 -2,-4 1,-2 1,-4 2,-6 1,0 1,1 2,2 0,3 0,5 -2,8z"/>
   <path class="fil37" d="M251 415c0,1 0,3 0,5 -3,-2 -3,-3 0,-5z"/>
   <path class="fil37" d="M253 413c-1,0 -1,1 -2,2 1,-1 1,-2 2,-2z"/>
   <path class="fil130" d="M276 372c2,1 4,2 5,4 5,8 3,13 -7,15 -2,0 -3,-2 -3,-3 -1,-3 -1,-6 -2,-8 0,-1 -1,-2 -1,-3 1,-5 3,-8 8,-5z"/>
   <path class="fil73" d="M315 350c0,2 0,4 0,6l0 0c-1,1 -1,1 -2,2l0 0c-1,1 -3,2 -4,4 -4,6 -7,3 -9,-2 -2,-3 -3,-6 -3,-9 5,-1 9,-3 14,-3 1,1 1,4 4,2z"/>
   <path class="fil12" d="M276 372c-6,-1 -6,3 -6,8 -2,1 -4,0 -6,-2 -1,-3 -1,-5 -1,-8 -2,-6 -4,-2 -6,0 -3,-4 -7,-7 -6,-12 5,0 9,3 14,1 2,-2 5,1 6,3 2,4 -3,3 -3,5 2,4 6,2 8,5z"/>
   <path class="fil41" d="M264 378c2,0 4,1 6,2l0 0c2,2 0,5 2,7 1,2 2,3 2,4 0,1 0,2 0,2 -2,0 -3,-1 -5,-1 -6,-1 -12,-1 -9,-10 0,-1 -3,-3 -3,-6l0 0c3,-2 5,-1 7,2z"/>
   <path class="fil73" d="M280 323c1,-1 1,-3 1,-4 2,-4 4,-5 8,-4 4,2 7,3 11,5 -3,6 -9,1 -12,5 -3,0 -6,-1 -8,-2z"/>
   <path class="fil104" d="M329 428c-3,0 -6,0 -9,0 -4,-1 -3,2 -3,4 -1,1 -2,1 -2,0 -2,-1 0,-4 -2,-6 2,-4 6,-8 7,-13 5,3 1,7 4,10 1,-1 2,-2 3,-3 2,3 3,5 2,8z"/>
   <path class="fil11" d="M290 375c-1,0 -1,-1 -1,-2 1,-3 1,-6 -3,-3 -2,1 -3,2 -5,1 -2,-1 -3,-4 -1,-5 2,-3 9,-3 12,-1 2,3 2,5 -2,10z"/>
   <path class="fil130" d="M315 432c1,0 1,0 2,0 0,1 1,1 1,1 1,-1 1,-1 1,-1 1,0 1,0 2,0 1,-1 3,-1 4,0l0 0c0,1 1,1 2,2 2,7 2,7 -4,10 -1,-2 -2,-3 -4,-4 -2,-2 -4,-2 -5,-4 0,-2 0,-3 1,-4z"/>
   <path class="fil73" d="M299 343c1,-1 1,-3 1,-3 7,0 9,-6 15,-7 3,4 1,8 -1,11 -1,1 -2,1 -3,1 -3,-2 -8,1 -12,-2z"/>
   <path class="fil131" d="M278 337c4,5 4,7 1,10 -2,1 -4,2 -5,1 -2,-2 -3,-4 -2,-6 1,-3 3,-5 6,-5l0 0z"/>
   <path class="fil130" d="M309 378c-7,-1 -8,-2 -6,-8 4,-5 7,-4 10,0l0 0c3,4 -2,5 -4,8z"/>
   <path class="fil45" d="M315 432c0,1 0,3 0,4 -1,5 -3,3 -6,2 -5,-3 -2,-7 0,-10 2,0 3,0 4,-2 2,2 2,4 2,6z"/>
   <path class="fil45" d="M329 428c-2,-2 -3,-5 -2,-8 4,-4 7,0 9,2 3,5 0,6 -3,6 -2,0 -3,0 -4,0z"/>
   <path class="fil33" d="M313 370c-3,-2 -6,-2 -10,0 0,-4 -5,-6 -3,-10 2,3 5,6 8,1 1,-2 3,-3 5,-3 -5,4 -2,8 0,12z"/>
   <path class="fil130" d="M285 360c-2,-1 -3,-2 -3,-4 1,-3 3,-5 6,-5 2,0 3,2 2,3 -1,3 -2,6 -5,6z"/>
   <path class="fil104" d="M333 428c1,-2 4,-3 3,-6 4,3 2,6 3,9 -4,1 -5,0 -6,-3z"/>
   <path class="fil131" d="M278 337c-1,-3 -3,-5 0,-8 1,0 2,1 3,1 2,3 0,5 -3,7l0 0z"/>
   <path class="fil132" d="M311 345c1,0 1,0 2,-1 1,0 1,1 2,1 0,1 1,1 1,1 -1,2 -1,3 -1,4 -1,1 -2,3 -3,2 -1,0 -1,-2 -1,-4 0,-1 0,-2 0,-3z"/>
   <path class="fil33" d="M309 378c1,-3 4,-5 4,-8 3,5 2,6 -4,8z"/>
   <path class="fil104" d="M325 432c-2,0 -3,0 -4,0 1,-2 3,-2 4,0z"/>
   <path class="fil33" d="M313 358c1,-1 1,-1 2,-2 -1,1 -1,1 -2,2z"/>
   <path class="fil104" d="M319 432c0,1 -1,1 -1,1 -1,0 -1,-1 -1,-1 1,0 1,0 2,0z"/>
   <path class="fil104" d="M327 434c-1,-1 -2,-1 -2,-2 0,1 1,1 2,2z"/>
   <path class="fil73" d="M338 348c2,-5 1,-9 -3,-11 -1,-1 -2,-3 -1,-5 2,-2 2,-3 -1,-5 -2,-1 -3,-3 -1,-6 2,-2 6,-3 8,-1 2,2 4,4 7,4 4,-1 5,2 5,6 -1,3 -3,2 -5,1 -4,0 -6,2 -4,5 4,7 -1,8 -5,12z"/>
   <path class="fil87" d="M329 302c1,-6 3,-13 5,-18 0,2 0,4 1,6 3,7 -1,10 -6,12z"/>
   <path class="fil64" d="M319 335c0,-2 1,-3 2,-4 0,0 0,0 0,1 -1,3 5,5 2,9 -2,2 -5,3 -7,5l-1 0c-2,-4 1,-8 4,-11z"/>
   <path class="fil130" d="M329 286c-1,4 -2,8 -4,12 0,-2 0,-5 -3,-6 -2,0 -3,-1 -5,-2 -3,-2 -2,-5 -1,-8 1,-3 4,-2 6,-1 4,0 4,3 7,5z"/>
   <path class="fil73" d="M303 290c2,3 4,1 6,0 3,0 4,2 4,4 0,2 -1,4 -4,4 -3,0 -7,-3 -11,-1 1,-4 1,-7 3,-9 2,0 2,1 2,2z"/>
   <path class="fil73" d="M321 313c0,5 -2,9 -4,13 -1,-4 -4,-5 -6,-8 -1,-2 -2,-3 0,-5 2,-2 4,-1 5,1 2,3 3,0 5,-1z"/>
   <path class="fil133" d="M319 335c0,4 -3,7 -4,11 -1,0 -1,-1 -2,-2 1,-4 1,-7 2,-11 0,-1 1,-1 0,-2 0,-1 1,-1 2,0 0,1 0,3 2,4z"/>
   <path class="fil108" d="M313 268c1,1 1,2 2,2 -2,4 -4,7 -6,10 -2,1 -2,0 -2,-2 2,-3 3,-7 6,-10z"/>
   <path class="fil76" d="M307 278c1,1 1,2 2,2 -2,3 -4,7 -6,10 0,-1 -1,-1 -2,-2 2,-3 3,-7 6,-10z"/>
   <path class="fil73" d="M317 331c-1,0 -1,0 -2,0 0,0 0,0 0,0 -1,-1 -3,-3 -3,-4 1,-2 3,0 5,0 0,1 0,2 0,4z"/>
   <path class="fil36" d="M368 409c0,-6 -2,-11 -4,-16 2,-3 3,-5 2,-9 -1,-5 1,-6 7,-4 0,0 1,0 1,0 1,1 1,1 1,2 1,1 1,2 2,3 0,1 0,2 0,3 0,1 0,1 0,2 1,2 1,4 1,6 1,1 1,3 2,4 1,0 1,1 2,2 0,0 0,0 0,1 0,1 0,1 -1,2 -4,0 -4,3 -4,6 0,0 -1,0 -1,0 0,0 -1,0 -1,0 0,-1 -1,-2 -2,-2 -1,-2 -1,-3 0,-4 -1,-2 -2,-2 -3,0 -1,1 -1,3 -2,4z"/>
   <path class="fil17" d="M368 415c-1,-1 -1,-1 -2,-1 0,-1 -1,-2 -1,-3 2,0 3,2 3,4z"/>
   <path class="fil36" d="M373 405c0,1 0,2 0,4 -2,-2 -2,-3 0,-4z"/>
   <path class="fil36" d="M375 411c1,0 2,0 2,0 0,0 0,1 -1,0 0,0 0,0 -1,0z"/>
   <path class="fil36" d="M434 422c-1,0 -2,-1 -2,-1l0 -1c0,0 1,0 1,0 1,0 1,0 1,0 0,1 0,1 0,1 0,1 0,1 0,1z"/>
   <path class="fil36" d="M436 424c-1,0 -2,-1 -2,-2l0 0c1,0 2,1 2,2l0 0z"/>
   <path class="fil134" d="M393 387c-3,0 -5,-1 -5,-3 -1,-3 -3,-5 -5,-8 -2,-2 -2,-4 1,-5 2,-2 5,-2 6,1 2,3 4,6 6,9 2,3 0,6 -3,6z"/>
   <path class="fil11" d="M381 405c0,-1 0,-1 0,-2 1,-2 4,-3 4,-6 0,-1 0,-3 0,-4 0,-2 1,-4 4,-3 2,0 3,1 3,4 0,10 0,10 -11,11z"/>
   <path class="fil17" d="M385 397c2,1 3,2 3,3 -1,3 -4,3 -7,3l0 0c-1,-1 -1,-2 -2,-3 -1,-1 -2,-2 -2,-3 -1,-2 -2,-5 -2,-8 2,-1 3,1 4,1 1,0 2,1 2,1 0,1 0,3 0,4 1,1 1,1 2,2l0 0c1,1 1,1 1,1 1,-1 1,-1 1,-1l0 0z"/>
   <path class="fil11" d="M411 409c0,-3 1,-4 3,-4 2,0 4,0 4,3 0,1 -1,2 -3,2 -2,1 -3,1 -4,-1z"/>
   <path class="fil135" d="M372 372c1,-1 1,-3 2,-5 2,3 2,7 2,10 1,2 0,3 -2,2l-1 1c0,-3 -1,-6 -1,-8z"/>
   <path class="fil136" d="M379 391c-2,2 -2,-2 -4,-2 0,-1 1,-1 1,-2 1,-1 0,-3 2,-4 1,2 1,4 2,6 0,1 0,2 -1,2z"/>
   <path class="fil137" d="M378 383c-1,2 -1,3 -2,4 -1,-1 -1,-1 -1,-2 -1,-1 0,-3 -2,-4 1,0 1,-1 1,-2 0,0 1,-1 2,-2 1,2 1,4 2,6z"/>
   <path class="fil138" d="M434 421c-1,0 -2,-1 -2,-1 -1,-1 -2,-2 -2,-3 -1,-1 -1,-2 0,-3 2,1 4,2 6,5 -1,1 -1,1 -2,2z"/>
   <path class="fil139" d="M430 414c0,1 0,2 0,3 -2,-1 -3,-3 -4,-4 0,-1 1,-2 2,-2 1,1 1,2 2,3z"/>
   <path class="fil95" d="M373 364c-2,-2 -1,-4 -1,-7 1,2 1,5 1,7z"/>
   <path class="fil11" d="M379 391l0 -1 1 -1c0,1 1,2 1,2 0,0 -1,0 -2,0z"/>
   <path class="fil11" d="M383 397c0,-1 -1,-1 -2,-2 1,1 2,1 2,2z"/>
   <path class="fil11" d="M385 397c0,1 -1,1 -1,1 -1,0 -1,-1 -1,-1 1,0 1,0 2,0z"/>
   <path class="fil140" d="M356 461l0 -1 0 0c0,-3 0,-5 0,-8 0,-4 2,-4 6,-4 0,0 1,1 1,2 1,3 1,6 1,9 -1,4 1,6 5,7 3,1 6,2 8,5 -2,3 -6,1 -9,2 -2,5 1,10 -1,16 -6,0 -11,-4 -17,-2 0,-2 0,-3 0,-4 2,-2 4,0 6,0 3,-3 -1,-6 0,-8 0,0 -1,-1 -1,-1 0,0 0,-1 0,-1 1,-3 0,-6 0,-9 -1,-1 0,-2 1,-3z"/>
   <path class="fil27" d="M368 467c-5,0 -8,-1 -7,-7 1,-3 1,-7 1,-11 4,0 2,4 3,6 0,1 0,3 0,4 0,2 1,1 1,1 -3,-2 -1,-4 -1,-6 -2,-6 1,-12 -1,-18 0,-3 0,-5 -1,-7 0,-3 -1,-5 3,-5 0,0 1,1 1,1 1,1 1,1 2,1 0,1 0,2 1,2 -3,5 4,9 -1,15 -3,3 -1,9 -1,14 0,1 1,2 1,3 0,1 0,2 1,3l0 0c1,2 -1,3 -2,4z"/>
   <path class="fil27" d="M371 428c1,1 1,1 1,2 -1,0 -2,-1 -2,-2 0,0 1,0 1,0z"/>
   <path class="fil102" d="M301 461c6,-1 11,3 17,2 1,-1 2,1 3,3 0,2 -1,4 -3,5 -2,2 -7,1 -7,6 -4,5 -10,3 -15,4 -2,-1 -1,-3 -2,-4 1,-3 3,-6 4,-10 1,-2 0,-5 3,-6l0 0z"/>
   <path class="fil15" d="M275 470c2,-3 1,-5 2,-8 0,-1 0,-1 1,-1 1,4 3,8 -2,12 4,1 8,1 12,2 1,1 1,1 1,2 0,2 0,3 -2,3 -3,0 -7,3 -10,1 -3,-2 -3,1 -5,2 1,-5 2,-9 3,-13z"/>
   <path class="fil23" d="M266 506c1,-5 2,-10 4,-14 0,1 0,2 0,3 3,7 3,7 -4,11z"/>
   <path class="fil141" d="M294 487c-1,4 -3,8 -4,12 -2,-1 -1,-3 -2,-5 0,-3 2,-6 4,-9 2,-1 2,0 2,2z"/>
   <path class="fil39" d="M301 461c-1,2 -1,5 -3,6 -1,-1 -1,-2 -1,-4 -1,-1 -2,-3 0,-4 2,-2 3,2 4,2z"/>
   <path class="fil142" d="M294 487c-1,-1 -2,-2 -2,-2 0,-3 1,-5 2,-8 1,1 2,2 2,4 0,2 0,4 -2,6z"/>
   <path class="fil143" d="M288 494c2,1 2,3 2,5 0,1 0,3 -2,4 0,-1 -1,-2 -2,-3 0,-2 1,-4 2,-6z"/>
   <path class="fil143" d="M286 501c0,2 -1,2 -2,3 1,-1 1,-2 2,-3z"/>
   <path class="fil104" d="M206 346c2,0 4,2 6,3 -4,5 -8,11 -13,15 -1,0 -2,-1 -3,-2 -3,0 -6,-1 -5,-4 1,-3 3,-7 8,-4 1,0 2,0 2,1 2,-3 0,-8 5,-9z"/>
   <path class="fil34" d="M132 370c6,-2 12,-3 18,-4 0,2 1,5 2,8l0 0c-5,4 -8,-3 -12,-2 -2,-3 -6,-2 -8,-2z"/>
   <path class="fil105" d="M194 370c-3,3 -6,7 -9,9 1,-3 -6,-5 -3,-9 4,-4 8,-1 12,0z"/>
   <path class="fil34" d="M152 374c3,-1 6,1 9,2 2,0 3,1 3,3 -1,2 -2,2 -4,2 -5,1 -7,0 -8,-7l0 0z"/>
   <path class="fil34" d="M152 386c-5,0 -7,-2 -9,-4 0,-1 -1,-3 0,-4 2,0 3,0 4,1 1,2 3,4 5,7z"/>
   <path class="fil34" d="M138 377c-2,0 -3,0 -3,-2 -1,-2 1,-3 3,-3 2,0 2,0 3,2 0,2 -2,3 -3,3z"/>
   <path class="fil16" d="M134 389c-1,1 -2,1 -4,2 -1,0 -3,-2 -3,-3 0,-3 3,-3 4,-2 1,0 2,1 3,1 0,1 0,2 0,2z"/>
   <path class="fil34" d="M143 389c0,1 -1,2 -2,2 -1,0 -2,0 -2,-1 0,-2 1,-2 2,-2 1,0 1,0 2,1z"/>
   <path class="fil143" d="M286 509c0,-1 1,-2 1,-3 0,1 0,2 -1,3z"/>
   <path class="fil61" d="M192 274c1,1 2,2 2,2 1,1 1,1 1,2 0,2 1,5 0,7 -1,2 -3,3 -4,1 -3,0 -5,-1 -6,-3 -2,-3 -2,-6 0,-9 3,-3 5,0 7,0z"/>
   <path class="fil40" d="M187 315c-5,-3 -1,-4 2,-6 0,0 1,-1 2,-1 0,0 1,0 1,0 3,2 5,4 4,7l0 0c0,1 -1,2 -2,2l0 0c-3,2 -6,2 -7,-2z"/>
   <path class="fil61" d="M165 276c1,2 3,2 4,2 6,0 9,2 10,8 -6,0 -10,-6 -16,-6 -1,-1 1,-3 2,-4z"/>
   <path class="fil68" d="M202 265c-2,4 -4,8 -10,8 -1,-3 -3,-2 -5,-2 0,-5 5,-3 7,-6 3,0 5,-3 8,0z"/>
   <path class="fil144" d="M191 286c1,0 3,0 3,-2 1,0 1,0 1,-1 1,0 1,1 2,1 1,0 1,1 2,2 -4,3 -8,5 -13,6 2,-2 3,-4 5,-6z"/>
   <path class="fil145" d="M195 267c-2,2 -6,1 -8,4 -2,0 -3,0 -4,0 -1,-1 -1,-2 0,-2 2,-2 5,-3 8,-4 1,1 3,0 4,2z"/>
   <path class="fil146" d="M199 286c-1,0 -2,-1 -3,-2 1,-3 3,-4 6,-4 1,0 2,0 2,0 1,1 2,1 2,2 0,1 0,1 0,2 -3,1 -5,2 -7,2z"/>
   <path class="fil66" d="M209 310c-2,0 -3,-1 -2,-3 0,-1 2,-1 3,-1 1,0 1,1 1,2 0,2 -1,2 -2,2z"/>
   <path class="fil147" d="M183 269c0,0 0,1 0,2 -1,1 -3,2 -4,2 -1,-1 -1,-2 -2,-2 2,-1 4,-2 6,-2z"/>
   <path class="fil148" d="M233 267c1,1 3,2 4,2 1,1 1,1 0,1l0 0c-5,1 -8,4 -13,5 -2,0 -4,1 -4,-2 4,-3 8,-5 13,-6z"/>
   <path class="fil68" d="M202 280c-2,2 -4,3 -6,4l0 0c-1,-2 -4,-4 -2,-8l0 0c6,-2 6,-2 8,4z"/>
   <path class="fil149" d="M195 267c-2,0 -3,0 -4,-2 3,-2 6,-3 9,-4 1,2 3,2 4,2 0,1 -1,1 -2,2 -2,1 -5,1 -7,2z"/>
   <path class="fil150" d="M220 273c1,1 2,1 4,2 -2,1 -4,2 -6,3 -1,1 -2,2 -4,2 -1,-1 -2,-2 -2,-3 3,-2 5,-3 8,-4z"/>
   <path class="fil151" d="M212 277c1,0 2,1 2,2 0,3 -3,2 -4,3 -1,0 -3,0 -4,0 0,0 -1,-1 -2,-2 3,-1 5,-2 8,-3z"/>
   <path class="fil11" d="M251 409c-4,1 -6,-2 -8,-5 -1,-1 -1,-3 0,-4 2,-2 4,-5 8,-4 1,0 1,0 1,0 3,2 8,0 10,5 0,3 -6,7 -11,8z"/>
   <path class="fil41" d="M280 411c-3,0 -5,0 -8,0 3,-3 5,-3 8,0z"/>
   <path class="fil84" d="M134 247c-1,0 -2,0 -4,0 -1,-1 -2,-1 -4,-2 0,0 0,-1 0,-2 5,1 10,-1 14,2 -1,2 -4,0 -6,2z"/>
   <path class="fil152" d="M126 243c0,1 0,2 0,2 -3,0 -6,-1 -9,-2 3,-3 6,-2 9,0z"/>
   <path class="fil45" d="M251 278c1,2 -1,2 -2,2 -4,0 -6,-2 -5,-5 0,-2 2,-2 3,-2 3,0 5,2 4,5z"/>
   <path class="fil45" d="M237 270c0,0 0,-1 0,-1 2,0 3,0 4,-1 -1,2 -2,3 -4,2z"/>
   <path class="fil45" d="M241 268c1,-1 2,-1 4,-1 -1,1 -2,2 -4,1z"/>
   <path class="fil69" d="M287 249c1,-1 2,-2 3,-1 -1,1 -2,1 -3,1z"/>
   <path class="fil104" d="M309 438c2,0 5,0 6,-2 2,1 3,2 4,4 -3,-1 -8,3 -10,-2z"/>
   <path class="fil27" d="M228 249c-2,2 -4,2 -6,2 1,-2 3,-2 6,-2z"/>
   <path class="fil27" d="M232 248c-1,1 -3,1 -4,1 0,-2 2,-2 4,-1z"/>
   <path class="fil15" d="M187 315c2,2 5,3 7,2 -2,2 -3,6 -5,8 -2,-2 -3,-4 -4,-6 0,-1 1,-2 2,-4z"/>
   <path class="fil40" d="M185 319c4,0 4,3 4,6 -2,0 -3,0 -4,0 -1,-2 -3,-4 0,-6z"/>
   <path class="fil92" d="M191 335c-1,0 -2,0 -2,-1 -2,0 -2,-1 -2,-2 0,-1 1,-2 1,-2 1,1 2,2 2,3 0,1 0,1 1,2l0 0z"/>
   <path class="fil30" d="M157 333c1,-3 1,-5 4,-2 -1,1 -2,1 -4,2z"/>
   <path class="fil15" d="M194 317c1,0 2,-1 2,-2 0,1 -1,2 -2,2z"/>
   <path class="fil125" d="M169 249c-1,0 -3,0 -4,0 -6,-2 -12,0 -18,-1 -2,0 -3,0 -3,-2 8,-1 15,-1 23,-1 3,0 4,2 2,4z"/>
   <path class="fil153" d="M144 246c0,0 1,1 2,1 1,1 1,1 0,2 -4,0 -8,-1 -12,-2 2,-2 4,-1 6,-2 1,0 3,0 4,1z"/>
   <path class="fil104" d="M212 349c0,-1 1,-2 2,-2 0,1 -1,2 -2,2z"/>
   <path class="fil90" d="M232 327c0,-1 0,-2 1,-2 0,1 0,2 -1,2z"/>
   <path class="fil90" d="M233 325c0,-1 1,-2 2,-2 0,1 -1,2 -2,2z"/>
   <path class="fil90" d="M235 323c0,-1 1,-2 2,-2 0,1 -1,2 -2,2z"/>
   <path class="fil90" d="M237 321c0,-1 1,-2 2,-2 0,1 -1,2 -2,2z"/>
   <path class="fil3" d="M282 275c0,0 0,1 0,1 -1,-1 -1,-1 0,-1z"/>
   <path class="fil3" d="M284 274c-1,1 -1,1 -2,1 0,-1 1,-1 1,-1 0,0 0,0 1,0z"/>
   <path class="fil15" d="M191 308c-1,0 -2,1 -2,1 0,0 1,-1 2,-1z"/>
   <path class="fil154" d="M210 282c1,-1 3,-2 4,-3 1,0 3,-1 4,-1 0,2 3,5 0,7 -4,3 -6,-1 -8,-3z"/>
   <path class="fil155" d="M434 421c0,-1 1,-2 2,-2 2,1 4,2 6,5 -1,1 -2,2 -3,2 -1,0 -2,-1 -3,-2 0,-1 -1,-2 -2,-2 0,0 0,-1 0,-1z"/>
   <path class="fil45" d="M264 378c-2,0 -5,-1 -7,-2 0,-2 0,-4 0,-6 0,-2 0,-3 0,-5 0,-2 2,-3 3,-3 2,0 4,1 4,3 1,4 4,8 0,13z"/>
   <path class="fil56" d="M340 262c0,3 1,5 -2,7 0,-3 0,-5 2,-7z"/>
   <path class="fil17" d="M356 483c-2,3 -4,0 -6,0 0,-2 -1,-5 2,-5 3,0 3,3 4,5z"/>
   <path class="fil75" d="M356 461c0,1 0,3 0,4 1,3 1,5 0,8l0 0c0,0 -1,1 -1,0 -1,0 -1,0 -1,0 0,-1 0,-1 0,-2 -1,-1 -1,-3 -2,-4 0,-2 0,-4 0,-6 1,0 3,0 4,0z"/>
   <path class="fil17" d="M352 467c2,1 2,2 2,4 -2,-1 -2,-2 -2,-4z"/>
   <path class="fil17" d="M354 473c1,0 1,0 2,0 0,1 0,1 0,2 -1,-1 -1,-1 -2,-2z"/>
   <path class="fil50" d="M146 249c0,-1 0,-1 0,-2 6,1 13,-1 19,2 -6,1 -13,1 -19,0z"/>
   <path class="fil156" d="M356 436l0 0c1,-2 3,-5 2,-7 2,4 4,9 4,14 0,1 0,2 -1,3 -4,-2 -2,-7 -5,-10z"/>
   <path class="fil157" d="M366 424c-2,1 -2,3 -3,5 -1,-4 -3,-7 1,-10 0,1 0,2 2,3 0,1 0,2 0,2z"/>
   <path class="fil158" d="M253 300l1 1 0 0c0,0 -1,0 -1,-1z"/>
   <path class="fil95" d="M369 357c0,-1 -1,-2 -1,-3 0,1 1,2 1,3z"/>
   <path class="fil104" d="M161 403c0,1 -1,1 -2,1 1,0 1,-1 2,-1z"/>
   <path class="fil159" d="M135 430c0,0 0,-1 0,-1l0 0 0 1z"/>
   <path class="fil34" d="M156 282c-1,1 -1,1 -1,1 -1,0 0,0 1,-1l0 0z"/>
   <path class="fil12" d="M142 331c1,0 2,0 4,0 0,2 -1,5 -1,8 0,9 0,9 -9,5 0,-5 4,-9 6,-13z"/>
   <path class="fil12" d="M272 387c-3,-2 -1,-5 -2,-7 3,2 2,5 2,7z"/>
   <path class="fil36" d="M377 397c1,1 2,1 2,2 1,1 1,1 0,2 -2,0 -5,-1 -2,-4z"/>
   <path class="fil17" d="M371 399c0,0 0,-1 0,-1 1,0 1,0 2,0 0,0 0,1 0,1 0,1 -1,1 -2,0z"/>
   <path class="fil17" d="M373 381c2,1 2,3 2,4 -1,-1 -2,-2 -2,-4z"/>
   <path class="fil11" d="M379 401l0 -1 0 -1c2,1 2,2 2,4 0,-1 -1,-1 -2,-2z"/>
   <path class="fil17" d="M356 473c0,-3 0,-5 0,-8 2,3 3,5 0,8z"/>
   <path class="fil33" d="M194 276c1,3 2,5 2,8 0,0 -1,0 -2,0 -1,-2 -3,-5 0,-8z"/>
  </g>
 </g>
</svg>
