<?xml version="1.0" encoding="UTF-8"?>
<!DOCTYPE svg PUBLIC "-//W3C//DTD SVG 1.1//EN" "http://www.w3.org/Graphics/SVG/1.1/DTD/svg11.dtd">
<!-- Creator: CorelDRAW X7 -->
<svg xmlns="http://www.w3.org/2000/svg" xml:space="preserve" width="165.821mm" height="93.6386mm" version="1.1" style="shape-rendering:geometricPrecision; text-rendering:geometricPrecision; image-rendering:optimizeQuality; fill-rule:evenodd; clip-rule:evenodd"
viewBox="0 0 12011 6782"
 xmlns:xlink="http://www.w3.org/1999/xlink">
 <defs>
  <style type="text/css">
   <![CDATA[
    .fil5 {fill:#332C2B;fill-rule:nonzero}
    .fil10 {fill:#FDD100;fill-rule:nonzero}
    .fil3 {fill:#00A2E9;fill-rule:nonzero}
    .fil2 {fill:#2F2E41;fill-rule:nonzero}
    .fil7 {fill:#5CBAD1;fill-rule:nonzero}
    .fil6 {fill:#A0616A;fill-rule:nonzero}
    .fil11 {fill:#CCCCCC;fill-rule:nonzero}
    .fil1 {fill:#E4E4E4;fill-rule:nonzero}
    .fil8 {fill:#F0F0F0;fill-rule:nonzero}
    .fil0 {fill:#FFB6B6;fill-rule:nonzero}
    .fil9 {fill:white;fill-rule:nonzero}
    .fil4 {fill:black;fill-rule:nonzero;fill-opacity:0.101961}
   ]]>
  </style>
 </defs>
 <g id="Layer_x0020_1">
  <metadata id="CorelCorpID_0Corel-Layer"/>
  <g id="_322173304">
   <path class="fil0" d="M10248 4306c34,-8 58,-39 58,-74 0,-11 -2,-21 -7,-31l199 -186 -137 -33 -168 182c-25,13 -41,39 -41,68 0,42 35,76 77,76 6,0 13,0 19,-2z"/>
   <path class="fil1" d="M10350 4157l-92 -131 347 -359 81 -567c14,-95 95,-165 191,-165 21,0 42,3 61,10l0 0c79,26 131,100 131,183 0,20 -3,41 -10,61l-205 611 -504 357z"/>
   <polygon class="fil0" points="11003,6570 10900,6570 10851,6174 11003,6174 "/>
   <path class="fil2" d="M11058 6765l-73 0 -13 -68 -33 68 -193 0c0,0 0,0 0,0 -24,0 -44,-19 -44,-43 0,-14 7,-28 19,-36l154 -106 0 -70 163 10 20 245z"/>
   <polygon class="fil0" points="11636,6466 11546,6515 11314,6190 11447,6118 "/>
   <path class="fil2" d="M11778 6611l-64 35 -44 -55 3 77 -169 92c-7,4 -14,5 -21,5 -24,0 -44,-19 -44,-43 0,-7 2,-14 5,-20l85 -167 -33 -61 147 -69 135 206z"/>
   <path class="fil3" d="M11046 6429l-212 0 0 -755 -132 -493c-63,-237 -95,-483 -95,-729 0,-118 7,-236 22,-353l0 -1 1 -1c3,-3 340,-281 552,-68 144,143 9,659 1,687l0 889 -137 824z"/>
   <path class="fil1" d="M11046 2866l-2 -1 -270 4 -145 339c-133,208 -6,326 3,345l-25 254 -17 165 -26 265 620 -203 -69 -276 80 -399c7,-35 11,-71 11,-107 0,-145 -58,-284 -160,-386l0 0z"/>
   <polygon class="fil3" points="10919,5678 11355,6291 11523,6172 11159,5424 "/>
   <circle class="fil0" cx="10884" cy="2550" r="250"/>
   <polygon class="fil4" points="11125,3517 10852,3831 10590,3972 10607,3807 10761,3721 "/>
   <path class="fil5" d="M10709 3018l-24 -102c-4,-19 -6,-39 -6,-58 0,-51 15,-101 43,-144 19,-30 28,-64 28,-99 0,-31 -7,-61 -23,-89 -24,-47 -72,-77 -125,-79l-6 0 0 -6c0,-89 70,-153 135,-156 2,-19 15,-36 38,-49 55,-32 161,-38 242,4 3,-28 21,-52 47,-62 8,-3 16,-5 24,-5 6,0 11,1 17,2 1,-22 10,-44 26,-60 22,-21 57,-29 97,-22 55,10 109,45 152,98 38,47 65,103 91,157 25,53 51,108 89,154 42,51 93,84 145,93 61,11 123,-14 151,-60l6 -10 5 10c32,59 19,139 -31,192 -45,47 -115,71 -188,64 -62,-6 -124,-32 -185,-78 -61,-46 -98,-96 -112,-150 -3,-16 -6,-33 -8,-50 -4,-36 -8,-69 -30,-94 -19,-22 -50,-32 -77,-39l-5 -2c-2,21 -13,39 -29,51 -5,3 -11,5 -16,6 31,126 18,222 -39,286 -95,109 -279,86 -287,85l-5 0 0 -6c-1,-14 -3,-28 -5,-41 -27,63 -115,231 -127,248l-8 11z"/>
   <path class="fil6" d="M1886 3422c-15,20 -40,32 -66,32 -23,0 -45,-9 -60,-26l-269 117 26 -150 251 -89c15,-11 33,-18 52,-18 46,0 83,37 83,83 0,18 -6,36 -17,51l0 0z"/>
   <path class="fil7" d="M1707 3469l-625 278 -2 0 -712 -254c-77,-41 -126,-121 -126,-208 0,-33 7,-66 21,-97l0 0c38,-83 121,-137 213,-137 43,0 85,11 121,33l530 319 514 -66 66 132z"/>
   <path class="fil8" d="M1968 1636c-236,-523 -227,-1185 140,-1626 122,611 458,1160 945,1548 189,149 415,295 466,530 32,146 -13,301 -92,428 -78,127 -188,232 -296,335l-13 36c-471,-327 -913,-729 -1150,-1251z"/>
   <path class="fil3" d="M2118 16c-85,462 -22,954 183,1378 44,91 97,180 168,254 70,71 158,122 254,148 89,26 183,43 264,90 86,50 139,133 160,229 25,117 7,237 -15,353 -24,129 -52,262 -16,392 4,16 -21,21 -25,6 -62,-226 58,-448 41,-675 -8,-106 -47,-210 -138,-271 -79,-54 -176,-71 -267,-96 -95,-27 -180,-68 -253,-136 -74,-70 -131,-157 -177,-247 -104,-205 -176,-425 -211,-652 -20,-121 -30,-245 -30,-368 0,-138 13,-276 38,-412 3,-16 27,-9 24,7l0 0z"/>
   <path class="fil3" d="M2227 1260c-33,10 -68,16 -103,16 -127,0 -244,-72 -302,-185 -7,-14 15,-27 22,-12 54,105 162,171 280,171 33,0 66,-5 97,-15 16,-5 22,20 6,25l0 0z"/>
   <path class="fil3" d="M2676 1789c49,-94 75,-198 75,-304 0,-57 -8,-114 -23,-169 -4,-16 21,-22 25,-6 15,57 23,116 23,175 0,110 -27,220 -79,317 -8,15 -29,1 -21,-13l0 0z"/>
   <path class="fil3" d="M2077 539c64,-7 120,-45 150,-103 7,-14 29,-1 21,14 -33,63 -95,105 -166,114 -1,0 -1,0 -2,0 -6,0 -11,-4 -13,-10 0,-1 0,-2 0,-3 0,-6 4,-11 10,-12l0 0z"/>
   <path class="fil8" d="M4049 15c-4,9 -8,18 -13,28 -58,123 -107,252 -144,383 -3,10 -6,21 -9,31 -62,229 -95,466 -95,704 0,91 5,182 14,273 14,130 38,260 71,386 45,176 109,362 95,537 -2,18 -4,37 -8,55l-798 487c-2,0 -4,1 -7,1l-31 21c-2,-7 -4,-14 -6,-20 -1,-4 -2,-7 -4,-11 -1,-3 -1,-5 -2,-7 0,-1 -1,-2 -1,-3 -1,-2 -1,-4 -2,-6 -12,-38 -24,-75 -35,-113 0,0 0,0 0,-1 -86,-288 -149,-585 -165,-883 0,-9 -1,-18 -1,-28 -2,-38 -3,-77 -3,-116 0,-95 6,-191 17,-286 8,-73 21,-146 37,-218 42,-185 113,-363 210,-526 194,-326 490,-587 853,-681 9,-2 18,-5 27,-7z"/>
   <path class="fil3" d="M4054 26c-346,318 -592,749 -683,1210 -20,100 -31,203 -19,305 13,98 52,192 113,271 55,74 121,144 157,231 39,91 31,190 -10,279 -51,109 -137,193 -225,272 -97,89 -199,179 -249,304 -6,15 -29,4 -23,-11 87,-217 316,-322 439,-513 58,-90 89,-197 53,-300 -31,-91 -98,-163 -155,-238 -60,-78 -103,-163 -120,-261 -18,-100 -10,-204 7,-303 40,-226 116,-445 224,-648 122,-231 283,-441 476,-618 12,-11 27,9 15,20l0 0z"/>
   <path class="fil3" d="M3393 1085c-136,-48 -228,-176 -228,-320 0,-20 2,-39 5,-59 3,-16 28,-12 25,4 -3,18 -4,37 -4,55 0,134 85,253 212,297 15,5 5,28 -10,23l0 0z"/>
   <path class="fil3" d="M3432 1778c148,-70 265,-194 327,-346 6,-15 29,-5 23,10 -64,158 -186,287 -341,359 -15,7 -24,-17 -9,-23l0 0z"/>
   <path class="fil3" d="M3706 419c30,18 64,27 99,27 29,0 57,-6 83,-19 15,-7 24,17 9,24 -29,14 -60,21 -92,21 -38,0 -76,-11 -109,-30 -5,-2 -8,-7 -8,-12 0,-2 1,-3 1,-5 2,-4 7,-7 12,-7 2,0 4,0 5,1l0 0z"/>
   <path class="fil8" d="M7109 1910c-236,-522 -228,-1185 139,-1626 122,612 458,1160 946,1548 188,149 414,296 466,531 32,146 -14,300 -93,428 -78,127 -188,232 -296,335l-12 35c-472,-326 -914,-728 -1150,-1251z"/>
   <path class="fil3" d="M7258 291c-84,462 -22,954 183,1377 45,92 98,181 169,254 69,71 157,123 253,149 89,26 183,42 265,89 85,50 139,134 159,230 26,117 7,236 -15,352 -24,129 -51,263 -16,392 4,16 -20,22 -25,6 -61,-225 58,-448 42,-674 -8,-106 -48,-210 -139,-272 -79,-53 -176,-70 -267,-96 -95,-27 -180,-68 -253,-136 -74,-69 -131,-156 -177,-246 -104,-205 -175,-425 -211,-652 -19,-122 -29,-245 -29,-369 0,-138 12,-276 37,-412 3,-16 27,-8 24,8l0 0z"/>
   <path class="fil3" d="M7368 1534c-34,11 -69,16 -104,16 -127,0 -244,-71 -302,-184 -7,-15 15,-27 23,-13 53,106 161,172 279,172 33,0 66,-5 98,-16 15,-5 21,20 6,25l0 0z"/>
   <path class="fil3" d="M7816 2063c49,-93 75,-198 75,-304 0,-57 -7,-114 -22,-169 -4,-15 20,-21 24,-5 15,57 23,115 23,174 0,111 -27,220 -79,318 -7,14 -29,1 -21,-14l0 0z"/>
   <path class="fil3" d="M7217 813c64,-6 121,-45 150,-102 8,-15 29,-1 22,13 -33,63 -96,106 -166,114 -1,0 -2,0 -3,0 -6,0 -11,-4 -13,-9 0,-1 0,-2 0,-3 0,-6 4,-11 10,-13l0 0z"/>
   <path class="fil8" d="M9190 289c-5,10 -9,19 -13,28 -59,123 -107,253 -145,384 -3,10 -6,20 -9,30 -62,230 -94,467 -94,705 0,91 5,182 14,272 13,130 37,260 70,387 46,175 109,361 95,536 -1,19 -4,37 -7,55l-798 487c-3,1 -5,1 -7,1l-31 21c-2,-6 -5,-13 -7,-19 -1,-4 -2,-8 -3,-12 -1,-2 -2,-5 -3,-7 0,-1 0,-2 -1,-2 0,-3 -1,-5 -2,-7 -12,-37 -23,-75 -35,-113 0,0 0,0 0,0 -86,-288 -149,-586 -164,-884 -1,-9 -2,-18 -2,-27 -1,-38 -2,-78 -2,-116 0,-96 5,-192 16,-287 9,-72 22,-145 38,-217 41,-185 113,-364 210,-527 194,-326 490,-586 852,-681 9,-2 18,-4 28,-7z"/>
   <path class="fil3" d="M9194 301c-346,318 -592,748 -683,1210 -20,100 -31,203 -19,304 13,99 52,192 113,271 56,75 121,144 158,231 38,91 30,190 -11,279 -50,109 -137,193 -224,273 -97,88 -200,178 -249,303 -6,15 -30,5 -24,-10 87,-217 316,-323 440,-514 57,-89 88,-196 53,-300 -32,-90 -99,-162 -156,-237 -59,-79 -103,-163 -120,-261 -17,-100 -10,-204 7,-304 40,-226 116,-445 224,-647 122,-232 284,-441 476,-619 12,-11 27,10 15,21l0 0z"/>
   <path class="fil3" d="M8533 1359c-136,-47 -227,-176 -227,-320 0,-19 1,-39 5,-58 3,-16 28,-12 25,4 -3,18 -5,36 -5,54 0,134 85,254 212,297 15,5 5,29 -10,23l0 0z"/>
   <path class="fil3" d="M8572 2052c149,-70 266,-194 327,-346 6,-15 29,-5 23,10 -64,159 -186,287 -341,360 -15,7 -24,-17 -9,-24l0 0z"/>
   <path class="fil3" d="M8846 693c30,18 64,28 99,28 29,0 57,-7 83,-19 15,-7 24,16 9,23 -28,14 -60,21 -92,21 -38,0 -76,-10 -109,-30 -4,-2 -7,-6 -7,-11 0,-2 0,-4 1,-5 2,-5 6,-8 11,-8 2,0 4,1 5,1z"/>
   <path class="fil3" d="M2331 5344l6078 0 0 -3519c0,-55 -45,-99 -100,-99l-5879 0c-55,0 -99,44 -99,99l0 3519z"/>
   <rect class="fil9" x="2518" y="1863" width="5703" height="3238"/>
   <path class="fil3" d="M2325 5249l0 434c0,0 0,0 0,0 0,76 62,137 137,137l2244 0 0 857 -30 0c0,0 0,0 0,0 -10,0 -18,8 -18,18 0,0 0,0 0,0l0 60c0,0 0,0 0,0 0,9 8,17 18,17 0,0 0,0 0,0l1393 0c0,0 0,0 0,0 10,0 18,-8 18,-17 0,0 0,0 0,0l0 -60c0,0 0,0 0,0 0,-10 -8,-18 -18,-18 0,0 0,0 0,0l-30 0 0 -857 2243 0c76,0 138,-61 138,-137 0,0 0,0 0,0l0 -434 -6095 0z"/>
   <path class="fil10" d="M4292 3464l-1390 0c-20,0 -37,-16 -37,-36l0 -564c0,-20 17,-37 37,-37l1390 0c20,0 36,17 36,37l0 564c0,20 -16,36 -36,36l0 0z"/>
   <path class="fil1" d="M4159 3735l-1125 0c-24,0 -44,-20 -44,-44 0,-24 20,-44 44,-44l1125 0c57,-1 57,89 0,88z"/>
   <path class="fil1" d="M4159 3936l-1125 0c-24,0 -44,-20 -44,-44 0,-24 20,-44 44,-44l1125 0c57,-1 57,89 0,88z"/>
   <path class="fil1" d="M4159 4137l-1125 0c-24,0 -44,-20 -44,-44 0,-24 20,-44 44,-44l1125 0c57,-1 57,88 0,88z"/>
   <path class="fil10" d="M6065 3464l-1390 0c-20,0 -37,-16 -37,-36l0 -564c0,-20 17,-37 37,-37l1390 0c20,0 36,17 36,37l0 564c0,20 -16,36 -36,36l0 0z"/>
   <path class="fil1" d="M5932 3735l-1125 0c-24,0 -44,-20 -44,-44 0,-24 20,-44 44,-44l1125 0c57,-1 57,89 0,88z"/>
   <path class="fil1" d="M5932 3936l-1125 0c-24,0 -44,-20 -44,-44 0,-24 20,-44 44,-44l1125 0c57,-1 57,89 0,88z"/>
   <path class="fil1" d="M5932 4137l-1125 0c-24,0 -44,-20 -44,-44 0,-24 20,-44 44,-44l1125 0c57,-1 57,88 0,88z"/>
   <path class="fil10" d="M7838 3464l-1390 0c-20,0 -37,-16 -37,-36l0 -564c0,-20 17,-37 37,-37l1390 0c20,0 36,17 36,37l0 564c0,20 -16,36 -36,36l0 0z"/>
   <path class="fil1" d="M7705 3735l-1125 0c-24,0 -44,-20 -44,-44 0,-24 20,-44 44,-44l1125 0c57,-1 57,89 0,88z"/>
   <path class="fil1" d="M7705 3936l-1125 0c-24,0 -44,-20 -44,-44 0,-24 20,-44 44,-44l1125 0c57,-1 57,89 0,88z"/>
   <path class="fil1" d="M7705 4137l-1125 0c-24,0 -44,-20 -44,-44 0,-24 20,-44 44,-44l1125 0c57,-1 57,88 0,88z"/>
   <path class="fil3" d="M10212 2835l4 707 16 -1 14 262 -28 1 0 157 23 0 5 262 -26 0 12 2307c0,0 0,0 0,1 0,125 -101,227 -226,228l-2548 13c0,0 -1,0 -1,0 -125,0 -227,-101 -228,-226l-20 -3695c0,0 0,0 0,-1 0,-125 101,-227 227,-228l2547 -14c1,0 1,0 1,0 126,0 227,102 228,227l0 0z"/>
   <path class="fil9" d="M10009 6613l-2556 14c0,0 0,0 0,0 -39,0 -71,-31 -71,-70l-20 -3719c0,0 0,0 0,0 0,-39 31,-70 70,-70l2557 -14c0,0 0,0 0,0 38,0 70,31 70,70l20 3719c0,0 0,0 0,0 0,39 -31,70 -70,70l0 0z"/>
   <circle class="fil9" cx="8700" cy="2685" r="19"/>
   <path class="fil10" d="M9461 3801l-1480 0c-22,0 -39,-18 -39,-39l0 -601c0,-21 17,-39 39,-39l1480 0c21,0 38,18 38,39l0 601c0,21 -17,39 -38,39l0 0z"/>
   <path class="fil1" d="M9320 4089l-1198 0c-26,0 -47,-21 -47,-47 0,-26 21,-47 47,-47l1198 0c60,-1 60,94 0,94z"/>
   <path class="fil1" d="M9320 4302l-1198 0c-26,0 -47,-20 -47,-46 0,-26 21,-47 47,-47l1198 0c60,-1 60,94 0,93z"/>
   <path class="fil1" d="M9320 4516l-1198 0c-26,0 -47,-21 -47,-46 0,-26 21,-47 47,-47l1198 0c60,-1 60,94 0,93z"/>
   <path class="fil10" d="M9461 5543l-1480 0c-22,0 -39,-18 -39,-39l0 -601c0,-21 17,-38 39,-38l1480 0c21,0 38,17 38,38l0 601c0,21 -17,39 -38,39l0 0z"/>
   <path class="fil1" d="M9320 5831l-1198 0c-26,0 -47,-21 -47,-47 0,-26 21,-47 47,-47l1198 0c60,0 60,95 0,94z"/>
   <path class="fil1" d="M9320 6045l-1198 0c-26,0 -47,-21 -47,-47 0,-26 21,-47 47,-47l1198 0c60,-1 60,94 0,94z"/>
   <path class="fil1" d="M9320 6259l-1198 0c-26,0 -47,-21 -47,-47 0,-26 21,-47 47,-47l1198 0c60,-1 60,94 0,94z"/>
   <path class="fil3" d="M2886 6591l-5 -2037 19 0 -1 -375 -19 0 -1 -625c-1,-98 -80,-177 -178,-177 0,0 0,0 -1,0l-1323 3c-98,0 -178,80 -178,178 0,0 0,0 0,0l1 436 -29 1 6 262 24 -1 0 58 -25 1 7 262 19 -1 5 2019c0,98 79,177 177,177 0,0 1,0 1,0l1324 -3c98,0 177,-80 177,-178 0,0 0,0 0,0l0 0z"/>
   <path class="fil9" d="M1344 6691c-33,-12 -56,-44 -56,-80l-7 -3069c0,0 0,0 0,0 0,-47 38,-85 85,-85l281 -1 -3 8c-5,12 -7,25 -7,37 0,55 44,99 98,99 0,0 0,0 0,0l625 -2c32,-3 60,-20 76,-47 10,-16 15,-33 15,-51 0,-13 -3,-26 -8,-37l-3 -9 291 -1c0,0 0,0 0,0 47,0 85,38 85,85l7 2928c0,0 0,0 0,0 0,125 -101,226 -226,227l-1224 3c0,0 0,0 0,0 -10,0 -19,-2 -28,-5l-1 0z"/>
   <circle class="fil9" cx="1827" cy="3509" r="19"/>
   <path class="fil10" d="M2576 4472l-1006 0c-14,0 -26,-12 -26,-27l0 -408c0,-14 12,-26 26,-26l1006 0c14,0 26,12 26,26l0 408c0,15 -12,27 -26,27l0 0z"/>
   <path class="fil1" d="M2480 4667l-814 0c0,0 0,0 0,0 -18,0 -32,-14 -32,-31 0,-18 14,-32 32,-32 0,0 0,0 0,0l814 0c41,-1 41,64 0,63z"/>
   <path class="fil1" d="M2480 4813l-814 0c-18,0 -32,-14 -32,-32 0,-17 14,-32 32,-32l814 0c41,0 41,64 0,64z"/>
   <path class="fil1" d="M2480 4958l-814 0c0,0 0,0 0,0 -18,0 -32,-14 -32,-32 0,-17 14,-31 32,-31 0,0 0,0 0,0l814 0c41,-1 41,64 0,63z"/>
   <path class="fil10" d="M2576 5694l-1006 0c-14,0 -26,-11 -26,-26l0 -408c0,-15 12,-26 26,-26l1006 0c14,0 26,11 26,26l0 408c0,15 -12,26 -26,26l0 0z"/>
   <path class="fil1" d="M2480 5890l-814 0c0,0 0,0 0,0 -18,0 -32,-14 -32,-32 0,-17 14,-31 32,-31 0,0 0,0 0,0l814 0c41,-1 41,64 0,63z"/>
   <path class="fil1" d="M2480 6036l-814 0c-18,0 -32,-15 -32,-32 0,-18 14,-32 32,-32l814 0c41,0 41,64 0,64z"/>
   <path class="fil1" d="M2480 6181l-814 0c0,0 0,0 0,0 -18,0 -32,-14 -32,-32 0,-17 14,-32 32,-32 0,0 0,0 0,0l814 0c41,0 41,64 0,64z"/>
   <polygon class="fil6" points="328,6661 437,6661 489,6240 328,6240 "/>
   <path class="fil2" d="M300 6625l31 0 120 -49 64 49 0 0c76,0 137,62 137,137l0 5 -352 0 0 -142z"/>
   <polygon class="fil6" points="751,6592 858,6616 1001,6217 844,6181 "/>
   <path class="fil2" d="M732 6551l30 7 128 -21 52 62 0 0c62,14 107,69 107,133 0,10 -1,21 -4,31l-1 4 -343 -78 31 -138z"/>
   <path class="fil5" d="M189 4084c-51,155 -45,323 13,503l25 1013c0,0 -37,665 82,899l173 0 86 -960 11 -643 371 543 -236 1044 213 19 384 -1133 -474 -1099 -648 -186z"/>
   <path class="fil7" d="M868 4302l-630 -101c-50,-16 -84,-62 -84,-114 0,-19 5,-37 13,-54l29 -57 -11 -601c0,-2 0,-5 0,-7 0,-156 82,-301 216,-382l61 -36 31 -79 286 7 1 103 103 164 0 0 -7 890 -28 92 43 107 -23 68z"/>
   <circle class="fil6" cx="662" cy="2513" r="260"/>
   <path class="fil5" d="M392 2569c-8,-32 -5,-78 0,-111 11,-88 59,-167 132,-217 14,-11 30,-17 47,-19 2,0 3,0 4,0 16,0 31,10 38,25 8,-22 26,-39 48,-48 17,-6 35,-10 54,-10 4,0 9,0 14,1 92,7 172,65 209,149 7,17 27,-44 35,-29 9,17 23,29 40,35 17,5 24,76 31,59 4,10 6,21 6,32 0,43 -35,79 -79,79 -1,0 -2,-1 -3,-1 -17,-2 -34,-5 -51,-9 -6,-1 -11,-1 -17,-1 -59,0 -110,40 -125,97 -4,-18 -12,-35 -22,-50 -10,-15 -28,-25 -46,-25 -18,2 -34,11 -45,25 -11,14 -20,29 -32,43 -33,39 -79,130 -127,124 -38,-5 -101,-104 -111,-149z"/>
   <path class="fil6" d="M1632 4112c-10,5 -21,7 -33,7 -38,0 -71,-26 -80,-64l-292 -29 96 -118 263 46c4,-1 9,-1 14,-1 45,0 83,37 83,83 0,33 -20,63 -51,76l0 0z"/>
   <path class="fil7" d="M1453 4065l-682 -63 -1 -1 -497 -569c-25,-38 -38,-83 -38,-129 0,-74 35,-144 95,-188l0 0c40,-30 89,-46 139,-46 84,0 162,45 204,118l306 538 481 193 -7 147z"/>
   <path class="fil11" d="M11996 6782l-11981 0c-8,0 -15,-6 -15,-14 0,-9 7,-15 15,-15l11981 0c8,0 15,6 15,15 0,8 -7,14 -15,14l0 0z"/>
   <path class="fil0" d="M9912 4127c3,0 5,0 8,0 42,0 76,-34 76,-76 0,-2 0,-4 0,-6l248 -110 -118 -76 -218 116c-38,5 -66,37 -66,76 0,39 31,73 70,76l0 0z"/>
   <path class="fil1" d="M10058 4020l-44 -154 447 -224 264 -508c33,-64 99,-104 171,-104 43,0 84,15 118,41l0 0c47,37 74,93 74,152 0,43 -14,85 -40,118l-397 509 -593 170z"/>
  </g>
 </g>
</svg>
