<?xml version="1.0" encoding="UTF-8"?>
<!DOCTYPE svg PUBLIC "-//W3C//DTD SVG 1.1//EN" "http://www.w3.org/Graphics/SVG/1.1/DTD/svg11.dtd">
<!-- Creator: CorelDRAW X7 -->
<svg xmlns="http://www.w3.org/2000/svg" xml:space="preserve" width="121.348mm" height="103.118mm" version="1.1" style="shape-rendering:geometricPrecision; text-rendering:geometricPrecision; image-rendering:optimizeQuality; fill-rule:evenodd; clip-rule:evenodd"
viewBox="0 0 9522 8091"
 xmlns:xlink="http://www.w3.org/1999/xlink">
 <defs>
  <style type="text/css">
   <![CDATA[
    .fil9 {fill:#FEFEFE}
    .fil16 {fill:#FDE19F}
    .fil19 {fill:#FAC63C}
    .fil15 {fill:#F9C038}
    .fil12 {fill:#F3A470}
    .fil0 {fill:#FDFEFE}
    .fil22 {fill:#FBFDFC}
    .fil23 {fill:#FDEC80}
    .fil11 {fill:#F4F4F4}
    .fil10 {fill:#E57A4A}
    .fil30 {fill:#E89D71}
    .fil6 {fill:#DD5D28}
    .fil5 {fill:#D6EDF8}
    .fil25 {fill:#A84D33}
    .fil1 {fill:#BFE3ED}
    .fil20 {fill:#ABDBE6}
    .fil28 {fill:#A8CAEB}
    .fil21 {fill:#96D3E9}
    .fil18 {fill:#8CD1ED}
    .fil27 {fill:#73A8D1}
    .fil17 {fill:#58AFDE}
    .fil3 {fill:#6696CF}
    .fil14 {fill:#55BB9E}
    .fil2 {fill:#49BDC8}
    .fil24 {fill:#15AE83}
    .fil4 {fill:#0F9B9C}
    .fil8 {fill:#4D4698}
    .fil26 {fill:#30354F}
    .fil29 {fill:#292945}
    .fil7 {fill:#2E3388}
    .fil13 {fill:#292B59}
   ]]>
  </style>
 </defs>
 <g id="Layer_x0020_1">
  <metadata id="CorelCorpID_0Corel-Layer"/>
  <path class="fil0" d="M1501 2368c-246,-871 -677,-1671 -1252,-2359 52,-6 106,-9 160,-9 793,0 1436,643 1436,1436 0,356 -130,681 -344,932z"/>
  <path class="fil1" d="M3833 7926c0,91 -563,165 -1257,165 -694,0 -1256,-74 -1256,-165 0,-92 562,-166 1256,-166 694,0 1257,74 1257,166z"/>
  <path class="fil1" d="M9522 7719c0,68 -569,124 -1271,124 -701,0 -1270,-56 -1270,-124 0,-69 569,-125 1270,-125 702,0 1271,56 1271,125z"/>
  <polygon class="fil2" points="392,6313 243,6313 243,6164 150,6164 150,6313 0,6313 0,6407 150,6407 150,6556 243,6556 243,6407 392,6407 "/>
  <path class="fil3" d="M529 6038c0,51 -42,93 -93,93 -51,0 -92,-42 -92,-93 0,-51 41,-92 92,-92 51,0 93,41 93,92z"/>
  <path class="fil2" d="M8250 7235l-7038 0c-282,0 -512,-230 -512,-511l0 -5439c0,-282 230,-512 512,-512l7038 0c281,0 512,230 512,512l0 5439c0,281 -231,511 -512,511z"/>
  <path class="fil4" d="M1276 7005c-183,0 -332,-149 -332,-332l0 -5337c0,-184 149,-333 332,-333l6909 0c184,0 333,149 333,333l0 5337c0,183 -149,332 -333,332l-6909 0z"/>
  <path class="fil5" d="M8105 6832l-6748 0c-119,0 -215,-97 -215,-215l0 -5225c0,-119 96,-215 215,-215l6748 0c118,0 214,96 214,215l0 5225c0,118 -96,215 -214,215z"/>
  <path class="fil4" d="M216 6819c162,267 455,446 788,446l7454 0c333,0 626,-179 788,-446l-9030 0z"/>
  <path class="fil2" d="M313 6950l8836 0c36,-41 68,-84 97,-131l-9030 0c28,47 61,90 97,131z"/>
  <polygon class="fil6" points="3713,5661 1707,5661 1707,4538 3713,4538 "/>
  <polygon class="fil2" points="4424,1767 3669,1767 3669,1663 4424,1663 "/>
  <polygon class="fil2" points="3154,1767 2693,1767 2693,1663 3154,1663 "/>
  <polygon class="fil2" points="2554,1767 1641,1767 1641,1663 2554,1663 "/>
  <polygon class="fil2" points="3496,1767 3298,1767 3298,1663 3496,1663 "/>
  <polygon class="fil2" points="5076,1767 4616,1767 4616,1663 5076,1663 "/>
  <polygon class="fil2" points="3953,2071 3669,2071 3669,1967 3953,1967 "/>
  <polygon class="fil2" points="4348,2071 4065,2071 4065,1967 4348,1967 "/>
  <polygon class="fil2" points="2685,2071 2224,2071 2224,1967 2685,1967 "/>
  <polygon class="fil2" points="2093,2071 1641,2071 1641,1967 2093,1967 "/>
  <polygon class="fil2" points="3570,2071 2811,2071 2811,1967 3570,1967 "/>
  <path class="fil7" d="M2972 7735c-47,-153 -140,-801 -161,-1055 -4,-54 -595,-285 -595,-285 -345,-8 -523,127 -523,127l830 281c0,374 319,939 319,939l130 -7z"/>
  <path class="fil8" d="M2260 6877l-246 858 141 31c61,-202 416,-896 425,-979 4,-35 2,-62 -11,-73 -14,-11 -411,-249 -527,-275 -155,-35 -385,-90 -385,-90 0,0 -129,135 -104,355 25,221 707,173 707,173z"/>
  <path class="fil9" d="M1928 5368c0,0 -271,23 -283,97 -12,74 129,540 129,540l-137 366c0,0 389,96 579,24 18,9 49,-384 49,-384l68 -193 85 291 197 276 129 -104 -143 -252c0,0 -222,-505 -281,-564 -110,-110 -392,-97 -392,-97z"/>
  <path class="fil10" d="M2142 5387l-21 -278 -203 0 0 260c-25,3 28,210 191,210 0,0 76,-28 33,-192z"/>
  <path class="fil11" d="M1731 5858c24,83 43,147 43,147l-137 366c0,0 296,73 498,44 -18,-13 -257,-174 -269,-244 -24,-148 -135,-313 -135,-313z"/>
  <path class="fil12" d="M2322 4829c-17,-71 -128,-92 -303,-71 -120,14 -146,123 -150,205l-5 1c-41,13 -71,53 -68,96 1,23 9,43 23,60 16,25 42,42 72,46 9,1 17,0 25,-1 50,103 141,232 269,217 187,-131 137,-553 137,-553z"/>
  <path class="fil13" d="M1920 5016c0,0 -38,-93 49,-159 88,-65 93,32 186,44 92,11 183,4 173,65 55,-138 -25,-216 -115,-260 -90,-43 -232,-61 -330,21 -98,81 -84,278 -84,278 64,-31 82,-6 121,11z"/>
  <path class="fil13" d="M1883 4727c0,0 -81,-219 -235,-165 -154,54 -85,365 -102,500 -17,135 -114,141 -149,81 -64,123 189,247 271,129 82,-117 35,-416 87,-446 53,-31 106,9 106,9l22 -108z"/>
  <path class="fil9" d="M1651 5441c-65,37 -184,484 -184,558 0,73 575,440 575,440 0,0 27,-90 88,-109 -12,-6 -430,-405 -430,-405l111 -313c0,0 0,-263 -160,-171z"/>
  <polygon class="fil2" points="1998,6495 2584,6477 2965,6619 2320,6653 "/>
  <polygon class="fil4" points="2320,6653 1998,6528 1998,6495 2346,6621 "/>
  <polygon class="fil4" points="2320,6653 2514,6124 3155,6158 2965,6631 "/>
  <path class="fil2" d="M2714 6358c-19,38 -13,79 13,92 26,14 63,-7 82,-45 19,-38 13,-79 -13,-92 -26,-14 -63,7 -82,45z"/>
  <path class="fil12" d="M2130 6330c0,0 233,184 209,196 -25,13 -129,13 -184,-18 -56,-31 -113,-69 -113,-69 0,0 20,-103 88,-109z"/>
  <path class="fil13" d="M2161 7723c41,42 182,106 251,123 75,18 62,81 7,81 -106,0 -344,-14 -461,-14 -18,-55 13,-129 51,-178 11,-16 146,-18 152,-12z"/>
  <path class="fil13" d="M3001 7723c42,42 183,106 252,123 74,18 61,81 7,81 -107,0 -344,-14 -461,-14 -19,-55 13,-129 50,-178 12,-16 146,-18 152,-12z"/>
  <polygon class="fil14" points="2280,4257 1717,4257 1717,4102 2280,4102 "/>
  <polygon class="fil14" points="3713,4257 3151,4257 3151,4102 3713,4102 "/>
  <polygon class="fil14" points="2997,4257 2434,4257 2434,4102 2997,4102 "/>
  <polygon class="fil15" points="5554,1775 3771,2212 3608,1548 5391,1111 "/>
  <polygon class="fil16" points="5060,1385 3747,1707 3724,1615 5038,1293 "/>
  <polygon class="fil16" points="4884,1601 3787,1870 3764,1778 4862,1509 "/>
  <polygon class="fil16" points="4352,1921 3831,2049 3808,1957 4329,1830 "/>
  <polygon class="fil9" points="5218,1522 4939,1590 4917,1498 5196,1430 "/>
  <polygon class="fil9" points="3699,2296 3699,3931 1696,3931 1696,2296 "/>
  <polygon class="fil17" points="7787,3976 3849,3976 3849,3239 7787,3239 "/>
  <polygon class="fil9" points="7670,3869 6604,3869 6604,3346 7670,3346 "/>
  <polygon class="fil18" points="6456,3478 3993,3478 3993,3377 6456,3377 "/>
  <polygon class="fil18" points="6456,3658 3993,3658 3993,3557 6456,3557 "/>
  <polygon class="fil18" points="5651,3838 3993,3838 3993,3737 5651,3737 "/>
  <polygon class="fil9" points="7635,6278 3850,6278 3850,4502 7635,4502 "/>
  <polygon class="fil19" points="7635,4797 7635,4502 3850,4502 3850,4797 "/>
  <polygon class="fil20" points="6127,5366 3942,5366 3942,5216 6127,5216 "/>
  <polygon class="fil20" points="5902,5632 3942,5632 3942,5482 5902,5482 "/>
  <polygon class="fil20" points="5263,5899 3942,5899 3942,5749 5263,5749 "/>
  <polygon class="fil20" points="4729,5120 3942,5120 3942,4970 4729,4970 "/>
  <polygon class="fil21" points="7483,6106 6340,6106 6340,4963 7483,4963 "/>
  <path class="fil22" d="M7028 5527c18,-24 29,-54 29,-87l0 -87c0,-80 -65,-146 -145,-146 -81,0 -146,66 -146,146l0 87c0,34 12,66 31,91 -133,47 -229,174 -229,324l720 0c0,0 -28,-261 -260,-328z"/>
  <path class="fil6" d="M4120 4657c0,41 -34,74 -75,74 -41,0 -74,-33 -74,-74 0,-41 33,-74 74,-74 41,0 75,33 75,74z"/>
  <path class="fil23" d="M4358 4657c0,41 -34,74 -75,74 -41,0 -74,-33 -74,-74 0,-41 33,-74 74,-74 41,0 75,33 75,74z"/>
  <path class="fil24" d="M4634 4657c0,41 -33,74 -75,74 -41,0 -74,-33 -74,-74 0,-41 33,-74 74,-74 42,0 75,33 75,74z"/>
  <polygon class="fil6" points="7672,2918 6346,2918 6346,1593 7672,1593 "/>
  <path class="fil25" d="M8202 7481c0,0 11,35 -96,84 -107,48 -219,31 -247,72 -28,41 -34,80 -34,80l608 0c0,0 -4,-168 -73,-243 8,16 -158,7 -158,7z"/>
  <path class="fil25" d="M8865 7481c0,0 11,33 -92,80 -103,47 -212,31 -238,70 -27,39 -33,77 -33,77l585 0c0,0 -5,-162 -71,-234 9,16 -151,7 -151,7z"/>
  <polygon class="fil9" points="8082,4282 7640,4359 7330,3694 7805,3656 "/>
  <polygon class="fil26" points="7530,4215 7531,4215 "/>
  <path class="fil12" d="M8388 3034c0,0 -58,117 -58,224 0,74 9,182 15,240 2,21 23,35 43,29l87 -27 -5 126 243 -4 53 -510c0,0 -203,-223 -378,-78z"/>
  <path class="fil13" d="M8406 3302c0,0 14,-101 90,-80 76,21 -11,123 -11,123l73 131c53,19 112,21 170,-5 0,0 81,-246 81,-324 0,-77 -71,-130 -71,-130 0,0 -190,-94 -292,-90 -102,5 -112,107 -112,107 0,0 -38,78 0,112 39,34 72,156 72,156z"/>
  <path class="fil27" d="M8724 3552l-11 70 -251 1c0,0 49,-77 262,-71z"/>
  <path class="fil12" d="M7650 4180c0,0 18,-55 -53,-88 1,-12 -15,-77 -30,-92 -14,-15 -24,68 -24,68 0,0 -69,-124 -87,-92 -18,32 157,275 162,285 4,9 32,-81 32,-81z"/>
  <path class="fil13" d="M8304 4979l-169 1424 35 1104 211 -15c0,0 60,-581 65,-726 5,-146 -39,-369 -39,-369l214 -881 35 7 10 867 195 1102 178 8c0,0 4,-568 -10,-709 -15,-140 -91,-422 -91,-422l78 -898c0,0 77,-236 -62,-502 -18,2 -650,10 -650,10z"/>
  <path class="fil28" d="M8462 3623c0,0 -301,97 -356,152 -55,55 -213,622 -213,622l-237 -238 -74 173c0,0 278,414 366,427 87,13 284,-524 284,-524 0,0 18,293 52,440 39,168 20,304 20,304 269,49 498,39 650,-10l76 -565c0,0 102,12 135,-24 32,-35 -117,-621 -149,-666 -33,-45 -303,-92 -303,-92l-251 1z"/>
  <path class="fil27" d="M8755 4012c-1,-12 -20,-9 -20,3 9,243 1,480 -37,721 -3,16 21,24 25,7 52,-238 66,-489 32,-731z"/>
  <path class="fil27" d="M9032 4192c-2,-8 -14,-6 -15,2 -2,142 -20,278 -47,418 -24,124 -46,248 -38,375 2,18 29,18 28,0 -6,-147 24,-288 51,-431 22,-119 45,-244 21,-364z"/>
  <path class="fil27" d="M8260 4188c-81,51 -111,152 -142,237 -42,116 -84,230 -175,316 -13,13 7,33 21,21 168,-152 160,-399 303,-565 5,-5 -1,-13 -7,-9z"/>
  <path class="fil25" d="M8957 4927c0,0 -407,52 -653,-25 6,0 0,77 0,77 0,0 313,118 673,26 -3,-1 -20,-78 -20,-78z"/>
  <path class="fil29" d="M4738 6585c0,0 -34,73 -92,86 -58,12 -212,46 -236,67 -25,22 -25,77 -25,77l487 0c0,0 -1,-148 -29,-224 12,0 -105,-6 -105,-6z"/>
  <path class="fil29" d="M5677 6585c0,0 -34,73 -92,86 -58,12 -212,46 -236,67 -25,22 -25,77 -25,77l487 0c0,0 -1,-148 -29,-224 12,0 -105,-6 -105,-6z"/>
  <path class="fil30" d="M5617 1799c0,0 -135,-35 -143,-13 -9,21 209,86 209,86l196 544 -73 174 135 147c0,0 147,-199 159,-258 13,-58 -349,-644 -349,-644 0,0 -72,-228 -83,-239 -11,-11 -141,-5 -170,-4 -30,1 85,117 85,117l34 90z"/>
  <path class="fil30" d="M5090 2201c0,0 -65,91 -79,188 -14,96 5,188 5,188l118 -3 0 111 236 0c0,0 5,-85 14,-131 9,-46 74,-133 74,-133l-106 -299 -152 -14 -110 93z"/>
  <path class="fil13" d="M5149 2343c0,0 42,-97 92,-60 51,37 -13,115 -13,115 0,0 32,133 87,152 55,18 55,18 55,18 0,0 143,-133 166,-170 23,-37 -37,-249 -78,-295 -42,-46 -221,-41 -235,-64 -14,-23 -60,-64 -106,-46 -46,18 -37,170 -37,170 0,0 57,49 61,85 4,35 -23,82 -23,82l31 13z"/>
  <path class="fil13" d="M4926 2692c0,0 236,-35 371,-38 135,-3 349,68 349,68l157 -168 199 187c0,0 -170,251 -224,309 -55,58 -95,331 -107,414 -12,83 -43,568 -43,568 0,0 -144,172 -736,-15 -7,-7 24,-356 21,-442 -3,-86 -80,-378 -95,-448 -15,-71 -260,-212 -260,-212 0,0 -30,-172 83,-255 14,10 285,32 285,32z"/>
  <path class="fil30" d="M4379 1988c0,0 -89,83 -95,117 -6,34 122,418 122,418l235 137 -83 255c0,0 -256,-178 -292,-230 -37,-52 -102,-574 -102,-574 0,0 -83,-104 -89,-132 -6,-27 -25,-118 -11,-136 14,-17 109,-116 123,-86 14,29 65,241 65,241 0,0 106,-46 127,-10z"/>
  <path class="fil8" d="M4892 4017l-134 1258 -69 1334 230 10c0,0 143,-886 145,-1021 2,-135 -2,-296 -2,-296l147 -672 83 0 170 875 175 1086 184 9c0,0 28,-676 0,-815 -27,-138 -69,-271 -69,-271l-83 -907c0,0 74,-322 -41,-575 -23,-46 -736,-15 -736,-15z"/>
  <polygon class="fil19" points="3485,2585 3336,2585 3336,2436 3243,2436 3243,2585 3093,2585 3093,2679 3243,2679 3243,2828 3336,2828 3336,2679 3485,2679 "/>
  <path class="fil2" d="M2093 3394c-62,0 -112,50 -112,112 0,61 50,112 112,112 62,0 112,-51 112,-112 0,-62 -50,-112 -112,-112zm0 346c-129,0 -234,-105 -234,-234 0,-129 105,-234 234,-234 129,0 234,105 234,234 0,129 -105,234 -234,234z"/>
  <polygon class="fil2" points="9285,1591 9135,1591 9135,1442 9042,1442 9042,1591 8892,1591 8892,1685 9042,1685 9042,1834 9135,1834 9135,1685 9285,1685 "/>
  <path class="fil3" d="M8537 570c0,51 -41,93 -92,93 -51,0 -93,-42 -93,-93 0,-51 42,-92 93,-92 51,0 92,41 92,92z"/>
  <path class="fil15" d="M6733 1848c-62,0 -112,50 -112,111 0,62 50,112 112,112 61,0 111,-50 111,-112 0,-61 -50,-111 -111,-111zm0 345c-129,0 -234,-105 -234,-234 0,-129 105,-234 234,-234 129,0 233,105 233,234 0,129 -104,234 -233,234z"/>
  <path class="fil15" d="M7975 301c-61,0 -112,50 -112,112 0,62 51,112 112,112 62,0 112,-50 112,-112 0,-62 -50,-112 -112,-112zm0 346c-129,0 -234,-105 -234,-234 0,-129 105,-234 234,-234 129,0 234,105 234,234 0,129 -105,234 -234,234z"/>
 </g>
</svg>
